<?xml version="1.0" encoding="UTF-8"?><!DOCTYPE svg PUBLIC "-//W3C//DTD SVG 1.1//EN" "http://www.w3.org/Graphics/SVG/1.1/DTD/svg11.dtd"><svg xmlns="http://www.w3.org/2000/svg"><symbol id="icon-add" viewBox="0 0 24 24" fill="currentColor"><g><path d="M16 11h-3V8c0-.6-.4-1-1-1s-1 .4-1 1v3H8c-.6 0-1 .4-1 1s.4 1 1 1h3v3c0 .6.4 1 1 1s1-.4 1-1v-3h3c.6 0 1-.4 1-1s-.4-1-1-1zM20.5 1h-17C2.1 1 1 2.1 1 3.5v17C1 21.9 2.1 23 3.5 23h17c1.4 0 2.5-1.1 2.5-2.5v-17C23 2.1 21.9 1 20.5 1zm.5 19.5c0 .3-.2.5-.5.5h-17c-.3 0-.5-.2-.5-.5v-17c0-.3.2-.5.5-.5h17c.3 0 .5.2.5.5v17z"/></g></symbol><symbol id="icon-airplane" viewBox="0 0 24 24" fill="currentColor"><path d="M7.1 24h-.2c-.3-.1-.6-.3-.7-.6l-1.4-4.2-4.2-1.4c-.4-.2-.6-.5-.7-.8-.1-.3 0-.7.3-.9l2.3-2.3c.2-.2.4-.3.7-.3H6l2.6-2.6L.4 5.5c-.2-.2-.4-.4-.4-.7s.1-.6.3-.8l2.4-2.4c.8-.8 1.9-1 2.9-.5l8.2 4.6L18.6.9c1.2-1.2 3.2-1.2 4.4 0 1.2 1.3 1.2 3.2 0 4.5l-4.8 4.8 4.6 8.1c.5 1.1.3 2.2-.5 3l-2.4 2.4c-.2.2-.5.3-.8.3-.3 0-.6-.2-.7-.4L13 15.4 10.4 18v2.8c0 .3-.1.5-.3.7l-2.3 2.3c-.1.1-.4.2-.7.2zm6-11.2c.1 0 .1 0 0 0 .4 0 .7.2.8.4l5.4 8.1 1.5-1.5c.2-.2.2-.5.1-.7L16 10.4c-.2-.4-.2-.9.2-1.2L21.6 4c.4-.4.4-1.2 0-1.6-.5-.5-1.2-.5-1.6 0l-5.3 5.3c-.3.3-.8.4-1.2.2l-8.8-5h-.2c-.2-.1-.3 0-.4.1L2.5 4.5l8.1 5.4c.2.2.4.4.4.7s-.1.6-.3.8L7 15.1c-.2.2-.4.3-.7.3H3.6l-.9.9 3.1 1.1c.3.1.5.3.6.6l1.1 3.1.9-.9v-2.8c0-.3.1-.5.3-.7l3.7-3.7c.2-.1.5-.2.7-.2z"/></symbol><symbol id="icon-android" viewBox="-294.1 383.9 26.2 26.2" fill="currentColor"><g><path d="M-272 392c-.4 0-.7.1-1.1.2v-.5c-.3-1.9-1.3-7.7-7.9-7.7-4.4 0-7.1 2.6-7.9 7.7v.5c-.3-.1-.7-.2-1.1-.2-1.6 0-3 1.3-3 3v5c0 1.6 1.3 3 3 3 .3 0 .7-.1 1-.2v.2c0 .7.4 1.4 1 1.7v2.3c0 1.6 1.3 3 3 3 1.6 0 3-1.3 3-3v-2h2v2c0 1.6 1.3 3 3 3 1.6 0 3-1.3 3-3v-2.3c.6-.3 1-1 1-1.7v-.2c.3.1.6.2 1 .2 1.6 0 3-1.3 3-3v-5c0-1.6-1.3-3-3-3zm-9-6c3.5 0 5.2 1.8 5.9 6h-11.8c.7-4 2.5-6 5.9-6zm-9 15c-.6 0-1-.4-1-1v-5c0-.5.4-1 1-1 .5 0 1 .4 1 1v5c0 .6-.4 1-1 1zm6 6c0 .5-.4 1-1 1-.5 0-1-.4-1-1v-2h2v2zm2-4h-5v-9h12v9h-7zm6 4c0 .5-.4 1-1 1-.5 0-1-.4-1-1v-2h2v2zm5-7c0 .5-.4 1-1 1-.5 0-1-.4-1-1v-5c0-.5.4-1 1-1 .5 0 1 .4 1 1v5z"/><circle cx="-283.5" cy="389.5" r="1.5"/><circle cx="-278.5" cy="389.5" r="1.5"/></g></symbol><symbol id="icon-apple" viewBox="0 0 24 24" fill="currentColor"><path d="M21.4 16.3s-2.3-.9-2.3-3.5c0-2.2 1.8-3.2 1.8-3.2.2-.1.4-.3.5-.6.1-.3.1-.5-.1-.8-.1-.1-1.5-2.6-5.1-2.7 1.2-1.8 1-3.6 1-3.8L16.9 0h-1.7c-.3 0-2.5.1-4.1 2.3C10 3.7 9.9 5.1 10 5.8c-.5-.1-1-.2-1.6-.2C5.3 5.6 2 8.2 2 13.1 2 17.8 5.4 24 8.8 24c.6 0 1.2-.2 1.8-.4.6-.2 1.3-.5 1.9-.5.5 0 1 .2 1.5.4.6.2 1.3.5 2.1.5 3.4 0 5.6-5.8 5.8-6.4.2-.6 0-1.1-.5-1.3zM12.7 3.4C13.7 2 15.2 2 15.2 2s.2 1.3-.8 2.6c-.8 1-1.7 1.2-2.1 1.2h-.2s-.3-1.1.6-2.4zM16.1 22c-.5 0-.9-.2-1.4-.4-.6-.2-1.4-.5-2.2-.5-.9 0-1.8.3-2.6.6-.4.1-.9.3-1.1.3C7.1 22 4 17.3 4 13.1c0-3.7 2.2-5.6 4.3-5.6.8 0 1.5.3 2.2.5.6.2 1.1.4 1.7.4.5 0 1-.2 1.5-.4.7-.3 1.5-.6 2.4-.6 1.4 0 2.3.5 2.8 1-.9.8-1.9 2.1-1.9 4.3 0 2.7 1.6 4.2 2.7 4.9-.8 2-2.3 4.4-3.6 4.4z"/></symbol><symbol id="icon-arrow-left" viewBox="105.8 5.1 420.5 793.1" fill="currentColor"><path d="M517.6 742.4c11.5 11.5 11.5 31.7 0 46.1-11.5 14.4-31.7 11.5-43.2 0l-360-365.8c-11.5-11.5-11.5-31.7 0-46.1l360-362.9c11.5-11.5 31.7-11.5 43.2 0 11.5 11.5 11.5 31.7 0 46.1L189.3 399.6l328.3 342.8z"/></symbol><symbol id="icon-arrow-right-alternate" viewBox="0 0 24 24" fill="currentColor"><path d="M15.3 5.7l5.3 5.3H1c-.6 0-1 .4-1 1s.4 1 1 1h19.6l-5.3 5.3c-.4.4-.4 1 0 1.4.4.4 1 .4 1.4 0l7-7c.2-.2.3-.5.3-.7 0-.3-.1-.5-.3-.7l-7-7c-.4-.4-1-.4-1.4 0-.4.4-.4 1 0 1.4z"/></symbol><symbol id="icon-arrow-right" viewBox="105.8 5.1 420.5 793.1" fill="currentColor"><path d="M442.8 399.6L114.4 59.8c-11.5-14.4-11.5-34.6 0-46.1s31.7-11.5 43.2 0l360 362.9c11.5 14.4 11.5 34.6 0 46.1l-360 365.8c-11.5 11.5-31.7 14.4-43.2 0-11.5-14.4-11.5-34.6 0-46.1l328.4-342.8z"/></symbol><symbol id="icon-balloons" viewBox="-293 385 24 25" fill="currentColor"><path d="M-269 394.1c0-3.3-2.7-6.1-6-6.1h-.2c-1.3-1.8-3.4-3-5.8-3s-4.5 1.2-5.8 3h-.2c-3.3 0-6 2.8-6 6.1 0 3 2.3 7.4 5.5 7.8.2.4.5 1 .5 1.4 0 .8-.3 1.1-.8 1.7-.6.6-1.3 1.5-1.3 3 0 .6.4 1 1 1s1-.4 1-1c0-.8.3-1.1.8-1.7.6-.6 1.3-1.5 1.3-3 0-.6-.2-1.2-.4-1.7.7-.3 1.3-.8 1.9-1.4.6.3 1.2.6 1.9.7.2.5.6 1.3.6 2.1 0 1.2-.4 1.7-.9 2.4-.5.8-1.2 1.8-1.2 3.6 0 .6.4 1 1 1s1-.4 1-1c0-1.2.4-1.7.9-2.4.5-.8 1.2-1.8 1.2-3.6 0-.8-.2-1.6-.5-2.3.3-.1.7-.3 1-.5.9.9 1.9 1.5 3 1.7.2.4.5.9.5 1.4 0 .8-.3 1.1-.8 1.7-.6.6-1.3 1.5-1.3 3 0 .6.4 1 1 1s1-.4 1-1c0-.8.3-1.1.8-1.7.6-.6 1.3-1.5 1.3-3 0-.6-.2-1.2-.4-1.7 2.6-1.1 4.4-4.8 4.4-7.5zm-12-7.1c2.8 0 5 2.2 5 5 0 3-2.5 7-5 7s-5-4-5-7c0-2.8 2.2-5 5-5zm-6 13c-2 0-4-3.4-4-5.9 0-2 1.4-3.7 3.3-4.1-.2.7-.3 1.3-.3 2 0 2.2 1.1 5.1 2.9 7-.5.5-1.1 1-1.9 1zm12 0c-.8 0-1.4-.5-1.9-1 1.8-1.9 2.9-4.8 2.9-7 0-.7-.1-1.3-.3-1.9 1.9.4 3.3 2 3.3 4.1 0 2.4-2 5.8-4 5.8z"/></symbol><symbol id="icon-bell" viewBox="0 0 24 24" fill="currentColor"><path d="M21 19h-8v-2h10c.6 0 1-.4 1-1 0-.5 0-1-1-1 0-5.7-4.4-10.5-10-11V2h1c.6 0 1-.4 1-1s-.4-1-1-1h-4c-.6 0-1 .4-1 1s.4 1 1 1h1v2.1C5.4 4.6 1 9.3 1 15c-.6 0-1 .4-1 1s.4 1 1 1h10v2H3c-1.7 0-3 1.3-3 3v1c0 .6.4 1 1 1h22c.6 0 1-.4 1-1v-1c0-1.7-1.3-3-3-3zM12 6c5 0 9 4 9 9H3c0-5 4-9 9-9zM2 22c0-.6.4-1 1-1h18c.6 0 1 .4 1 1H2z"/></symbol><symbol id="icon-book" viewBox="0 0 24 24" fill="currentColor"><path d="M23.6 3.6c-.2-.2-.6-.3-.9-.2l-1.7.4v-.9c0-1-.8-1.9-1.8-1.9C15.3 1 13 2.3 12 3c-1-.7-3.3-1.8-7.3-2C3.8 1 3 1.8 3 2.9v.9l-1.8-.4c-.3-.1-.6 0-.9.2s-.3.5-.3.8v14.9c0 .5.4.9.8 1L9 21.6c.4.9 1.2 1.5 2.2 1.5h1.4c1 0 1.9-.6 2.2-1.5l8.2-1.3c.5-.1.8-.5.8-1V4.4c.2-.3.1-.6-.2-.8zM13 4.7c.7-.5 2.5-1.4 6-1.7v12c-2.8.1-4.7.5-6 1.2V4.7zM5 3.1c3.8.2 5.4 1.2 6 1.7v11.6c-1.3-.7-3.4-1.1-6-1.3v-12zm17 15.3l-8 1.2c-.5.1-.8.5-.8 1 0 .2-.2.4-.4.4h-1.4c-.2 0-.4-.2-.4-.4 0-.5-.4-.9-.8-1l-8-1.2V5.6l1 .2V15c0 1 .8 1.8 1.8 1.9 2.8.1 4.7.6 5.7 1.3l.1.1c.4.3.9.7 1.5.7h.1c.5-.1 1-.4 1.4-.7l.1-.1c.9-.7 2.7-1 5.6-1.2 1 0 1.8-.9 1.8-2V5.9l1-.2v12.7z"/></symbol><symbol id="icon-calendar" viewBox="0 0 26 28" fill="currentColor"><path d="M2 26h4.5v-4.5H2V26zm5.5 0h5v-4.5h-5V26zM2 20.5h4.5v-5H2v5zm5.5 0h5v-5h-5v5zm-5.5-6h4.5V10H2v4.5zM13.5 26h5v-4.5h-5V26zm-6-11.5h5V10h-5v4.5zm12 11.5H24v-4.5h-4.5V26zm-6-5.5h5v-5h-5v5zM8 7V2.5q0-.203-.148-.352T7.5 2h-1q-.203 0-.352.148T6 2.5V7q0 .203.148.352T6.5 7.5h1q.203 0 .352-.148T8 7zm11.5 13.5H24v-5h-4.5v5zm-6-6h5V10h-5v4.5zm6 0H24V10h-4.5v4.5zM20 7V2.5q0-.203-.148-.352T19.5 2h-1q-.203 0-.352.148T18 2.5V7q0 .203.148.352t.352.148h1q.203 0 .352-.148T20 7zm6-1v20q0 .812-.594 1.406T24 28H2q-.812 0-1.406-.594T0 26V6q0-.812.594-1.406T2 4h2V2.5q0-1.03.734-1.766T6.5 0h1q1.03 0 1.766.734T10 2.5V4h6V2.5q0-1.03.734-1.766T18.5 0h1q1.03 0 1.766.734T22 2.5V4h2q.812 0 1.406.594T26 6z"/></symbol><symbol id="icon-camera" viewBox="0 0 24 24" fill="currentColor"><g><path d="M21.5 5h-3.3c-.2 0-.4-.2-.5-.4l-.4-1.9c0-.1 0-.1-.1-.2C16.9 1.6 16 1 15 1H9c-1 0-1.9.6-2.3 1.6 0 .1 0 .1-.1.2l-.3 1.8c-.1.2-.3.4-.5.4H2.5C1.1 5 0 6.1 0 7.5v12C0 20.9 1.1 22 2.5 22h19c1.4 0 2.5-1.1 2.5-2.5v-12C24 6.1 22.9 5 21.5 5zm.5 14.5c0 .3-.2.5-.5.5h-19c-.3 0-.5-.2-.5-.5v-12c0-.3.2-.5.5-.5h3.3C7 7 8 6.2 8.2 5l.4-1.7c.1-.2.2-.3.4-.3h6c.2 0 .3.1.4.3l.4 1.7c.2 1.2 1.2 2 2.4 2h3.3c.3 0 .5.2.5.5v12zM12 8c-2.8 0-5 2.2-5 5s2.2 5 5 5 5-2.2 5-5-2.2-5-5-5zm0 8c-1.7 0-3-1.3-3-3s1.3-3 3-3 3 1.3 3 3-1.3 3-3 3z"/></g></symbol><symbol id="icon-car" viewBox="0 0 24 24" fill="currentColor"><g><path d="M21.7 8l-2.4-6.5C18.9.6 18.1 0 17 0H7C5.9 0 5 .6 4.7 1.5L2.3 8C1 8.1 0 9.2 0 10.5v7c0 1.2.9 2.2 2 2.4v1.6C2 22.9 3.1 24 4.5 24h1C6.9 24 8 22.9 8 21.5V20h8v1.5c0 1.4 1.1 2.5 2.5 2.5h1c1.4 0 2.5-1.1 2.5-2.5v-1.6c1.1-.2 2-1.2 2-2.4v-7c0-1.3-1-2.4-2.3-2.5zM6.6 2.2c0-.2.3-.2.4-.2h10c.1 0 .4 0 .5.2L19.6 8H4.4l2.2-5.8zM6 21.5c0 .3-.2.5-.5.5h-1c-.3 0-.5-.2-.5-.5V20h2v1.5zm14 0c0 .3-.2.5-.5.5h-1c-.3 0-.5-.2-.5-.5V20h2v1.5zm2-4c0 .3-.2.5-.5.5h-19c-.3 0-.5-.2-.5-.5v-7c0-.3.2-.5.5-.5h19c.3 0 .5.2.5.5v7z"/><circle cx="6" cy="14" r="2"/><circle cx="18" cy="14" r="2"/></g></symbol><symbol id="icon-cart" viewBox="0 0 24 24" fill="currentColor"><g><circle cx="8" cy="22" r="2"/><circle cx="19" cy="22" r="2"/><path d="M20.9 13.3l3-9c.2-.3.1-.6-.1-.9-.2-.2-.5-.4-.8-.4H4.5L4 .8C3.9.3 3.5 0 3 0H1C.4 0 0 .4 0 1s.4 1 1 1h1.2l3.5 14.1C6 17.2 7 18 8.2 18H20c.6 0 1-.4 1-1s-.4-1-1-1H8.2c-.2 0-.4-.2-.5-.4L7.3 14H20c.4 0 .8-.3.9-.7zM6.8 12L5 5h16.6l-2.3 7H6.8z"/></g></symbol><symbol id="icon-chair" viewBox="-294 384 26 26" fill="currentColor"><path d="M-269.3 391c-.9-.8-2-1.1-3.2-1-.5.1-1 .3-1.5.5v-2c0-1.9-1.6-3.5-3.5-3.5h-7c-1.9 0-3.5 1.6-3.5 3.5v2.1c-.5-.3-1-.5-1.5-.6-1.2-.1-2.3.2-3.2 1-.8.7-1.3 1.9-1.3 3.1 0 1.9 1.2 3.5 3 4v3.8c0 .7 0 1.3 1 1.7v2.9c0 1.4 1 2.5 2.4 2.5h1c1.4 0 2.6-1.1 2.6-2.5V404h6v2.5c0 1.4 1.2 2.5 2.6 2.5h1c1.4 0 2.4-1.1 2.4-2.5v-2.9c1-.4 1-1 1-1.7v-3.7c1.8-.5 3-2.1 3-4 0-1.3-.5-2.5-1.3-3.2zm-16.7-2.5c0-.8.7-1.5 1.5-1.5h7c.8 0 1.5.7 1.5 1.5v8.5c0 .6-.4 1-1 1h-8c-.6 0-1-.4-1-1v-8.5zm0 18c0 .3-.3.5-.6.5h-1c-.3 0-.4-.2-.4-.5V404h2v2.5zm12 0c0 .3-.1.5-.4.5h-1c-.3 0-.6-.2-.6-.5V404h2v2.5zm2.5-10.3c-.9.2-1.5 1-1.5 1.9v3.8c0 .1-.1.1-.1.1H-288.9c-.1 0-.1 0-.1-.1v-3.8c0-.9-.6-1.7-1.5-1.9-.9-.2-1.5-1.1-1.5-2.1 0-.7.3-1.3.7-1.7.4-.4 1-.5 1.6-.5.9.2 1.7 1.2 1.7 2.3v2.8c0 1.7 1.3 3 3 3h8c1.7 0 3-1.3 3-3v-2.8c0-1.1.8-2 1.7-2.2.6-.1 1.2.1 1.6.5.5.4.7 1 .7 1.7 0 .9-.6 1.8-1.5 2z"/></symbol><symbol id="icon-chat-dots" viewBox="0 0 24 24" fill="currentColor"><g><path d="M24 10v-.2C23.6 4.3 18.6 0 12.5 0 6.2 0 1.1 4.7 1.1 10.5c0 1.8.5 3.6 1.5 5.2 0 1-.3 2.7-1.2 3.6-.3.3-.4.7-.2 1.1.1.4.5.6.9.6.1 0 2.6 0 4.7-1.5 1.7 1 3.7 1.5 5.7 1.5 6.1 0 11-4.5 11.4-10.3v-.4c.1-.1.1-.2.1-.3zm-11.5 9c-1.9 0-3.7-.5-5.2-1.5-.2-.1-.4-.2-.5-.2-.2 0-.5.1-.6.2-.7.6-1.4.9-2.1 1.1.5-1.5.6-2.9.6-3.3 0-.2-.1-.4-.2-.6-.9-1.3-1.3-2.8-1.3-4.3C3.1 5.8 7.3 2 12.5 2c5.1 0 9.3 3.7 9.4 8.3 0 4.8-4.2 8.7-9.4 8.7z"/><circle cx="7.5" cy="10.5" r="1.5"/><circle cx="12.5" cy="10.5" r="1.5"/><circle cx="17.5" cy="10.5" r="1.5"/></g></symbol><symbol id="icon-chat-heart" viewBox="0 0 24 24" fill="currentColor"><g><path d="M12 7.9c-1.4-1.2-3.6-1.1-4.9.2-1.4 1.5-1.4 3.8 0 5.3l3.6 3.9c.2.3.7.7 1.4.7s1.1-.5 1.4-.7l3.5-3.9c1.4-1.5 1.4-3.8 0-5.3-1.4-1.3-3.5-1.5-5-.2zm3.5 4.1L12 15.8 8.5 12c-.6-.7-.6-1.8 0-2.5.4-.3.8-.5 1.2-.5s.8.2 1.1.4l.5.6c.2.2.5.4.8.4.3 0 .6-.1.8-.4l.4-.5c.6-.7 1.7-.7 2.3 0 .5.7.5 1.8-.1 2.5zM24 11.7v-.5C23.6 5.5 18.4 1 12 1 5.4 1 0 5.9 0 12c0 1.9.5 3.8 1.6 5.4 0 1.1-.4 2.9-1.3 3.9 0 0 0 .1-.1.1 0 .1-.1.1-.1.2v.7l.1.1c0 .1.1.1.1.2 0 0 .1.1.2.1s.1.1.1.1c.2.2.4.2.5.2.1 0 2.7 0 5-1.6 1.8 1 3.9 1.6 6 1.6 6.3 0 11.5-4.8 11.9-10.8v-.5zM12 21c-2 0-3.9-.6-5.5-1.6-.4-.2-.8-.2-1.2.1-.7.6-1.6 1-2.3 1.2.6-1.6.6-3.1.6-3.5 0-.2-.1-.4-.2-.5-.9-1.4-1.4-3-1.4-4.6 0-5 4.5-9 10-9 5.4 0 9.8 3.9 9.9 8.7-.1 5.1-4.5 9.2-9.9 9.2z"/></g></symbol><symbol id="icon-chat" viewBox="0 0 24 24" fill="currentColor"><path d="M22.9 19.9c.7-1.2 1.1-2.5 1.1-3.9 0-2.7-1.5-5.2-4-6.7V8.4C19.6 3.7 15.3 0 10 0 4.5 0 0 4 0 9c0 1.5.4 3.1 1.3 4.4 0 .8-.3 2.2-1 2.9-.2.3-.3.7-.1 1.1.1.4.5.6.9.6.1 0 2.2 0 4.1-1.2.3.2.7.3 1 .5C7 21.1 10.7 24 15 24c1.5 0 3-.4 4.4-1 1.7 1 3.6 1 3.6 1 .4 0 .8-.2.9-.6s.1-.8-.2-1.1c-.6-.6-.8-1.7-.8-2.4zM5.1 14.6c-.2 0-.4.1-.6.2-.5.4-1 .6-1.5.8.4-1.1.4-2.2.4-2.5 0-.2-.1-.4-.2-.6-.7-1-1.1-2.2-1.1-3.5 0-3.9 3.6-7 8-7 4.3 0 7.8 3 7.9 6.8-.1 4-3.6 7.2-7.9 7.2-1.6 0-3.1-.4-4.4-1.2-.2-.2-.4-.2-.6-.2zm16 7c-.4-.1-.8-.3-1.1-.6-.3-.3-.8-.3-1.1-.1-1.2.7-2.5 1.1-3.9 1.1-3 0-5.5-1.7-6.5-4.1.5 0 1 .1 1.5.1 4.4 0 8.2-2.8 9.5-6.6C21 12.5 22 14.2 22 16c0 1.1-.3 2.1-1 3-.1.2-.2.4-.2.6.1.3.1 1.1.3 2z"/></symbol><symbol id="icon-checkbox" viewBox="0 0 24 24" fill="currentColor"><g><path d="M20.5 1h-17C2.1 1 1 2.1 1 3.5v17C1 21.9 2.1 23 3.5 23h17c1.4 0 2.5-1.1 2.5-2.5v-17C23 2.1 21.9 1 20.5 1zm.5 19.5c0 .3-.2.5-.5.5h-17c-.3 0-.5-.2-.5-.5v-17c0-.3.2-.5.5-.5h17c.3 0 .5.2.5.5v17zM16.3 8.3L11 13.6l-2.3-2.3c-.4-.4-1-.4-1.4 0s-.4 1 0 1.4l3 3c.2.2.5.3.7.3s.5-.1.7-.3l6-6c.4-.4.4-1 0-1.4s-1-.4-1.4 0z"/></g></symbol><symbol id="icon-clock" viewBox="0 0 12.908 12.908" fill="currentColor"><path d="M6.913 5.954v-2c0-.6-.4-1-1-1s-1 .4-1 1v3c0 .6.4 1 1 1h3c.6 0 1-.4 1-1s-.4-1-1-1h-2zM6.455 12.908C2.895 12.908 0 10.012 0 6.454S2.896 0 6.455 0s6.453 2.895 6.453 6.454-2.895 6.454-6.453 6.454zm0-10.708C4.11 2.2 2.2 4.108 2.2 6.454s1.91 4.255 4.255 4.255S10.71 8.8 10.71 6.453 8.8 2.2 6.454 2.2z"/></symbol><symbol id="icon-close" viewBox="0 0 24 24" fill="currentColor"><g><path d="M12 0C5.4 0 0 5.4 0 12s5.4 12 12 12 12-5.4 12-12S18.6 0 12 0zm0 22C6.5 22 2 17.5 2 12S6.5 2 12 2s10 4.5 10 10-4.5 10-10 10zM15.7 8.3c-.4-.4-1-.4-1.4 0L12 10.6 9.7 8.3c-.4-.4-1-.4-1.4 0s-.4 1 0 1.4l2.3 2.3-2.3 2.3c-.4.4-.4 1 0 1.4.2.2.4.3.7.3s.5-.1.7-.3l2.3-2.3 2.3 2.3c.2.2.5.3.7.3s.5-.1.7-.3c.4-.4.4-1 0-1.4L13.4 12l2.3-2.3c.4-.4.4-1 0-1.4z"/></g></symbol><symbol id="icon-computer" viewBox="-294.1 383.9 26.1 26.1" fill="currentColor"><g><path d="M-270.1 401c0-.2.1-.4.1-.5v-12c0-1.4-1.1-2.5-2.5-2.5h-17c-1.4 0-2.5 1.1-2.5 2.5v12c0 .2 0 .4.1.5-1.2.3-2.1 1.3-2.1 2.5v2c0 1.4 1.1 2.5 2.5 2.5h21c1.4 0 2.5-1.1 2.5-2.5v-2c0-1.2-.9-2.2-2.1-2.5zm-19.9-12.5c0-.3.2-.5.5-.5h17c.3 0 .5.2.5.5v12c0 .3-.2.5-.5.5h-17c-.3 0-.5-.2-.5-.5v-12zm20 17c0 .3-.2.5-.5.5h-21c-.3 0-.5-.2-.5-.5v-2c0-.3.2-.5.5-.5h7.5v1c0 .6.4 1 1 1h4c.6 0 1-.4 1-1v-1h7.5c.3 0 .5.2.5.5v2zM-288 400h14c.6 0 1-.4 1-1v-9c0-.6-.4-1-1-1h-14c-.6 0-1 .4-1 1v9c0 .6.4 1 1 1zm1-9h12v7h-12v-7z"/></g></symbol><symbol id="icon-copy" viewBox="0 0 24 24" fill="currentColor"><g><path d="M21.5 0h-13C7.1 0 6 1.1 6 2.5V6H2.5C1.1 6 0 7.1 0 8.5v13C0 22.9 1.1 24 2.5 24h13c1.4 0 2.5-1.1 2.5-2.5V18h3.5c1.4 0 2.5-1.1 2.5-2.5v-13C24 1.1 22.9 0 21.5 0zM16 21.5c0 .3-.2.5-.5.5h-13c-.3 0-.5-.2-.5-.5v-13c0-.3.2-.5.5-.5h13c.3 0 .5.2.5.5v13zm6-6c0 .3-.2.5-.5.5H18V8.5C18 7.1 16.9 6 15.5 6H8V2.5c0-.3.2-.5.5-.5h13c.3 0 .5.2.5.5v13zM12 14h-2v-2c0-.6-.4-1-1-1s-1 .4-1 1v2H6c-.6 0-1 .4-1 1s.4 1 1 1h2v2c0 .6.4 1 1 1s1-.4 1-1v-2h2c.6 0 1-.4 1-1s-.4-1-1-1z"/></g></symbol><symbol id="icon-envelope-open" viewBox="0 0 24 24" fill="currentColor"><path d="M22.8 6.5l-9.5-6c-.8-.5-1.9-.5-2.7 0l-9.5 6C.4 7 0 7.8 0 8.6v12.9C0 22.9 1.1 24 2.5 24h19c1.4 0 2.5-1.1 2.5-2.5V8.6c0-.8-.4-1.6-1.2-2.1zM11.7 2.2c.1-.1.2-.1.3-.1s.2 0 .3.1l9.4 6c-.1 0-.2.1-.3.2L14.6 15H9.4L2.7 8.3c-.1-.1-.2-.1-.3-.2l9.3-5.9zM21.5 22h-19c-.3 0-.5-.2-.5-.5v-11l6.3 6.3c.2.1.4.2.7.2h6c.3 0 .5-.1.7-.3l6.3-6.3v11c0 .4-.2.6-.5.6z"/></symbol><symbol id="icon-envelope" viewBox="0 0 24 24" fill="currentColor"><path d="M21.5 3h-19C1.1 3 0 4.1 0 5.5v14C0 20.9 1.1 22 2.5 22h19c1.4 0 2.5-1.1 2.5-2.5v-14C24 4.1 22.9 3 21.5 3zm0 2h.1L12 14.6 2.4 5h19.1zm0 15h-19c-.3 0-.5-.2-.5-.5v-12l9.3 9.3c.2.2.5.3.7.3s.5-.1.7-.3L22 7.5v12c0 .3-.2.5-.5.5z"/></symbol><symbol id="icon-flower" viewBox="0 0 24 24" fill="currentColor"><g><path d="M12 5c-1.7 0-3 1.3-3 3s1.3 3 3 3 3-1.3 3-3-1.3-3-3-3zm0 4c-.6 0-1-.4-1-1s.4-1 1-1 1 .4 1 1-.4 1-1 1zM18 5.5c.2-.5.3-.9.3-1.4 0-.7-.2-1.3-.7-1.8-.4-.4-1.1-.7-1.7-.7-.5 0-.9.1-1.4.4-.2-.5-.5-.9-.8-1.3C13.2.3 12.6 0 12 0c-1.1 0-2 .8-2.5 2-1.1-.5-2.4-.4-3.2.3-.4.4-.7 1-.7 1.7 0 .5.1 1 .3 1.5C4.8 6 4 6.9 4 8s.8 2 2 2.5c-.2.5-.3.9-.3 1.4 0 .7.2 1.3.7 1.8.4.4 1.1.7 1.7.7.5 0 .9-.1 1.4-.4.2.5.5.9.8 1.3.5.5 1.1.7 1.7.7 1.1 0 2-.8 2.5-2 1.1.5 2.5.4 3.2-.3.4-.4.7-1.1.7-1.7 0-.5-.1-.9-.4-1.4 1.2-.4 2-1.4 2-2.5 0-1.2-.8-2.1-2-2.6zM16.3 9c-.4 0-.7.1-.9.4-.2.3-.2.6.1.9.6.9.8 1.2.8 1.6 0 .2-.1.3-.1.3s-.1.1-.3.1c-.5 0-1-.3-1.4-.8-.3-.3-.8-.4-1.2-.2-.4.2-.6.6-.6 1 0 1.1-.5 1.6-.8 1.6 0 0-.1 0-.3-.2-.3-.3-.5-.9-.5-1.5 0-.4-.2-.7-.5-.9-.1-.1-.3-.1-.5-.1s-.4.1-.6.2c-.9.6-1.2.8-1.6.8-.2 0-.3-.1-.3-.1s-.1-.1-.1-.3c0-.5.3-1 .8-1.4.3-.3.4-.8.2-1.2s-.6-.6-1-.6c-.9.1-1.5-.5-1.5-.7 0-.2.6-.9 1.7-.9.4 0 .8-.1 1-.5.2-.4.1-.7-.2-1-.6-.5-.8-1.1-.8-1.4 0-.2 0-.3.1-.3.1-.1 1-.1 1.8.7.3.3.8.4 1.2.2.4-.2.6-.6.6-1-.2-1.1.4-1.7.6-1.7 0 0 .1 0 .3.2.3.3.5.9.5 1.5 0 .4.2.7.5.9.3.2.7.2 1-.1.9-.6 1.2-.8 1.6-.8.2 0 .3.1.3.1s.1.1.1.3c0 .5-.3 1-.8 1.4-.3.3-.4.8-.2 1.2.2.4.6.6 1 .6 1.1 0 1.6.6 1.6.8.1.2-.5.9-1.6.9zM17.9 15.9c-1.7 0-3.8 0-5.4 1.6-.2.2-.4.5-.6.7-.2-.2-.4-.5-.6-.7-1.6-1.6-3.7-1.6-5.4-1.6-.6 0-1 .4-1 1 0 1.7.2 3.5 1.5 5.3 1.1 1.5 2.6 1.7 4 1.7h2.8c1.4 0 2.9-.2 4-1.7 1.3-1.8 1.5-3.6 1.5-5.3.2-.5-.2-1-.8-1zm-7.3 6c-1.1 0-1.9-.1-2.4-.9-.7-.9-1-1.9-1.1-3 1.2 0 2.2.2 2.9 1 .7.7.9 1.7 1 3-.1-.1-.3-.1-.4-.1zm5.3-.9c-.6.8-1.3.9-2.4.9h-.4c0-1.3.2-2.2 1-3 .7-.7 1.7-.9 2.9-1-.2 1.2-.4 2.2-1.1 3.1z"/></g></symbol><symbol id="icon-food" viewBox="0 0 24 24" fill="currentColor"><g><path d="M22 8c0-3.9-2-7.2-4.7-7.9-.9-.2-1.8-.1-2.7.2l-.1.1c-.1 0-.1.1-.2.1 0 0-.1.1-.1.2s-.1.1-.1.2v20.5c0 1.4 1.1 2.5 2.6 2.5 1.4 0 2.4-1.1 2.4-2.5V15c1.7-1.3 2.9-4 2.9-7zm-5.2-5.9C18.6 2.5 20 5 20 8s-1.4 5.5-3.2 5.9c-.2.1-.5.1-.8.1V2c.3 0 .5 0 .8.1zM16.5 22c-.3 0-.5-.2-.5-.5V16h.3c.2 0 .5 0 .7-.1v5.5c0 .3-.1.6-.5.6zM9 0c-.6 0-1 .4-1 1v7c0 .6-.4 1-1 1V1c0-.6-.4-1-1-1S5 .4 5 1v8c-.6 0-1-.4-1-1V1c0-.6-.4-1-1-1S2 .4 2 1v7c0 .9.4 1.7 1 2.2V21c0 1.7 1.4 3 3.1 3C7.7 24 9 22.7 9 21V10.2c.6-.5 1-1.3 1-2.2V1c0-.6-.4-1-1-1zM7 21c0 .5-.3 1-1 1-.6 0-1-.5-1-1V11h2v10z"/></g></symbol><symbol id="icon-football" viewBox="0 0 24 24" fill="currentColor"><g><path d="M22.8 1.8c-.1-.2-.3-.4-.5-.5-2-.8-4-1.2-6.1-1.2C11.8 0 7.8 1.7 4.7 4.7c-4.6 4.6-6 11.5-3.5 17.5.1.2.3.4.5.5 2 .8 4 1.2 6.1 1.2 4.3 0 8.3-1.7 11.4-4.7 4.7-4.5 6.1-11.4 3.6-17.4zm-1.7 1.1c.7 1.8 1 3.8.9 5.7L15.4 2h.7c1.7 0 3.4.3 5 .9zM7.9 22c-1.7 0-3.4-.3-5-.9-.7-1.8-1-3.8-.9-5.7L8.6 22h-.7zm10-4.1c-1.9 1.9-4.3 3.2-6.8 3.8L2.4 13c.6-2.5 1.9-4.9 3.8-6.8 1.8-2 4.2-3.3 6.8-3.8l8.7 8.7c-.6 2.5-1.9 4.8-3.8 6.8zM17.7 10.3L16.4 9l.3-.3c.4-.4.4-1 0-1.4s-1-.4-1.4 0l-.3.3-1.3-1.3c-.4-.4-1-.4-1.4 0s-.4 1 0 1.4L13.6 9 12 10.6l-1.3-1.3c-.4-.4-1-.4-1.4 0s-.4 1 0 1.4l1.3 1.3L9 13.6l-1.3-1.3c-.4-.4-1-.4-1.4 0s-.4 1 0 1.4L7.6 15l-.3.3c-.4.4-.4 1 0 1.4.2.2.4.3.7.3s.5-.1.7-.3l.3-.3 1.3 1.3c.2.2.5.3.7.3s.5-.1.7-.3c.4-.4.4-1 0-1.4L10.4 15l1.6-1.6 1.3 1.3c.2.2.5.3.7.3s.5-.1.7-.3c.4-.4.4-1 0-1.4L13.4 12l1.6-1.6 1.3 1.3c.2.2.5.3.7.3s.5-.1.7-.3c.4-.4.4-1 0-1.4z"/></g></symbol><symbol id="icon-gear" viewBox="0 0 24 24" fill="currentColor"><g><path d="M22.2 14.2l-1.2-1c0-.4.1-.8.1-1.2s0-.8-.1-1.2l1.3-1c.9-.8 1.2-2.1.6-3.2L22 5.4c-.6-1-1.9-1.5-3-1.1l-1.5.6c-.6-.5-1.3-.9-2-1.2l-.3-1.6C15 .9 14 0 12.7 0h-1.5C10 0 9 .9 8.8 2.1l-.3 1.6c-.7.3-1.3.7-2 1.2L5 4.3c-1.1-.4-2.4 0-3 1.1l-.8 1.2C.6 7.7.9 9 1.8 9.8l1.3 1c-.1.4-.1.8-.1 1.2s0 .8.1 1.2l-1.3 1c-.9.8-1.2 2.1-.6 3.2l.8 1.2c.6 1 1.9 1.5 3 1.1l1.5-.6c.6.5 1.3.9 2 1.2l.3 1.6C9 23.1 10 24 11.3 24h1.5c1.2 0 2.3-.9 2.5-2.1l.3-1.6c.8-.3 1.5-.7 2.1-1.2l1.4.6c1.1.4 2.5 0 3.1-1.1l.7-1.2c.5-1.1.2-2.4-.7-3.2zM21 16.4l-.7 1.2c-.1.2-.4.3-.6.2l-2-.8c-.4-.1-.8-.1-1 .2-.7.6-1.5 1.1-2.5 1.5-.3.1-.6.4-.7.8l-.4 2.2c0 .2-.2.4-.5.4h-1.5c-.2 0-.5-.2-.5-.4l-.4-2.2c-.1-.4-.3-.7-.7-.8-.9-.3-1.7-.7-2.4-1.4.1-.2-.1-.3-.4-.3-.1 0-.2 0-.4.1l-2.1.8c-.2.1-.5 0-.6-.2L3 16.4c-.1-.2-.1-.5.1-.6l1.7-1.4c.3-.2.4-.6.3-1-.1-.5-.1-.9-.1-1.4s0-.9.1-1.4c.1-.4-.1-.7-.3-1L3.1 8.3c-.2-.2-.3-.5-.1-.7l.7-1.3c.1-.2.4-.3.6-.2l2.1.8c.3.1.7.1 1-.2.7-.6 1.5-1.1 2.4-1.4.4-.1.6-.4.7-.8l.4-2.2c-.1-.1.1-.3.4-.3h1.5c.2 0 .5.2.5.4l.4 2.2c.1.4.3.7.7.8.9.3 1.7.7 2.4 1.4.3.2.7.3 1 .2l2.1-.8c.2-.1.5 0 .6.2l.5 1.2c.1.2.1.5-.1.6l-1.7 1.4c-.3.2-.4.6-.3 1 .1.5.1.9.1 1.4s0 .9-.1 1.4c-.1.4.1.7.3 1l1.7 1.4c.2.1.2.4.1.6zM12 8c-2.2 0-4 1.8-4 4s1.8 4 4 4 4-1.8 4-4-1.8-4-4-4zm0 6c-1.1 0-2-.9-2-2s.9-2 2-2 2 .9 2 2-.9 2-2 2z"/></g></symbol><symbol id="icon-gift" viewBox="0 0 24 24" fill="currentColor"><path d="M21.5 6h-3.1c.4-.6.6-1.3.6-2 0-2.2-1.8-4-4-4-1.2 0-2.3.5-3 1.4C11.3.5 10.2 0 9 0 6.8 0 5 1.8 5 4c0 .7.2 1.4.6 2H2.5C1.1 6 0 7.1 0 8.5v1c0 1.2.9 2.2 2 2.4v9.6C2 22.9 3.1 24 4.5 24h15c1.4 0 2.5-1.1 2.5-2.5v-9.6c1.1-.2 2-1.2 2-2.4v-1C24 7.1 22.9 6 21.5 6zM15 2c1.1 0 2 .9 2 2s-.9 2-2 2h-2V4c0-1.1.9-2 2-2zM7 4c0-1.1.9-2 2-2s2 .9 2 2v2H9c-1.1 0-2-.9-2-2zM4 21.5V12h7v10H4.5c-.3 0-.5-.2-.5-.5zm16 0c0 .3-.2.5-.5.5H13V12h7v9.5zm2-12c0 .3-.2.5-.5.5h-19c-.3 0-.5-.2-.5-.5v-1c0-.3.2-.5.5-.5h19c.3 0 .5.2.5.5v1z"/></symbol><symbol id="icon-grid" viewBox="0 0 24 24" fill="currentColor"><g><path d="M5 1H3c-1.1 0-2 .9-2 2v2c0 1.1.9 2 2 2h2c1.1 0 2-.9 2-2V3c0-1.1-.9-2-2-2zM3 5V3h2v2H3zM13 1h-2c-1.1 0-2 .9-2 2v2c0 1.1.9 2 2 2h2c1.1 0 2-.9 2-2V3c0-1.1-.9-2-2-2zm-2 4V3h2v2h-2zM21 1h-2c-1.1 0-2 .9-2 2v2c0 1.1.9 2 2 2h2c1.1 0 2-.9 2-2V3c0-1.1-.9-2-2-2zm-2 4V3h2v2h-2zM5 9H3c-1.1 0-2 .9-2 2v2c0 1.1.9 2 2 2h2c1.1 0 2-.9 2-2v-2c0-1.1-.9-2-2-2zm-2 4v-2h2v2H3zM13 9h-2c-1.1 0-2 .9-2 2v2c0 1.1.9 2 2 2h2c1.1 0 2-.9 2-2v-2c0-1.1-.9-2-2-2zm-2 4v-2h2v2h-2zM21 9h-2c-1.1 0-2 .9-2 2v2c0 1.1.9 2 2 2h2c1.1 0 2-.9 2-2v-2c0-1.1-.9-2-2-2zm-2 4v-2h2v2h-2zM5 17H3c-1.1 0-2 .9-2 2v2c0 1.1.9 2 2 2h2c1.1 0 2-.9 2-2v-2c0-1.1-.9-2-2-2zm-2 4v-2h2v2H3zM13 17h-2c-1.1 0-2 .9-2 2v2c0 1.1.9 2 2 2h2c1.1 0 2-.9 2-2v-2c0-1.1-.9-2-2-2zm-2 4v-2h2v2h-2zM21 17h-2c-1.1 0-2 .9-2 2v2c0 1.1.9 2 2 2h2c1.1 0 2-.9 2-2v-2c0-1.1-.9-2-2-2zm-2 4v-2h2v2h-2z"/></g></symbol><symbol id="icon-guitar" viewBox="0 0 24 24" fill="currentColor"><g><circle cx="11" cy="13" r="2"/><path d="M23.8 1.9L22.1.2c-.3-.3-.7-.3-1 0l-2.5 2.5c-.3.3-.3.7 0 1l.2.2-4.2 4.2c-2.6-2-5.2-1-6.8.7-.7.5-1.7.9-2.8 1.2-1.2.4-2.5.8-3.5 1.8-2.5 2.5-2 5.6 1.5 9.1v.1c2 2 3.9 3.1 5.7 3.1 1.2 0 2.4-.5 3.4-1.6.9-.9 1.4-2.2 1.8-3.5.4-1.1.7-2.1 1.3-2.7 1-1 1.6-2.2 1.7-3.4.1-.9-.1-2.1-1.1-3.4L20 5.3l.2.2c.3.3.7.3 1 0L23.7 3c.4-.4.4-.8.1-1.1zm-9.9 13c-.9.9-1.4 2.2-1.8 3.5-.4 1.1-.7 2.1-1.3 2.7-.8.8-2.4 2.4-6.3-1.5v-.1C.6 15.6 2.2 14 3 13.2c.6-.6 1.6-.9 2.7-1.3 1.2-.4 2.5-.8 3.5-1.8 1.1-1.1 2.8-2 4.8 0 .8.8 1.2 1.7 1.2 2.6-.2.9-.8 1.7-1.3 2.2zM6.7 14.3c-.4-.4-1-.4-1.4 0s-.4 1 0 1.4l3 3c.2.2.4.3.7.3s.5-.1.7-.3c.4-.4.4-1 0-1.4l-3-3z"/></g></symbol><symbol id="icon-health" viewBox="0 0 24 24" fill="currentColor"><path d="M22 3.1C20.7 1.7 19 1 17.2 1c-1.8 0-3.6.8-5 2.2l-.2.3-.3-.4C10.4 1.8 8.7 1 6.9 1 5 1 3.3 1.7 2 3.1c-2.6 2.8-2.6 7.3 0 10l7.9 8.6c.4.5 1.1 1.3 2.1 1.3s1.7-.8 2.1-1.3l7.9-8.6c2.7-2.7 2.7-7.2 0-10zm-9.3 17.3c-.1.1-.5.5-.7.6-.2-.1-.5-.4-.6-.6L4.6 13H8c.4 0 .7-.2.9-.6l1-2.1 2.2 5c.1.3.5.6.8.6h.1c.3 0 .6-.2.8-.4l1.7-2.6h3.9l-6.7 7.5zm8.5-9.4H15c-.3 0-.6.2-.8.4l-1 1.5-2.3-5.3c-.1-.4-.5-.6-.9-.6-.3 0-.7.2-.9.6L7.4 11H2.9c-1.3-2-1.2-4.7.5-6.5 1-1 2.2-1.5 3.5-1.5 1.3 0 2.5.5 3.4 1.4l1 1.3c.2.2.5.4.8.4.3 0 .6-.1.8-.4l.9-1.2c1-1 2.2-1.5 3.5-1.5 1.3 0 2.5.5 3.4 1.5 1.6 1.8 1.8 4.5.5 6.5z"/></symbol><symbol id="icon-heart-fill" viewBox="-293 385 24 24" fill="currentColor"><path d="M-281 408c-1 0-1.7-.8-2.1-1.3l-7.9-8.6c-2.6-2.8-2.6-7.3 0-10 1.3-1.4 3-2.1 4.9-2.1s3.6.7 4.9 2.1l.2.4.2-.2c1.4-1.5 3.1-2.2 5-2.2 1.8-.1 3.5.6 4.8 2 2.6 2.8 2.6 7.3 0 10l-7.9 8.6c-.4.5-1.1 1.3-2.1 1.3z"/></symbol><symbol id="icon-heart" viewBox="0 0 24 24" fill="currentColor"><path d="M12 23c-1 0-1.7-.8-2.1-1.3L2 13.1c-2.6-2.8-2.6-7.3 0-10C3.3 1.7 5 1 6.9 1s3.6.7 4.9 2.1l.2.4.2-.2c1.4-1.5 3.1-2.2 5-2.2 1.8-.1 3.5.6 4.8 2 2.6 2.8 2.6 7.3 0 10l-7.9 8.6c-.4.5-1.1 1.3-2.1 1.3zM6.9 3c-1.3 0-2.5.5-3.5 1.5-1.9 2-1.9 5.3 0 7.3l7.9 8.6c.1.2.5.5.6.6.2-.1.5-.5.7-.6l7.9-8.6c1.9-2 1.9-5.3 0-7.3-.9-1-2.1-1.5-3.4-1.5-1.3 0-2.5.5-3.5 1.5l-.9 1.2c-.2.2-.5.4-.8.4-.3 0-.6-.1-.8-.4l-1-1.3C9.4 3.5 8.1 3 6.9 3z"/></symbol><symbol id="icon-home-garden" viewBox="0 0 24 24" fill="currentColor"><path d="M23.6 10.2L12.7.3c-.4-.3-1-.3-1.3 0l-11 9.9c-.4.4-.4 1-.1 1.4.4.4 1 .4 1.4.1l.3-.3V23c0 .6.4 1 1 1h18c.6 0 1-.4 1-1V11.4l.3.2c.2.2.4.3.7.3.3 0 .5-.1.7-.3.4-.4.3-1-.1-1.4zM20 10v12h-7v-4.2c.3.1.6.2 1 .2.8 0 1.6-.3 2.1-.9 2.3-2.4 1.9-5.1 1.9-5.2-.1-.5-.5-.8-1-.8-1.8 0-3.2.3-4.2.9-.2-.4-.4-.8-.7-1.1C9.6 8.5 6.8 9 6.8 9c-.4.1-.8.5-.8 1 0 2.4.5 4 1.7 5.1.6.6 1.4.9 2.2.9.4 0 .8-.1 1.1-.2V22H4V10c0-.1 0-.2-.1-.3L12 2.4l8.1 7.3c-.1.1-.1.2-.1.3zm-6.7 4.1c.4-.4 1.1-.9 2.7-1-.1.7-.4 1.7-1.3 2.7-.4.4-1 .4-1.3 0-.5-.5-.5-1.3-.1-1.7zM11 13c0 .2-.1.5-.3.7-.4.4-1.2.4-1.6 0-.4-.4-.9-1.1-1-2.7.7.1 1.7.4 2.7 1.3.1.2.2.5.2.7z"/></symbol><symbol id="icon-home" viewBox="0 0 24 24" fill="currentColor"><path d="M23.4 11.2L12.7.3c-.4-.4-1-.4-1.4 0L.6 11.2c-.8.8-.6 1.6-.5 1.9.1.2.5.9 1.6.9H3v9c0 .6.6 1 1.2 1H19.9c.5 0 1.2-.4 1.2-1v-9h1.3c1.1 0 1.5-.7 1.6-.9 0-.3.2-1.1-.6-1.9zM10 22v-4h4v4h-4zm6 0v-5c0-.6-.5-1-1.1-1H9.1c-.6 0-1.1.4-1.1 1v5H5v-7.8h.1l7-7 7 7V22H16zm3.8-10c-.1 0-.2 0-.3.1l-6.8-7c-.4-.4-1-.4-1.4 0l-6.8 7c-.1-.1-.2-.1-.3-.1H2.6L12 2.4l9.4 9.6h-1.6z"/></symbol><symbol id="icon-info" viewBox="0 0 24 24" fill="currentColor"><g><path d="M12 0C5.4 0 0 5.4 0 12s5.4 12 12 12 12-5.4 12-12S18.6 0 12 0zm0 21.9c-5.5 0-10-4.5-10-10C2 6.5 6.5 2 12 2s10 4.5 10 10c-.1 5.4-4.6 9.9-10 9.9zM12.5 6h-1c-.3 0-.5.2-.5.5v1c0 .3.2.5.5.5h1c.3 0 .5-.2.5-.5v-1c0-.3-.2-.5-.5-.5zM12.5 10h-1c-.3 0-.5.2-.5.5v7c0 .3.2.5.5.5h1c.3 0 .5-.2.5-.5v-7c0-.3-.2-.5-.5-.5z"/></g></symbol><symbol id="icon-jewel" viewBox="0 0 24 24" fill="currentColor"><path d="M23.2 6L19 2c-1.3-1-1.9-1-2.2-1H7c-.6 0-1.3.3-2.1 1.1L.7 5.9c-.9.8-1 2.3-.3 3.2l10 13.2c.4.5 1 .8 1.6.8.6 0 1.2-.3 1.5-.8l10-13.2c.7-.9.5-2.3-.3-3.1zM6.4 9l3.2 9.1L2.8 9h3.6zm6.5-6l2.2 4H8.7l2.2-4h2zm2.4 6L12 18.5 8.6 9h6.7zm2.1 0h3.7l-6.9 9.1L17.4 9zm.2-5.5L21.3 7h-3.8l-2.2-4h1.6s.2.1.7.5zm-11.4.1c.5-.5.8-.6.8-.6h1.6L6.4 7h-4l3.8-3.4z"/></symbol><symbol id="icon-lipstick" viewBox="-293.9 384 25.8 24.8" fill="currentColor"><path d="M-268 388c0-2.2-2.4-4-5.5-4-2.8 0-5 1.4-5.4 3.3l-4.1 4.3-.3-.3c-.4-.4-1-.4-1.4 0l-8.4 8.4c-1 1-1 2.6 0 3.5l4.9 4.9c.5.5 1.1.7 1.8.7s1.3-.3 1.8-.7l8.4-8.4c.2-.2.3-.4.3-.7s-.1-.5-.3-.7l-.5-.5 6.7-6.7v-.1c1.2-.6 2-1.7 2-3zm-5.5-2c2.1 0 3.5 1.1 3.5 2s-1.4 2-3.5 2-3.5-1.1-3.5-2 1.4-2 3.5-2zm-12.6 20.8c-.1.1-.3.1-.4.1s-.2 0-.4-.1l-4.9-4.9c-.2-.2-.2-.5 0-.7l2-2 5.7 5.7-2 1.9zm3.4-3.5l-5.7-5.7 4.3-4.3 5.7 5.9-4.3 4.1zm1.1-10.3l3.1-3.3c.9 1.3 2.7 2.2 4.8 2.3l-4.5 4.4-3.4-3.4z"/></symbol><symbol id="icon-list" viewBox="0 0 24 24" fill="currentColor"><g><path d="M9 5h14c.6 0 1-.4 1-1s-.4-1-1-1H9c-.6 0-1 .4-1 1s.4 1 1 1zM23 11H9c-.6 0-1 .4-1 1s.4 1 1 1h14c.6 0 1-.4 1-1s-.4-1-1-1zM23 19H9c-.6 0-1 .4-1 1s.4 1 1 1h14c.6 0 1-.4 1-1s-.4-1-1-1zM4 1H2C.9 1 0 1.9 0 3v2c0 1.1.9 2 2 2h2c1.1 0 2-.9 2-2V3c0-1.1-.9-2-2-2zM2 5V3h2v2H2zM4 9H2c-1.1 0-2 .9-2 2v2c0 1.1.9 2 2 2h2c1.1 0 2-.9 2-2v-2c0-1.1-.9-2-2-2zm-2 4v-2h2v2H2zM4 17H2c-1.1 0-2 .9-2 2v2c0 1.1.9 2 2 2h2c1.1 0 2-.9 2-2v-2c0-1.1-.9-2-2-2zm-2 4v-2h2v2H2z"/></g></symbol><symbol id="icon-location-pin" viewBox="0 0 24 24" fill="currentColor"><g><path d="M12 0C7 0 3 4 3 9c0 7.4 8 14.5 8.3 14.8.2.2.4.2.7.2s.5-.1.7-.2C13 23.5 21 16.4 21 9c0-5-4-9-9-9zm0 21.6C10.1 19.8 5 14.3 5 9c0-3.9 3.1-7 7-7s7 3.1 7 7c0 5.3-5.1 10.8-7 12.6zM12 5C9.8 5 8 6.8 8 9s1.8 4 4 4 4-1.8 4-4-1.8-4-4-4zm0 6c-1.1 0-2-.9-2-2s.9-2 2-2 2 .9 2 2-.9 2-2 2z"/></g></symbol><symbol id="icon-location" viewBox="0 0 24 24" fill="currentColor"><g><path d="M17.8 14.7c1.2-2 2.2-4.4 2.2-6.8C20 3.5 16.4 0 12 0S4 3.5 4 7.9c0 2.4 1 4.8 2.2 6.8C2.9 15.6 1 17.1 1 19c0 3.2 5.7 5 11 5s11-1.8 11-5c0-1.9-1.9-3.4-5.2-4.3zM12 2c3.3 0 6 2.7 6 5.9 0 2.4-1.3 4.9-2.7 6.9-1.2 1.7-2.5 3.1-3.3 3.8-.8-.7-2.1-2.1-3.3-3.8-1.4-2-2.7-4.5-2.7-6.9C6 4.7 8.7 2 12 2zm0 20c-5.5 0-9-1.8-9-3 0-.8 1.6-1.9 4.4-2.5 1.8 2.5 3.8 4.1 3.9 4.3.2.2.4.2.7.2s.5-.1.7-.2c.2-.1 2.1-1.8 3.9-4.3 2.9.6 4.4 1.7 4.4 2.5 0 1.2-3.5 3-9 3zM12 11c1.7 0 3-1.3 3-3s-1.3-3-3-3-3 1.3-3 3 1.3 3 3 3zm0-4c.6 0 1 .4 1 1s-.4 1-1 1-1-.4-1-1 .4-1 1-1z"/></g></symbol><symbol id="icon-lock" viewBox="0 0 24 24" fill="currentColor"><g><path d="M20.5 10H20V8c0-4.4-3.6-8-8-8S4 3.6 4 8v2h-.5C2.1 10 1 11.1 1 12.5v9C1 22.9 2.1 24 3.5 24h17c1.4 0 2.5-1.1 2.5-2.5v-9c0-1.4-1.1-2.5-2.5-2.5zM6 8c0-3.3 2.7-6 6-6s6 2.7 6 6v2H6V8zm15 13.5c0 .3-.2.5-.5.5h-17c-.3 0-.5-.2-.5-.5v-9c0-.3.2-.5.5-.5h17c.3 0 .5.2.5.5v9zM12 14c-1.1 0-2 .9-2 2 0 .7.4 1.4 1 1.7V19c0 .6.4 1 1 1s1-.4 1-1v-1.3c.6-.3 1-1 1-1.7 0-1.1-.9-2-2-2z"/></g></symbol><symbol id="icon-mall-outdoor" viewBox="0 0 24 24" fill="currentColor"><g><path d="M5 8h2v3H5zM9 8h2v3H9zM5 13h2v3H5zM9 13h2v3H9zM16 1c0-.6-.4-1-1-1H1C.4 0 0 .4 0 1v4c0 .6.4 1 1 1v17c0 .6.4 1 1 1h12c.6 0 1-.4 1-1V6c.6 0 1-.4 1-1V1zM2 2h12v2H2V2zm5 20v-2h2v2H7zm6 0h-2v-3c0-.6-.4-1-1-1H6c-.6 0-1 .4-1 1v3H3V6h10v16zM24 14c0-2.2-1.8-4-4-4s-4 1.8-4 4c0 1.9 1.3 3.4 3 3.9V23c0 .6.4 1 1 1s1-.4 1-1v-5.1c1.7-.5 3-2 3-3.9zm-4 2c-1.1 0-2-.9-2-2s.9-2 2-2 2 .9 2 2-.9 2-2 2z"/></g></symbol><symbol id="icon-mall-strip" viewBox="-295.1 382.9 28 28" fill="currentColor"><g><path d="M-288 396h2v3h-2zM-284 396h2v3h-2zM-280 396h2v3h-2zM-276 396h2v3h-2zM-267.2 392.3l-2.9-4.9c-.2-.2-.5-.4-.9-.4h-20c-.4 0-.7.2-.9.5l-3 5c-.2.3-.2.7 0 1 .2.3.5.5.9.5h1v12c0 .6.4 1 1 1h22c.6 0 1-.4 1-1v-12h1c.6 0 1-.4 1-1 0-.3-.1-.5-.2-.7zm-23.2-3.3h18.9l1.8 3h-22.5l1.8-3zm4.4 16v-2h2v2h-2zm8 0v-2h2v2h-2zm7 0h-3v-3c0-.6-.4-1-1-1h-4c-.6 0-1 .4-1 1v3h-2v-3c0-.6-.4-1-1-1h-4c-.6 0-1 .4-1 1v3h-3v-11h20v11z"/></g></symbol><symbol id="icon-mall" viewBox="0 0 24 24" fill="currentColor"><g><path d="M9 7h2v3H9zM5 7h2v3H5zM18 11h2v3h-2zM18 16h2v3h-2zM5 12h2v3H5zM9 12h2v3H9zM23 4h-7V1c0-.6-.4-1-1-1H1C.4 0 0 .4 0 1v22c0 .6.4 1 1 1h22c.6 0 1-.4 1-1V5c0-.6-.4-1-1-1zm-1 2v1h-6V6h6zM2 2h12v1H2V2zm0 3h12v17h-3v-4c0-.6-.4-1-1-1H6c-.6 0-1 .4-1 1v4H2V5zm5 17v-3h2v3H7zm9 0V9h6v13h-6z"/></g></symbol><symbol id="icon-map" viewBox="0 0 24 24" fill="currentColor"><path d="M22.5 3.7l-6-3.6h-.1s-.1 0-.1-.1h-.6L8 3.9 2.4.5 2.3.4c-.2 0-.5-.1-.7-.1C.7.3 0 1 0 2v16c0 .9.6 1.9 1.5 2.3l6 3.6c.1 0 .1 0 .2.1h.4c.1 0 .3 0 .4-.1l7.5-3.8 5.6 3.3.1.1c.2.1.5.1.7.1.9 0 1.6-.7 1.6-1.7V6c0-.9-.6-1.9-1.5-2.3zM2.3 18.4c-.1 0-.3-.3-.3-.4V2.6l5 3v15.7l-4.6-2.7c0-.1-.1-.1-.1-.2zM9 5.6l6-3v15.8l-6 3V5.6zm13 15.8l-5-3V2.8l4.6 2.7.1.1c.1 0 .3.3.3.4v15.4z"/></symbol><symbol id="icon-menu" viewBox="27 242 359.1 309" fill="currentColor"><path d="M27 242h359.1v56H27zM27 368.5h359.1v56H27zM27 495h359.1v56H27z"/></symbol><symbol id="icon-money" viewBox="0 0 24 24" fill="currentColor"><g><path d="M22.3 9.2c-.4-.4-.8-.8-.9-1.1-.1-.3-.1-.9-.1-1.5 0-1.1 0-2.3-.8-3.1-.7-.7-1.7-.8-2.6-.8H17c-.4 0-.8 0-1.1-.1-.3-.1-.7-.5-1.1-.9C14.1.9 13.2 0 12 0S9.9.9 9.2 1.7c-.4.4-.8.8-1.1.9-.3.1-.7.1-1 .1h-.9c-.9 0-1.9.1-2.6.8-.8.8-.8 2-.8 3.1 0 .6 0 1.2-.1 1.5-.2.3-.6.7-1 1.1C.9 9.9 0 10.8 0 12s.9 2.1 1.7 2.8c.4.4.8.8.9 1.1.1.3.1.9.1 1.5 0 1.1 0 2.3.8 3.1.7.7 1.7.8 2.6.8H7c.4 0 .8 0 1.1.1.3.1.7.5 1.1.9.7.8 1.6 1.7 2.8 1.7s2.1-.9 2.8-1.7c.4-.4.8-.8 1.1-.9.3-.1.7-.1 1.1-.1h.9c.9 0 1.9-.1 2.6-.8.8-.8.8-2 .8-3.1 0-.6 0-1.2.1-1.5.1-.3.5-.7.9-1.1.7-.7 1.7-1.6 1.7-2.8s-.9-2.1-1.7-2.8zM21 13.4c-.5.5-1.1 1.1-1.4 1.8-.3.7-.3 1.5-.3 2.3 0 .6 0 1.4-.2 1.6-.2.2-.9.2-1.2.2H17c-.6 0-1.2 0-1.8.3-.7.3-1.2.9-1.8 1.4-.5.5-1 1-1.4 1s-.9-.6-1.4-1c-.5-.6-1.1-1.1-1.8-1.4-.6-.2-1.2-.3-1.8-.3h-.9c-.3 0-1 0-1.2-.2-.2-.2-.2-1-.2-1.6 0-.8 0-1.6-.3-2.3-.3-.7-.9-1.2-1.4-1.8-.5-.5-1-1-1-1.4s.6-.9 1-1.4c.5-.5 1.1-1.1 1.4-1.8.3-.7.3-1.5.3-2.3 0-.6 0-1.4.2-1.6.2-.2.9-.2 1.2-.2H7c.6 0 1.2 0 1.8-.3.7-.3 1.2-.9 1.8-1.4.5-.5 1-1 1.4-1s.9.6 1.4 1c.5.6 1.1 1.1 1.8 1.4.6.2 1.2.3 1.8.3h.9c.3 0 1 0 1.2.2.2.2.2 1 .2 1.6 0 .8 0 1.6.3 2.3.3.7.9 1.2 1.4 1.8.5.5 1 1 1 1.4s-.6.9-1 1.4zM12 11c-2 0-2-.7-2-1 0-.4.8-1 2-1 .7 0 1.4.2 1.8.6.4.4 1 .4 1.4 0 .4-.4.4-1 0-1.4-.5-.5-1.3-.9-2.1-1V6c0-.6-.4-1-1-1s-1 .4-1 1v1.1C9.3 7.4 8 8.6 8 10c0 1.1.5 3 4 3 .9 0 2 .2 2 1 0 .4-.8 1-2 1-.7 0-1.4-.2-1.8-.6-.4-.4-1-.4-1.4 0-.4.4-.4 1 0 1.4.5.5 1.3.9 2.1 1V18c0 .6.4 1 1 1s1-.4 1-1v-1.1c1.7-.3 3-1.5 3-2.9.1-1.5-1-3-3.9-3z"/></g></symbol><symbol id="icon-pacifier" viewBox="0 0 24 24" fill="currentColor"><path d="M22.2 1.8C20.8.4 19-.2 17 .1c-2.3.4-4.3 2.2-4.9 4.5-.1.6-.1 1.3-.1 1.9L10.5 8 5.3 2.9c-.7-.7-1.9-.7-2.6 0-.5.5-.7 1.3-.5 1.9l2.6 7.7C2.1 13 0 15.4 0 18.2 0 21.4 2.6 24 5.8 24c2.8 0 5.2-2.1 5.7-4.8l7.7 2.6c.2.1.4.1.7.1.5 0 1-.2 1.3-.6.3-.3.5-.8.5-1.3s-.2-1-.5-1.3L16 13.5l1.5-1.5c.7.1 1.3 0 2-.2 2.3-.6 4.2-2.6 4.5-4.9.2-1.9-.4-3.8-1.8-5.1zM5.8 22C3.7 22 2 20.3 2 18.2c0-1.1.5-2.2 1.4-2.9 0 .4.2.7.4 1.1 0 .1.1.1.1.2l3.6 3.6s.1.1.2.1c.3.2.7.3 1.1.4-.8.8-1.9 1.3-3 1.3zm5.6-4.9c-.1 0-.2-.1-.3-.1-.3 0-.6.1-.8.3l-1.2 1.3c-.1.1-.3 0-.4 0l-3.4-3.4c-.1-.1-.1-.3 0-.4l1.3-1.2c.4-.2.5-.6.3-1L4.3 4.7l14.9 14.9-7.8-2.5zM22 6.6c-.2 1.5-1.5 2.8-3 3.2-.5.2-.9.2-1.4.2-.6-.1-1.1.2-1.6.6l-1.6 1.5-2.6-2.6 1.5-1.6c.4-.4.6-1 .6-1.6 0-.4 0-.8.1-1.3.4-1.6 1.7-2.8 3.2-3 1.3-.2 2.6.2 3.5 1.1 1 1 1.4 2.2 1.3 3.5z"/></symbol><symbol id="icon-page" viewBox="0 0 24 24" fill="currentColor"><g><path d="M16 7H8c-.6 0-1 .4-1 1s.4 1 1 1h8c.6 0 1-.4 1-1s-.4-1-1-1zM16 11H8c-.6 0-1 .4-1 1s.4 1 1 1h8c.6 0 1-.4 1-1s-.4-1-1-1zM16 15H8c-.6 0-1 .4-1 1s.4 1 1 1h8c.6 0 1-.4 1-1s-.4-1-1-1zM20.5 1h-17C2.1 1 1 2.1 1 3.5v17C1 21.9 2.1 23 3.5 23h17c1.4 0 2.5-1.1 2.5-2.5v-17C23 2.1 21.9 1 20.5 1zm.5 19.5c0 .3-.2.5-.5.5h-17c-.3 0-.5-.2-.5-.5v-17c0-.3.2-.5.5-.5h17c.3 0 .5.2.5.5v17z"/></g></symbol><symbol id="icon-paperclip" viewBox="0 0 24 24" fill="currentColor"><path d="M23.7 9.7c-.4-.4-1-.4-1.4 0L11.9 20.3C10.8 21.4 9.3 22 7.8 22c-1.5 0-3-.6-4.1-1.7-2.3-2.3-2.3-6.1 0-8.4l8.4-8.6C12.9 2.4 13.9 2 15 2c1.1 0 2.1.4 2.9 1.2 1.6 1.6 1.6 4.3 0 6l-8.4 8.6c-.5.5-1.1.7-1.7.7-.6 0-1.2-.3-1.7-.7-.9-1-.9-2.5 0-3.5l8.4-8.6v-.1c.3-.2.7-.2.9.1.3.3.3.8 0 1.1l-7.8 8c-.4.4-.4 1 0 1.4.2.2.4.3.7.3.3 0 .5-.1.7-.3l7.8-8c1-1.1 1-2.8 0-3.9-1-1-2.8-1.1-3.8 0 0 0-.1.1-.1.2L4.6 13c-1.7 1.7-1.7 4.6 0 6.3.8.9 1.9 1.3 3.1 1.3 1.2 0 2.3-.5 3.1-1.3l8.4-8.6c2.4-2.4 2.4-6.4 0-8.8C18.2.6 16.6 0 15 0s-3.2.6-4.3 1.8l-8.4 8.6c-3 3.1-3 8.1 0 11.2C3.8 23.2 5.7 24 7.8 24s4-.8 5.5-2.3l10.4-10.6c.4-.4.4-1 0-1.4z"/></symbol><symbol id="icon-paste" viewBox="0 0 24 24" fill="currentColor"><g><path d="M20.4 0h-5.6c-.4-1.2-1.5-2-2.8-2s-2.4.8-2.8 2H3.6C2.2 0 1 1.1 1 2.5v19C1 22.9 2.2 24 3.6 24h16.8c1.4 0 2.6-1.1 2.6-2.5v-19C23 1.1 21.8 0 20.4 0zM12 0c.6 0 1 .4 1 1 0 2.4 1.9 3 3 3.4.8.3 1 .4 1 .6H7c0-.2.2-.3 1-.6 1.1-.4 3-1 3-3.4 0-.6.4-1 1-1zm9 21.5c0 .3-.3.5-.6.5H3.6c-.3 0-.6-.2-.6-.5v-19c0-.3.3-.5.6-.5h4.9c-.2.2-.6.4-1.1.5C6.4 2.9 5 3.4 5 5v1c0 .6.4 1 1 1h12c.6 0 1-.4 1-1V5c0-1.6-1.4-2.1-2.4-2.5-.5-.2-.9-.4-1.2-.5h4.9c.4 0 .7.2.7.5v19zM16 13h-3v-3c0-.6-.4-1-1-1s-1 .4-1 1v3H8c-.6 0-1 .4-1 1s.4 1 1 1h3v3c0 .6.4 1 1 1s1-.4 1-1v-3h3c.6 0 1-.4 1-1s-.4-1-1-1z"/></g></symbol><symbol id="icon-paw" viewBox="0 0 24 24" fill="currentColor"><g><path d="M14.7 8c.3.1.5.1.8.1 1.6 0 3.1-1.3 3.5-3.2.5-2.2-.5-4.3-2.3-4.8-.3-.1-.6-.1-.8-.1-1.6 0-3.1 1.3-3.5 3.2-.6 2.2.4 4.3 2.3 4.8zm-.4-4.4c.2-.9.9-1.6 1.6-1.6h.2c.8.2 1.2 1.3.9 2.4-.3 1-1.1 1.8-1.8 1.6-.7-.2-1.2-1.3-.9-2.4zM5.6 12.7c1.5-1.1 1.8-3.3.6-5.1-.7-1.1-1.9-1.8-3.1-1.8-.6 0-1.2.2-1.7.5C-.1 7.4-.4 9.6.8 11.4c.7 1.2 1.9 1.9 3.1 1.9.6-.1 1.2-.2 1.7-.6zm-3.2-2.4c-.5-.9-.4-1.9.2-2.4.2-.1.3-.2.5-.2.5 0 1.1.4 1.5.9.5.9.5 1.9-.1 2.4-.2.1-.3.2-.5.2-.6 0-1.2-.3-1.6-.9zM8.6 8.1c.3 0 .5 0 .8-.1 1.8-.5 2.8-2.6 2.3-4.8C11.2 1.3 9.8 0 8.2 0c-.3 0-.5 0-.8.1-1.8.5-2.8 2.6-2.3 4.8.5 1.9 1.9 3.2 3.5 3.2zM8 2h.2c.7 0 1.3.7 1.6 1.6.2 1.1-.2 2.2-.9 2.4-.8.2-1.6-.5-1.8-1.6-.3-1.1.1-2.2.9-2.4zM22.6 6.3c-.5-.3-1.1-.5-1.7-.5-1.2 0-2.4.7-3.1 1.9-1.1 1.8-.9 4 .6 5.1.5.3 1.1.5 1.7.5 1.2 0 2.4-.7 3.1-1.9 1.2-1.8.9-4-.6-5.1zm-1 4c-.5.8-1.4 1.2-2 .8-.6-.4-.7-1.5-.1-2.4.4-.6.9-.9 1.5-.9.2 0 .4.1.5.2.5.4.6 1.4.1 2.3zM17.8 13.5c-.2-.3-.4-.6-.6-1C16.3 11.1 15 9 12.1 9H12c-2.9 0-4.2 2.1-5 3.4-.2.4-.4.7-.6.9-.3.4-.7.9-1.1 1.3-1.7 1.8-3.7 4.1-2 7.2C4 23.2 5.2 24 6.7 24c.9 0 1.8-.2 2.7-.5.9-.2 1.8-.5 2.6-.5h.1c.8 0 1.7.2 2.6.4.9.2 1.8.4 2.7.4 1.6 0 2.7-.7 3.5-2.2 1.7-3-.3-5.2-1.9-6.9-.5-.3-.9-.8-1.2-1.2zm1.3 7.2c-.5 1-1.1 1.1-1.8 1.1-.6 0-1.4-.2-2.2-.4-1-.2-2-.5-3.1-.5s-2.2.3-3.1.5c-.8.4-1.6.6-2.2.6-.7 0-1.2-.2-1.7-1.1C4 19.2 5 18 6.8 16c.4-.5.8-.9 1.2-1.4.3-.3.5-.7.8-1.1.7-1.3 1.4-2.5 3.2-2.5h.1c1.7 0 2.4 1 3.3 2.5.3.4.5.8.8 1.2.4.5.9 1 1.3 1.5 1.7 1.8 2.6 2.9 1.6 4.5z"/></g></symbol><symbol id="icon-phone" viewBox="0 0 24 24" fill="currentColor"><g><path d="M16.5 0h-10C5.1 0 4 1.1 4 2.5v19C4 22.9 5.1 24 6.5 24h10c1.4 0 2.5-1.1 2.5-2.5v-19C19 1.1 17.9 0 16.5 0zM6 6h11v9H6V6zm0-3.5c0-.3.2-.5.5-.5h10c.3 0 .5.2.5.5V4H6V2.5zM16.5 22h-10c-.3 0-.5-.2-.5-.5V17h11v4.5c0 .3-.2.5-.5.5z"/><circle cx="11.5" cy="19.5" r="1.5"/></g></symbol><symbol id="icon-plug" viewBox="0 0 24 24" fill="currentColor"><path d="M22 6h-2V4h2c.6 0 1-.4 1-1s-.4-1-1-1h-2V1c0-.6-.4-1-1-1h-3c-2.4 0-4.4 1.7-4.9 4H7.5C4.4 4 2 6.4 2 9.5c0 3 2.4 5.5 5.5 5.5h7.1c1.9 0 3.5 1.5 3.5 3.5 0 1.9-1.5 3.5-3.5 3.5H3c-.6 0-1 .4-1 1s.4 1 1 1h11.5c3 0 5.5-2.4 5.5-5.5 0-3-2.4-5.5-5.5-5.5h-7C5.5 13 4 11.5 4 9.5S5.5 6 7.5 6h3.6c.4 2.3 2.5 4 4.9 4h3c.6 0 1-.4 1-1V8h2c.6 0 1-.4 1-1s-.4-1-1-1zm-4 2h-2c-1.6 0-3-1.3-3-3 0-1.6 1.3-3 3-3h2v6z"/></symbol><symbol id="icon-plus" viewBox="0 0 24 24" fill="currentColor"><g><path d="M16 11h-3V8c0-.6-.4-1-1-1s-1 .4-1 1v3H8c-.6 0-1 .4-1 1s.4 1 1 1h3v3c0 .6.4 1 1 1s1-.4 1-1v-3h3c.6 0 1-.4 1-1s-.4-1-1-1zM12 0C5.4 0 0 5.4 0 12s5.4 12 12 12 12-5.4 12-12S18.6 0 12 0zm0 22C6.5 22 2 17.5 2 12S6.5 2 12 2s10 4.5 10 10-4.5 10-10 10z"/></g></symbol><symbol id="icon-print" viewBox="0 0 24 24" fill="currentColor"><g><circle cx="4.5" cy="10.5" r="1.5"/><path d="M21.5 6H19V1c0-.6-.4-1-1-1H6c-.6 0-1 .4-1 1v5H2.5C1.1 6 0 7.1 0 8.5v9C0 18.9 1.1 20 2.5 20H5v3c0 .6.4 1 1 1h12c.6 0 1-.4 1-1v-3h2.5c1.4 0 2.5-1.1 2.5-2.5v-9C24 7.1 22.9 6 21.5 6zM7 2h10v4H7V2zm10 20H7v-7h10v7zm5-4.5c0 .3-.2.5-.5.5H19v-3h1c.6 0 1-.4 1-1s-.4-1-1-1H4c-.6 0-1 .4-1 1s.4 1 1 1h1v3H2.5c-.3 0-.5-.2-.5-.5v-9c0-.3.2-.5.5-.5h19c.3 0 .5.2.5.5v9z"/></g></symbol><symbol id="icon-promoted" viewBox="0 0 16 16" fill="currentColor"><path d="M16 3c0-1.7-1.3-3-3-3H3C1.3 0 0 1.3 0 3v10c0 1.7 1.3 3 3 3h10c1.7 0 3-1.3 3-3V3zm-3 6.5c0 .3-.2.6-.5.6s-.5-.3-.5-.6V4.9l-8.5 8.4c-.2.2-.7.2-.9 0-.2-.2-.2-.6 0-.9L11.1 4H6.5c-.3 0-.6-.2-.6-.5s.3-.5.6-.5h6c.2 0 .3 0 .4.1s.1.2.1.4v6z"/></symbol><symbol id="icon-search" viewBox="-293 385 24 24" fill="currentColor"><path d="M-293 393.6c0 4.7 3.8 8.5 8.5 8.5 1.2 0 2.2-.2 3.2-.6l6.6 6.6c.7.6 1.5 1 2.4 1 .9 0 1.8-.4 2.4-1 .6-.7 1-1.5 1-2.4 0-.9-.4-1.8-1-2.4l-6.6-6.6c.4-1 .6-2.1.6-3.2 0-4.7-3.8-8.5-8.5-8.5s-8.6 3.9-8.6 8.6zm13.6 6.8c.7-.6 1.3-1.2 1.9-1.8l6.2 6.2c.3.2.4.5.4.9 0 .3-.1.6-.4.9-.5.5-1.4.5-1.9 0l-6.2-6.2s0-.1 0 0zm-11.5-6.9c0-3.6 2.9-6.5 6.5-6.5s6.5 2.9 6.5 6.5c0 .9-.2 1.7-.5 2.5l-.2.4c-.2.3-.3.6-.6 1-.4.5-.9 1-1.4 1.4-.3.2-.6.3-.9.5l-.4.2c-.8.3-1.6.5-2.5.5-3.6 0-6.5-2.9-6.5-6.5z"/></symbol><symbol id="icon-share" viewBox="0 0 24 24" fill="currentColor"><g><path d="M18.5 8H16c-.6 0-1 .4-1 1s.4 1 1 1h2.5c.3 0 .5.2.5.5v11c0 .3-.2.5-.5.5h-13c-.3 0-.5-.2-.5-.5v-11c0-.3.2-.5.5-.5H8c.6 0 1-.4 1-1s-.4-1-1-1H5.5C4.1 8 3 9.1 3 10.5v11C3 22.9 4.1 24 5.5 24h13c1.4 0 2.5-1.1 2.5-2.5v-11C21 9.1 19.9 8 18.5 8zM8.7 5.7L11 3.4V14c0 .6.4 1 1 1s1-.4 1-1V3.4l2.3 2.3c.4.4 1 .4 1.4 0 .4-.4.4-1 0-1.4l-4-4c-.2-.2-.4-.3-.7-.3-.3 0-.5.1-.7.3l-4 4c-.4.4-.4 1 0 1.4.4.4 1 .4 1.4 0z"/></g></symbol><symbol id="icon-shirt" viewBox="-295 383 28 28" fill="currentColor"><path d="M-275 409h-12c-.6 0-1-.4-1-1v-12l-2.4 1.8c-.4.3-1.1.2-1.4-.2l-3-4c-.3-.4-.3-1 .1-1.4l8-7c.2-.1.5-.2.7-.2h1.6c.2 0 .3.1.4.1l.3.3s0 .1.1.1c.5.9 1.5 1.5 2.6 1.5s2.1-.6 2.6-1.5c.2-.3.5-.5.9-.5h1.5c.2 0 .5.1.7.2l8 7c.4.3.5.9.1 1.4l-3 4c-.3.4-1 .5-1.4.2l-2.4-1.8v12c0 .6-.4 1-1 1zm-11-2h10v-13c0-.4.2-.7.6-.9.3-.2.7-.1 1 .1l3.2 2.4 1.8-2.5-7-6.1h-.6c-.9 1.2-2.4 2-4 2s-3.1-.8-4-2h-.6l-7 6.1 1.8 2.5 3.2-2.4c.3-.2.7-.3 1-.1.4.2.6.5.6.9v13z"/></symbol><symbol id="icon-shoe" viewBox="-293.9 384.1 25.9 25.9" fill="currentColor"><path d="M-273 394h-4.2c-.3 0-.5-.1-.7-.3l-.1-.1-5.4-4.4c-.2-.1-.4-.2-.7-.2-.3 0-.5.2-.7.4-.8 1-2 1.6-3.2 1.6s-2.4-.6-3.2-1.6c-.2-.3-.5-.4-.8-.4-1.1 0-2 .9-2 2v11.5c0 1.4 1.1 2.5 2.5 2.5h21c1.4 0 2.5-1.1 2.5-2.5V399c0-2.8-2.2-5-5-5zm-15-1c1.5 0 3-.6 4.1-1.6l.6.5-1.4 1.4c-.4.4-.4 1 0 1.4.2.2.4.3.7.3s.5-.1.7-.3l1.6-1.6.6.5-1.6 1.6c-.4.4-.4 1 0 1.4.2.2.5.3.7.3s.5-.1.7-.3l1.8-1.8.3.2c.6.5 1.3.8 2.1.8h4.1c1.7 0 3 1.3 3 3v1h-22v-8.3c1.1.9 2.5 1.5 4 1.5zm18 9.5c0 .3-.2.5-.5.5h-21c-.3 0-.5-.2-.5-.5v-.5h22v.5z"/></symbol><symbol id="icon-star-fill" viewBox="-293 385 24 24" fill="currentColor"><path d="M-274.2 409c-.2 0-.3 0-.5-.1l-6.3-3.5-6.3 3.5c-.3.2-.7.2-1.1-.1-.3-.2-.5-.6-.4-1l1.2-7.5-5.1-5.3c-.3-.2-.4-.6-.2-.9.2-.3.4-.6.8-.7l7.1-1.1 3.2-6.8c.1-.3.4-.5.8-.5s.7.2.9.6l3.2 6.8 7.1 1.1c.4.1.7.3.8.7.1.4 0 .7-.2 1l-5.1 5.3 1.2 7.5c.1.4-.1.8-.4 1-.3-.1-.5 0-.7 0z"/></symbol><symbol id="icon-star" viewBox="0 0 24 24" fill="currentColor"><path d="M18.8 24c-.2 0-.3 0-.5-.1L12 20.4l-6.3 3.5c-.3.2-.7.2-1.1-.1-.3-.2-.5-.6-.4-1l1.2-7.5L.3 10c-.3-.2-.4-.6-.2-.9s.4-.6.8-.7L8 7.3 11.2.5c.1-.3.4-.5.8-.5s.7.2.9.6l3.2 6.8 7.1 1.1c.4.1.7.3.8.7s0 .7-.2 1l-5.1 5.3 1.2 7.5c.1.4-.1.8-.4 1-.3-.1-.5 0-.7 0zM12 18.2c.2 0 .3 0 .5.1l5 2.8-1-5.9c-.1-.3 0-.6.3-.9l4.1-4.2-5.7-.9c-.3-.1-.6-.3-.8-.6L12 3.4 9.5 8.7c-.1.3-.4.5-.7.5l-5.7.9 4.1 4.2c.2.2.3.5.3.9l-1 5.9 5-2.8c.2 0 .3-.1.5-.1z"/></symbol><symbol id="icon-store" viewBox="0 0 24 24" fill="currentColor"><g><path d="M24 8.9v-.8c0-.2 0-.7-.6-1.8l-2.9-5.2c-.4-.6-1.2-1.1-2-1.1H5.6c-.8 0-1.6.5-2 1.1l-3 5.2C0 7.4 0 8 0 8.1v.7c0 1.3.8 2.4 2 2.9V22H1c-.6 0-1 .4-1 1s.4 1 1 1h22c.6 0 1-.4 1-1s-.4-1-1-1h-1V11.7c1.2-.5 2-1.6 2-2.8zM2 8.2c0-.1.1-.4.4-.8l3-5.2s.1-.1.2-.1h12.8c.1 0 .2.1.3.1l2.9 5.2c.3.4.4.7.4.7v.7c0 .6-.6 1.1-1.3 1.1s-1.3-.5-1.3-1.1c0-.6-.4-1-1-1s-1 .4-1 1-.5 1.1-1.1 1.1-1.1-.5-1.1-1.1c0-.6-.4-1-1-1s-1 .4-1 1-.5 1.1-1.1 1.1c-.6 0-1.2-.5-1.2-1.1 0-.6-.4-1-1-1s-1 .4-1 1-.5 1.1-1.2 1.1c-.7.1-1.2-.4-1.2-1s-.4-1-1-1-1 .4-1 1S3.9 10 3.3 10C2.6 10 2 9.5 2 8.9v-.7zM8 22v-5h2v5H8zm4 0v-6c0-.6-.4-1-1-1H7c-.6 0-1 .4-1 1v6H4V11.9c.6-.1 1.1-.4 1.5-.8.6.6 1.3.9 2.2.9.8 0 1.6-.3 2.2-.8.6.5 1.3.8 2.2.8.8 0 1.6-.3 2.1-.8.6.5 1.3.8 2.1.8s1.6-.3 2.2-.9c.4.4 1 .7 1.5.8V22h-8zM17 15h-2c-.6 0-1 .4-1 1v2c0 .6.4 1 1 1h2c.6 0 1-.4 1-1v-2c0-.6-.4-1-1-1z"/></g></symbol><symbol id="icon-tag-add" viewBox="0 0 24 24" fill="currentColor"><g><path d="M24 10.7V2.5C24 1.1 22.9 0 21.5 0h-8.1c-.7 0-1.3.3-1.8.7L.7 11.6c-1 1-1 2.6 0 3.6l8.1 8.1c.5.4 1.2.7 1.9.7s1.3-.3 1.8-.7l10.8-10.8c.4-.5.7-1.2.7-1.8zm-2 0c0 .1-.1.3-.2.4L11 21.8c-.2.2-.6.2-.8 0l-8.1-8.1c-.2-.2-.2-.6 0-.8L13 2.2c.1-.1.2-.2.3-.2h8.1c.4 0 .6.2.6.5v8.2z"/><circle cx="17" cy="7" r="2"/><path d="M24 20h-2v-2c0-.6-.4-1-1-1s-1 .4-1 1v2h-2c-.6 0-1 .4-1 1s.4 1 1 1h2v2c0 .6.4 1 1 1s1-.4 1-1v-2h2c.6 0 1-.4 1-1s-.4-1-1-1z"/></g></symbol><symbol id="icon-tag" viewBox="0 0 24 24" fill="currentColor"><g><path d="M21.5 0h-8.1c-.7 0-1.3.3-1.8.7L.7 11.6c-1 1-1 2.6 0 3.6l8.1 8.1c.5.4 1.2.7 1.9.7s1.3-.3 1.8-.7l10.8-10.8c.5-.5.7-1.1.7-1.8V2.5C24 1.1 22.9 0 21.5 0zm.5 10.7c0 .1-.1.3-.2.4L11 21.8c-.2.2-.6.2-.8 0l-8.1-8.1c-.2-.2-.2-.6 0-.8L13 2.2c.1-.1.2-.2.3-.2h8.1c.4 0 .6.2.6.5v8.2z"/><circle cx="17" cy="7" r="2"/></g></symbol><symbol id="icon-thumbs-down" viewBox="0 0 24 24" fill="currentColor"><path d="M20.6 0h-9.1C8.9 0 7.3.7 6.3 1.4 6 1.1 5.6 1 5.2 1H1.8C.8 1 0 1.8 0 2.8v10.5c0 1 .8 1.8 1.8 1.8h3.5c.3 0 .6-.1.9-.3.4.3 1 .5 1.7.7 1.3.3 2.1 2.8 2.2 6.7 0 1.1.9 1.9 2 1.9h1.6c1.7 0 3.4-1.3 3.4-3.5V16h3.6c2 0 3.4-2 3.4-3.8V3.4C24 1.5 22.5 0 20.6 0zM2 13V3h3v10H2zm20-.8c0 .9-.7 1.8-1.4 1.8h-3.9c-1.1 0-1.7.6-1.7 1.7v4.8c0 1.1-.9 1.5-1.4 1.5H12c-.1-3.6-.8-7.9-3.8-8.5-.9-.2-1.1-.5-1.2-.6V3.4C7.4 2.9 8.7 2 11.4 2h9.1c.9 0 1.5.6 1.5 1.4v8.8z"/></symbol><symbol id="icon-thumbs-up" viewBox="0 0 24 24" fill="currentColor"><path d="M20.6 8H17V3.5C17 1.3 15.3 0 13.6 0H12c-1.1 0-2 .8-2 1.9-.1 3.8-.9 6.4-2.2 6.7-.7.1-1.3.4-1.7.7-.2-.2-.5-.3-.9-.3H1.8C.8 9 0 9.8 0 10.8v10.5c0 1 .8 1.8 1.8 1.8h3.5c.4 0 .8-.1 1.1-.4 1 .7 2.6 1.4 5.1 1.4h9.1c1.9 0 3.4-1.5 3.4-3.4v-8.8C24 10 22.6 8 20.6 8zM2 11h3v10H2V11zm20 9.6c0 .8-.6 1.4-1.4 1.4h-9.1c-2.7 0-4-1-4.4-1.4v-9.5c.1-.1.3-.4 1.2-.6 3-.6 3.7-5 3.8-8.5h1.6c.4 0 1.3.4 1.3 1.5v4.8c0 1.1.6 1.7 1.7 1.7h3.9c.7 0 1.4.9 1.4 1.8v8.8z"/></symbol><symbol id="icon-toy" viewBox="0 0 24 24" fill="currentColor"><g><path d="M19 3h-2v-.5C17 1.1 15.9 0 14.5 0h-5C8.1 0 7 1.1 7 2.5V3H5C2.2 3 0 5.2 0 8v8c0 2.8 2.2 5 5 5h1v2c0 .6.4 1 1 1h10c.6 0 1-.4 1-1v-2h1c2.8 0 5-2.2 5-5V8c0-2.8-2.2-5-5-5zM9 2.5c0-.3.2-.5.5-.5h5c.3 0 .5.2.5.5V3H9v-.5zM16 22H8v-1h8v1zm6-6c0 1.7-1.3 3-3 3H5c-1.7 0-3-1.3-3-3V8c0-1.7 1.3-3 3-3h14c1.7 0 3 1.3 3 3v8z"/><circle cx="8.5" cy="9.5" r="1.5"/><circle cx="15.5" cy="9.5" r="1.5"/><path d="M16 13.1c-.5-.3-1.1-.1-1.4.4-.5.9-1.5 1.5-2.6 1.5s-2.1-.6-2.6-1.5c-.3-.5-.9-.6-1.4-.4-.5.3-.6.9-.4 1.4C8.6 16 10.2 17 12 17s3.4-1 4.3-2.5c.3-.5.1-1.1-.3-1.4z"/></g></symbol><symbol id="icon-truck" viewBox="0 0 16 16" fill="currentColor"><path d="M16 9l-2-4h-3V3c0-.55-.45-1-1-1H1c-.55 0-1 .45-1 1v8l1 1h1.268c-.17.294-.268.636-.268 1 0 1.105.895 2 2 2s2-.895 2-2c0-.364-.098-.706-.268-1h5.536c-.17.294-.268.636-.268 1 0 1.105.895 2 2 2s2-.895 2-2c0-.364-.098-.706-.268-1H16V9zm-5 0V6h2.073l1.5 3H11z"/></symbol><symbol id="icon-user" viewBox="0 0 24 24" fill="currentColor"><path d="M16.1 13H16v-1.4c2-1.5 2.9-4.1 2.3-6.5-.5-2.4-2.5-4.4-5-4.9-.4-.2-.8-.2-1.3-.2-3.6 0-6.5 2.9-6.5 6.5 0 2 .9 3.9 2.5 5.1v1.3c-3.9 0-7 3.1-7 7v1.5C1 22.8 2.1 24 3.5 24h17.2c1.3 0 2.3-1.1 2.3-2.4v-1.7c0-3.8-3.1-6.9-6.9-6.9zm4.9 8.6c0 .2-.1.4-.3.4H3.5c-.3 0-.5-.3-.5-.6v-1.5c0-2.8 2.2-5 5.1-5 1.1 0 1.9-.9 1.9-1.9v-1.4c0-.6-.3-1.2-.8-1.5-1.1-.9-1.7-2.2-1.7-3.6C7.5 4 9.5 2 12 2c.3 0 .7 0 1 .1 1.7.4 3.1 1.7 3.4 3.4.4 1.7-.3 3.5-1.6 4.6-.5.3-.8.9-.8 1.5V13c0 1.1.9 1.9 2 1.9 2.8 0 5 2.2 5 5v1.7z"/></symbol><symbol id="icon-users" viewBox="0 0 24 24" fill="currentColor"><path d="M19.9 8.1C20.6 7.2 21 6.2 21 5c0-2.8-2.2-5-5-5s-5 2.2-5 5c0 1.2.4 2.2 1.1 3.1-.3 0-.6.1-.8.2C10.4 7.5 9.3 7 8 7c-2.8 0-5 2.2-5 5 0 1.2.4 2.2 1.1 3.1C1.8 15.5 0 17.6 0 20v1.7C0 23 1.1 24 2.5 24h11c1.4 0 2.5-1 2.5-2.3V20c0-1.1-.4-2.2-1-3h6.5c1.4 0 2.5-1 2.5-2.3V13c0-2.4-1.8-4.5-4.1-4.9zM16 2c1.7 0 3 1.3 3 3s-1.3 3-3 3-3-1.3-3-3 1.3-3 3-3zM8 9c1.7 0 3 1.3 3 3s-1.3 3-3 3-3-1.3-3-3 1.3-3 3-3zm6 11v1.7c0 .2-.3.3-.5.3h-11c-.2 0-.5-.1-.5-.3V20c0-1.7 1.3-3 3-3h6c1.7 0 3 1.3 3 3zm8-5.3c0 .2-.3.3-.5.3H12c.6-.8 1-1.9 1-3 0-.7-.1-1.4-.4-2H19c1.7 0 3 1.3 3 3v1.7z"/></symbol><symbol id="icon-warning" viewBox="-294.1 383.9 26.2 26.2" fill="currentColor"><g><path d="M-274.4 396l-6.6-10.1c-.4-.6-1.1-.9-1.9-.9-.9 0-1.6.3-2.1 1l-8.6 13c-.5.7-.5 1.8-.1 2.6s1.2 1.3 2.1 1.3h10.6c.3 3.4 3.1 6 6.5 6 3.6 0 6.5-2.9 6.5-6.5 0-3.5-2.9-6.4-6.4-6.4zm-17.5 4.7c-.1-.2-.1-.5 0-.6l8.5-13c.1-.1.3-.2.4-.2.1 0 .2 0 .3.1l6.1 9.4c-2.1.7-3.7 2.5-4.2 4.7h-10.8c-.1-.1-.2-.2-.3-.4zm17.4 6.3c-2.5 0-4.5-2-4.5-4.5s2-4.5 4.5-4.5 4.5 2 4.5 4.5-2 4.5-4.5 4.5zM-274 402v-2c0-.6-.4-1-1-1s-1 .4-1 1v3c0 .6.4 1 1 1h3c.6 0 1-.4 1-1s-.4-1-1-1h-2zM-282.5 391h-1c-.3 0-.5.2-.5.5v4c0 .3.2.5.5.5h1c.3 0 .5-.2.5-.5v-4c0-.3-.2-.5-.5-.5zM-282.5 397h-1c-.3 0-.5.2-.5.5v1c0 .3.2.5.5.5h1c.3 0 .5-.2.5-.5v-1c0-.3-.2-.5-.5-.5z"/></g></symbol><symbol id="icon-watch" viewBox="0 0 24 24" fill="currentColor"><g><path d="M20 11.5c0-2-.8-3.7-2-5.1V2.5C18 1.1 16.9 0 15.5 0h-6C8.1 0 7 1.1 7 2.5v3.9c-1.2 1.3-2 3.1-2 5.1s.8 3.7 2 5.1v4.9C7 22.9 8.1 24 9.5 24h6c1.4 0 2.5-1.1 2.5-2.5v-4.9c1.2-1.4 2-3.1 2-5.1zM9.5 2h6c.3 0 .5.2.5.5v2.4c-1-.6-2.2-.9-3.5-.9s-2.5.3-3.5.9V2.5c0-.3.2-.5.5-.5zm3 4c3 0 5.5 2.5 5.5 5.5S15.5 17 12.5 17 7 14.5 7 11.5 9.5 6 12.5 6zm3 16h-6c-.3 0-.5-.2-.5-.5v-3.4c1 .6 2.2.9 3.5.9s2.5-.3 3.5-.9v3.4c0 .3-.2.5-.5.5zM12 13h3c.6 0 1-.4 1-1s-.4-1-1-1h-2V9c0-.6-.4-1-1-1s-1 .4-1 1v3c0 .6.4 1 1 1z"/></g></symbol></svg>