<?xml version="1.0" encoding="utf-8"?>
<!-- Generator: Adobe Illustrator 18.1.1, SVG Export Plug-In . SVG Version: 6.00 Build 0)  -->
<!DOCTYPE svg PUBLIC "-//W3C//DTD SVG 1.1//EN" "http://www.w3.org/Graphics/SVG/1.1/DTD/svg11.dtd">
<svg version="1.1" id="Layer_1" xmlns="http://www.w3.org/2000/svg" xmlns:xlink="http://www.w3.org/1999/xlink" x="0px" y="0px"
	 width="24px" height="24px" viewBox="0 0 24 24" enable-background="new 0 0 24 24" xml:space="preserve">
<g>
	<path fill="#555555" d="M16,11h-3V8c0-0.6-0.4-1-1-1s-1,0.4-1,1v3H8c-0.6,0-1,0.4-1,1s0.4,1,1,1h3v3c0,0.6,0.4,1,1,1s1-0.4,1-1v-3
		h3c0.6,0,1-0.4,1-1S16.6,11,16,11z"/>
	<path fill="#555555" d="M20.5,1h-17C2.1,1,1,2.1,1,3.5v17C1,21.9,2.1,23,3.5,23h17c1.4,0,2.5-1.1,2.5-2.5v-17C23,2.1,21.9,1,20.5,1
		z M21,20.5c0,0.3-0.2,0.5-0.5,0.5h-17C3.2,21,3,20.8,3,20.5v-17C3,3.2,3.2,3,3.5,3h17C20.8,3,21,3.2,21,3.5V20.5z"/>
</g>
</svg>
