<?xml version="1.0" encoding="utf-8"?>
<!-- Generator: Adobe Illustrator 18.1.1, SVG Export Plug-In . SVG Version: 6.00 Build 0)  -->
<!DOCTYPE svg PUBLIC "-//W3C//DTD SVG 1.1//EN" "http://www.w3.org/Graphics/SVG/1.1/DTD/svg11.dtd">
<svg version="1.1" id="Layer_1" xmlns="http://www.w3.org/2000/svg" xmlns:xlink="http://www.w3.org/1999/xlink" x="0px" y="0px"
	 width="24px" height="24px" viewBox="0 0 24 24" enable-background="new 0 0 24 24" xml:space="preserve">
<g>
	<path fill="#555555" d="M7.1,24c-0.1,0-0.2,0-0.2,0c-0.3-0.1-0.6-0.3-0.7-0.6l-1.4-4.2l-4.2-1.4C0.2,17.6,0,17.3-0.1,17
		c-0.1-0.3,0-0.7,0.3-0.9l2.3-2.3c0.2-0.2,0.4-0.3,0.7-0.3H6l2.6-2.6L0.4,5.5C0.2,5.3,0,5.1,0,4.8S0.1,4.2,0.3,4l2.4-2.4
		c0.8-0.8,1.9-1,2.9-0.5l8.2,4.6l4.8-4.8c1.2-1.2,3.2-1.2,4.4,0c1.2,1.3,1.2,3.2,0,4.5l-4.8,4.8l4.6,8.1c0.5,1.1,0.3,2.2-0.5,3
		l-2.4,2.4c-0.2,0.2-0.5,0.3-0.8,0.3c-0.3,0-0.6-0.2-0.7-0.4L13,15.4l-2.6,2.6v2.8c0,0.3-0.1,0.5-0.3,0.7l-2.3,2.3
		C7.7,23.9,7.4,24,7.1,24z M13.1,12.8C13.2,12.8,13.2,12.8,13.1,12.8c0.4,0,0.7,0.2,0.8,0.4l5.4,8.1l1.5-1.5
		c0.2-0.2,0.2-0.5,0.1-0.7l-4.9-8.7c-0.2-0.4-0.2-0.9,0.2-1.2L21.6,4c0.4-0.4,0.4-1.2,0-1.6c-0.5-0.5-1.2-0.5-1.6,0l-5.3,5.3
		c-0.3,0.3-0.8,0.4-1.2,0.2l-8.8-5c0,0-0.1,0-0.2,0C4.3,2.8,4.2,2.9,4.1,3L2.5,4.5l8.1,5.4c0.2,0.2,0.4,0.4,0.4,0.7
		s-0.1,0.6-0.3,0.8l-3.7,3.7c-0.2,0.2-0.4,0.3-0.7,0.3H3.6l-0.9,0.9l3.1,1.1c0.3,0.1,0.5,0.3,0.6,0.6l1.1,3.1l0.9-0.9v-2.8
		c0-0.3,0.1-0.5,0.3-0.7l3.7-3.7C12.6,12.9,12.9,12.8,13.1,12.8z"/>
</g>
</svg>
