<?xml version="1.0" encoding="utf-8"?>
<!-- Generator: Adobe Illustrator 18.1.1, SVG Export Plug-In . SVG Version: 6.00 Build 0)  -->
<!DOCTYPE svg PUBLIC "-//W3C//DTD SVG 1.1//EN" "http://www.w3.org/Graphics/SVG/1.1/DTD/svg11.dtd">
<svg version="1.1" id="Layer_1" xmlns="http://www.w3.org/2000/svg" xmlns:xlink="http://www.w3.org/1999/xlink" x="0px" y="0px"
	 width="26.2px" height="26.2px" viewBox="-294.1 383.9 26.2 26.2" enable-background="new -294.1 383.9 26.2 26.2"
	 xml:space="preserve">
<g>
	<path fill="#555555" d="M-272,392c-0.4,0-0.7,0.1-1.1,0.2c0-0.2,0-0.3,0-0.5c-0.3-1.9-1.3-7.7-7.9-7.7c-4.4,0-7.1,2.6-7.9,7.7
		c0,0.2,0,0.3,0,0.5c-0.3-0.1-0.7-0.2-1.1-0.2c-1.6,0-3,1.3-3,3v5c0,1.6,1.3,3,3,3l0,0c0.3,0,0.7-0.1,1-0.2v0.2c0,0.7,0.4,1.4,1,1.7
		v2.3c0,1.6,1.3,3,3,3l0,0c1.6,0,3-1.3,3-3v-2h2v2c0,1.6,1.3,3,3,3l0,0c1.6,0,3-1.3,3-3v-2.3c0.6-0.3,1-1,1-1.7v-0.2
		c0.3,0.1,0.6,0.2,1,0.2l0,0c1.6,0,3-1.3,3-3v-5C-269,393.4-270.3,392-272,392z M-281,386c3.5,0,5.2,1.8,5.9,6l0,0h-11.8
		C-286.2,388-284.4,386-281,386z M-290,401L-290,401c-0.6,0-1-0.4-1-1v-5c0-0.5,0.4-1,1-1c0.5,0,1,0.4,1,1v5
		C-289,400.6-289.4,401-290,401z M-284,407c0,0.5-0.4,1-1,1l0,0c-0.5,0-1-0.4-1-1v-2h2V407z M-282,403h-5v-3v-5v-1h0.1l0,0h11.8h0.1
		v1l0,0v5l0,0v3h-5H-282z M-276,407c0,0.5-0.4,1-1,1l0,0c-0.5,0-1-0.4-1-1v-2h2V407z M-271,400c0,0.5-0.4,1-1,1l0,0
		c-0.5,0-1-0.4-1-1v-5c0-0.5,0.4-1,1-1c0.5,0,1,0.4,1,1V400z"/>
	<circle fill="#555555" cx="-283.5" cy="389.5" r="1.5"/>
	<circle fill="#555555" cx="-278.5" cy="389.5" r="1.5"/>
</g>
</svg>
