<?xml version="1.0" encoding="utf-8"?>
<!-- Generator: Adobe Illustrator 18.1.1, SVG Export Plug-In . SVG Version: 6.00 Build 0)  -->
<!DOCTYPE svg PUBLIC "-//W3C//DTD SVG 1.1//EN" "http://www.w3.org/Graphics/SVG/1.1/DTD/svg11.dtd">
<svg version="1.1" id="Layer_1" xmlns="http://www.w3.org/2000/svg" xmlns:xlink="http://www.w3.org/1999/xlink" x="0px" y="0px"
	 width="24px" height="24px" viewBox="0 0 24 24" enable-background="new 0 0 24 24" xml:space="preserve">
<path fill="#555555" d="M21.4,16.3c0,0-2.3-0.9-2.3-3.5c0-2.2,1.8-3.2,1.8-3.2c0.2-0.1,0.4-0.3,0.5-0.6c0.1-0.3,0.1-0.5-0.1-0.8
	c-0.1-0.1-1.5-2.6-5.1-2.7c1.2-1.8,1-3.6,1-3.8L16.9,0l-1.7,0c-0.3,0-2.5,0.1-4.1,2.3C10,3.7,9.9,5.1,10,5.8c-0.5-0.1-1-0.2-1.6-0.2
	C5.3,5.6,2,8.2,2,13.1C2,17.8,5.4,24,8.8,24c0.6,0,1.2-0.2,1.8-0.4c0.6-0.2,1.3-0.5,1.9-0.5c0.5,0,1,0.2,1.5,0.4
	c0.6,0.2,1.3,0.5,2.1,0.5c3.4,0,5.6-5.8,5.8-6.4C22.1,17,21.9,16.5,21.4,16.3z M12.7,3.4C13.7,2,15.2,2,15.2,2s0.2,1.3-0.8,2.6
	c-0.8,1-1.7,1.2-2.1,1.2c-0.1,0-0.2,0-0.2,0S11.8,4.7,12.7,3.4z M16.1,22c-0.5,0-0.9-0.2-1.4-0.4c-0.6-0.2-1.4-0.5-2.2-0.5
	c-0.9,0-1.8,0.3-2.6,0.6C9.5,21.8,9,22,8.8,22C7.1,22,4,17.3,4,13.1c0-3.7,2.2-5.6,4.3-5.6c0.8,0,1.5,0.3,2.2,0.5
	c0.6,0.2,1.1,0.4,1.7,0.4c0.5,0,1-0.2,1.5-0.4c0.7-0.3,1.5-0.6,2.4-0.6c1.4,0,2.3,0.5,2.8,1c-0.9,0.8-1.9,2.1-1.9,4.3
	c0,2.7,1.6,4.2,2.7,4.9C18.9,19.6,17.4,22,16.1,22z"/>
</svg>
