<?xml version="1.0" encoding="utf-8"?>
<!-- Generator: Adobe Illustrator 18.1.1, SVG Export Plug-In . SVG Version: 6.00 Build 0)  -->
<!DOCTYPE svg PUBLIC "-//W3C//DTD SVG 1.1//EN" "http://www.w3.org/Graphics/SVG/1.1/DTD/svg11.dtd">
<svg version="1.1" id="Layer_1" xmlns="http://www.w3.org/2000/svg" xmlns:xlink="http://www.w3.org/1999/xlink" x="0px" y="0px"
	 width="24px" height="25px" viewBox="-293 385 24 25" enable-background="new -293 385 24 25" xml:space="preserve">
<path fill="#555555" d="M-269,394.1c0-3.3-2.7-6.1-6-6.1c-0.1,0-0.2,0-0.2,0c-1.3-1.8-3.4-3-5.8-3s-4.5,1.2-5.8,3c0,0-0.1,0-0.2,0
	c-3.3,0-6,2.8-6,6.1c0,3,2.3,7.4,5.5,7.8c0.2,0.4,0.5,1,0.5,1.4c0,0.8-0.3,1.1-0.8,1.7c-0.6,0.6-1.3,1.5-1.3,3c0,0.6,0.4,1,1,1
	s1-0.4,1-1c0-0.8,0.3-1.1,0.8-1.7c0.6-0.6,1.3-1.5,1.3-3c0-0.6-0.2-1.2-0.4-1.7c0.7-0.3,1.3-0.8,1.9-1.4c0.6,0.3,1.2,0.6,1.9,0.7
	c0.2,0.5,0.6,1.3,0.6,2.1c0,1.2-0.4,1.7-0.9,2.4c-0.5,0.8-1.2,1.8-1.2,3.6c0,0.6,0.4,1,1,1s1-0.4,1-1c0-1.2,0.4-1.7,0.9-2.4
	c0.5-0.8,1.2-1.8,1.2-3.6c0-0.8-0.2-1.6-0.5-2.3c0.3-0.1,0.7-0.3,1-0.5c0.9,0.9,1.9,1.5,3,1.7c0.2,0.4,0.5,0.9,0.5,1.4
	c0,0.8-0.3,1.1-0.8,1.7c-0.6,0.6-1.3,1.5-1.3,3c0,0.6,0.4,1,1,1s1-0.4,1-1c0-0.8,0.3-1.1,0.8-1.7c0.6-0.6,1.3-1.5,1.3-3
	c0-0.6-0.2-1.2-0.4-1.7C-270.8,400.5-269,396.8-269,394.1z M-281,387c2.8,0,5,2.2,5,5c0,3-2.5,7-5,7s-5-4-5-7
	C-286,389.2-283.8,387-281,387z M-287,400c-2,0-4-3.4-4-5.9c0-2,1.4-3.7,3.3-4.1c-0.2,0.7-0.3,1.3-0.3,2c0,2.2,1.1,5.1,2.9,7
	C-285.6,399.5-286.2,400-287,400z M-275,400c-0.8,0-1.4-0.5-1.9-1c1.8-1.9,2.9-4.8,2.9-7c0-0.7-0.1-1.3-0.3-1.9
	c1.9,0.4,3.3,2,3.3,4.1C-271,396.6-273,400-275,400z"/>
</svg>
