<?xml version="1.0" encoding="utf-8"?>
<!-- Generator: Adobe Illustrator 18.1.1, SVG Export Plug-In . SVG Version: 6.00 Build 0)  -->
<!DOCTYPE svg PUBLIC "-//W3C//DTD SVG 1.1//EN" "http://www.w3.org/Graphics/SVG/1.1/DTD/svg11.dtd">
<svg version="1.1" id="Layer_1" xmlns="http://www.w3.org/2000/svg" xmlns:xlink="http://www.w3.org/1999/xlink" x="0px" y="0px"
	 width="24px" height="24px" viewBox="0 0 24 24" enable-background="new 0 0 24 24" xml:space="preserve">
<path fill="#555555" d="M21,19h-8v-2h9h1c0.6,0,1-0.4,1-1c0-0.5,0-1-1-1v0c0-5.7-4.4-10.5-10-11V2h1c0.6,0,1-0.4,1-1s-0.4-1-1-1h-4
	C9.4,0,9,0.4,9,1s0.4,1,1,1h1v2.1C5.4,4.6,1,9.3,1,15c-0.6,0-1,0.4-1,1s0.4,1,1,1h1h9v2H3c-1.7,0-3,1.3-3,3v1c0,0.6,0.4,1,1,1h22
	c0.6,0,1-0.4,1-1v-1C24,20.3,22.7,19,21,19z M12,6c5,0,9,4,9,9L3,15C3,10,7,6,12,6z M2,22c0-0.6,0.4-1,1-1h18c0.6,0,1,0.4,1,1H2z"/>
</svg>
