<?xml version="1.0" encoding="utf-8"?>
<!-- Generator: Adobe Illustrator 18.1.1, SVG Export Plug-In . SVG Version: 6.00 Build 0)  -->
<!DOCTYPE svg PUBLIC "-//W3C//DTD SVG 1.1//EN" "http://www.w3.org/Graphics/SVG/1.1/DTD/svg11.dtd">
<svg version="1.1" id="Layer_1" xmlns="http://www.w3.org/2000/svg" xmlns:xlink="http://www.w3.org/1999/xlink" x="0px" y="0px"
	 width="24px" height="24px" viewBox="0 0 24 24" enable-background="new 0 0 24 24" xml:space="preserve">
<path fill="#555555" d="M23.6,3.6c-0.2-0.2-0.6-0.3-0.9-0.2L21,3.8V2.9c0-1-0.8-1.9-1.8-1.9c0,0,0,0,0,0C15.3,1,13,2.3,12,3
	C11,2.3,8.7,1.2,4.7,1C3.8,1,3,1.8,3,2.9v0.9L1.2,3.4c-0.3-0.1-0.6,0-0.9,0.2S0,4.1,0,4.4v14.9c0,0.5,0.4,0.9,0.8,1l8.2,1.3
	c0.4,0.9,1.2,1.5,2.2,1.5h1.4c1,0,1.9-0.6,2.2-1.5l8.2-1.3c0.5-0.1,0.8-0.5,0.8-1V4.4C24,4.1,23.9,3.8,23.6,3.6z M13,4.7
	c0.7-0.5,2.5-1.4,6-1.7l0,12c-2.8,0.1-4.7,0.5-6,1.2V4.7z M5,3.1c3.8,0.2,5.4,1.2,6,1.7v11.6c-1.3-0.7-3.4-1.1-6-1.3V3.1z M22,18.4
	l-8,1.2c-0.5,0.1-0.8,0.5-0.8,1c0,0.2-0.2,0.4-0.4,0.4h-1.4c-0.2,0-0.4-0.2-0.4-0.4c0-0.5-0.4-0.9-0.8-1l-8-1.2V5.6l1,0.2v9.2
	c0,1,0.8,1.8,1.8,1.9c2.8,0.1,4.7,0.6,5.7,1.3l0.1,0.1c0.4,0.3,0.9,0.7,1.5,0.7c0,0,0,0,0,0h0h0c0,0,0,0,0,0h0c0,0,0,0,0,0
	c0,0,0.1,0,0.1,0c0.5-0.1,1-0.4,1.4-0.7l0.1-0.1c0.9-0.7,2.7-1,5.6-1.2c1,0,1.8-0.9,1.8-2V5.9l1-0.2V18.4z"/>
</svg>
