<?xml version="1.0" encoding="utf-8"?>
<!-- Generator: Adobe Illustrator 18.1.1, SVG Export Plug-In . SVG Version: 6.00 Build 0)  -->
<!DOCTYPE svg PUBLIC "-//W3C//DTD SVG 1.1//EN" "http://www.w3.org/Graphics/SVG/1.1/DTD/svg11.dtd">
<svg version="1.1" id="Layer_1" xmlns="http://www.w3.org/2000/svg" xmlns:xlink="http://www.w3.org/1999/xlink" x="0px" y="0px"
	 width="24px" height="24px" viewBox="0 0 24 24" enable-background="new 0 0 24 24" xml:space="preserve">
<g>
	<path fill="#555555" d="M21.5,5h-3.3c-0.2,0-0.4-0.2-0.5-0.4l-0.4-1.9c0-0.1,0-0.1-0.1-0.2C16.9,1.6,16,1,15,1H9
		C8,1,7.1,1.6,6.7,2.6c0,0.1,0,0.1-0.1,0.2L6.3,4.6C6.2,4.8,6,5,5.8,5H2.5C1.1,5,0,6.1,0,7.5v12C0,20.9,1.1,22,2.5,22h19
		c1.4,0,2.5-1.1,2.5-2.5v-12C24,6.1,22.9,5,21.5,5z M22,19.5c0,0.3-0.2,0.5-0.5,0.5h-19C2.2,20,2,19.8,2,19.5v-12C2,7.2,2.2,7,2.5,7
		h3.3C7,7,8,6.2,8.2,5l0.4-1.7C8.7,3.1,8.8,3,9,3h6c0.2,0,0.3,0.1,0.4,0.3L15.8,5C16,6.2,17,7,18.2,7h3.3C21.8,7,22,7.2,22,7.5V19.5
		z"/>
	<path fill="#555555" d="M12,8c-2.8,0-5,2.2-5,5s2.2,5,5,5s5-2.2,5-5S14.8,8,12,8z M12,16c-1.7,0-3-1.3-3-3s1.3-3,3-3s3,1.3,3,3
		S13.7,16,12,16z"/>
</g>
</svg>
