<?xml version="1.0" encoding="utf-8"?>
<!-- Generator: Adobe Illustrator 18.1.1, SVG Export Plug-In . SVG Version: 6.00 Build 0)  -->
<!DOCTYPE svg PUBLIC "-//W3C//DTD SVG 1.1//EN" "http://www.w3.org/Graphics/SVG/1.1/DTD/svg11.dtd">
<svg version="1.1" id="Layer_1" xmlns="http://www.w3.org/2000/svg" xmlns:xlink="http://www.w3.org/1999/xlink" x="0px" y="0px"
	 width="24px" height="24px" viewBox="0 0 24 24" enable-background="new 0 0 24 24" xml:space="preserve">
<g>
	<path fill="#555555" d="M21.7,8l-2.4-6.5C18.9,0.6,18.1,0,17,0H7c-1.1,0-2,0.6-2.3,1.5L2.3,8C1,8.1,0,9.2,0,10.5v7
		c0,1.2,0.9,2.2,2,2.4v1.6C2,22.9,3.1,24,4.5,24h1C6.9,24,8,22.9,8,21.5V20h8v1.5c0,1.4,1.1,2.5,2.5,2.5h1c1.4,0,2.5-1.1,2.5-2.5
		v-1.6c1.1-0.2,2-1.2,2-2.4v-7C24,9.2,23,8.1,21.7,8z M6.6,2.2C6.6,2,6.9,2,7,2H17c0.1,0,0.4,0,0.5,0.2L19.6,8H4.4L6.6,2.2z M6,21.5
		C6,21.8,5.8,22,5.5,22h-1C4.2,22,4,21.8,4,21.5V20h2V21.5z M20,21.5c0,0.3-0.2,0.5-0.5,0.5h-1c-0.3,0-0.5-0.2-0.5-0.5V20h2V21.5z
		 M22,17.5c0,0.3-0.2,0.5-0.5,0.5H21h-4H7H3H2.5C2.2,18,2,17.8,2,17.5v-7C2,10.2,2.2,10,2.5,10H3h18c0,0,0,0,0,0h0.5
		c0.3,0,0.5,0.2,0.5,0.5V17.5z"/>
	<circle fill="#555555" cx="6" cy="14" r="2"/>
	<circle fill="#555555" cx="18" cy="14" r="2"/>
</g>
</svg>
