<?xml version="1.0" encoding="utf-8"?>
<!-- Generator: Adobe Illustrator 18.1.1, SVG Export Plug-In . SVG Version: 6.00 Build 0)  -->
<!DOCTYPE svg PUBLIC "-//W3C//DTD SVG 1.1//EN" "http://www.w3.org/Graphics/SVG/1.1/DTD/svg11.dtd">
<svg version="1.1" id="Layer_1" xmlns="http://www.w3.org/2000/svg" xmlns:xlink="http://www.w3.org/1999/xlink" x="0px" y="0px"
	 width="24px" height="24px" viewBox="0 0 24 24" enable-background="new 0 0 24 24" xml:space="preserve">
<g>
	<circle fill="#555555" cx="8" cy="22" r="2"/>
	<circle fill="#555555" cx="19" cy="22" r="2"/>
	<path fill="#555555" d="M20.9,13.3l3-9C24.1,4,24,3.7,23.8,3.4C23.6,3.2,23.3,3,23,3H4.5L4,0.8C3.9,0.3,3.5,0,3,0H1
		C0.4,0,0,0.4,0,1s0.4,1,1,1h1.2l3.5,14.1C6,17.2,7,18,8.2,18H20c0.6,0,1-0.4,1-1s-0.4-1-1-1H8.2c-0.2,0-0.4-0.2-0.5-0.4L7.3,14H20
		C20.4,14,20.8,13.7,20.9,13.3z M6.8,12L5,5h16.6l-2.3,7H6.8z"/>
</g>
</svg>
