<?xml version="1.0" encoding="utf-8"?>
<!-- Generator: Adobe Illustrator 18.1.1, SVG Export Plug-In . SVG Version: 6.00 Build 0)  -->
<!DOCTYPE svg PUBLIC "-//W3C//DTD SVG 1.1//EN" "http://www.w3.org/Graphics/SVG/1.1/DTD/svg11.dtd">
<svg version="1.1" id="Layer_1" xmlns="http://www.w3.org/2000/svg" xmlns:xlink="http://www.w3.org/1999/xlink" x="0px" y="0px"
	 width="24px" height="24px" viewBox="0 0 24 24" enable-background="new 0 0 24 24" xml:space="preserve">
<path fill="#555555" d="M22.9,19.9c0.7-1.2,1.1-2.5,1.1-3.9c0-2.7-1.5-5.2-4-6.7c0,0,0-0.1,0-0.1c0-0.1,0-0.1,0-0.2
	c0-0.1,0-0.1,0-0.2c0-0.1,0-0.1,0-0.2c0-0.1,0-0.2,0-0.2C19.6,3.7,15.3,0,10,0c-5.5,0-10,4-10,9c0,1.5,0.4,3.1,1.3,4.4
	c0,0.8-0.3,2.2-1,2.9C0.1,16.6,0,17,0.2,17.4C0.3,17.8,0.7,18,1.1,18c0.1,0,2.2,0,4.1-1.2c0.3,0.2,0.7,0.3,1,0.5
	C7,21.1,10.7,24,15,24c1.5,0,3-0.4,4.4-1c1.7,1,3.6,1,3.6,1c0.4,0,0.8-0.2,0.9-0.6s0.1-0.8-0.2-1.1C23.1,21.7,22.9,20.6,22.9,19.9z
	 M5.1,14.6c-0.2,0-0.4,0.1-0.6,0.2c-0.5,0.4-1,0.6-1.5,0.8c0.4-1.1,0.4-2.2,0.4-2.5c0-0.2-0.1-0.4-0.2-0.6C2.5,11.5,2.1,10.3,2.1,9
	c0-3.9,3.6-7,8-7c4.3,0,7.8,3,7.9,6.8c-0.1,4-3.6,7.2-7.9,7.2c-1.6,0-3.1-0.4-4.4-1.2C5.5,14.6,5.3,14.6,5.1,14.6z M21.1,21.6
	c-0.4-0.1-0.8-0.3-1.1-0.6c-0.3-0.3-0.8-0.3-1.1-0.1C17.7,21.6,16.4,22,15,22c-3,0-5.5-1.7-6.5-4.1C9,17.9,9.5,18,10,18
	c4.4,0,8.2-2.8,9.5-6.6c1.5,1.1,2.5,2.8,2.5,4.6c0,1.1-0.3,2.1-1,3c-0.1,0.2-0.2,0.4-0.2,0.6C20.9,19.9,20.9,20.7,21.1,21.6z"/>
</svg>
