<?xml version="1.0" encoding="utf-8"?>
<!-- Generator: Adobe Illustrator 18.1.1, SVG Export Plug-In . SVG Version: 6.00 Build 0)  -->
<!DOCTYPE svg PUBLIC "-//W3C//DTD SVG 1.1//EN" "http://www.w3.org/Graphics/SVG/1.1/DTD/svg11.dtd">
<svg version="1.1" id="Layer_1" xmlns="http://www.w3.org/2000/svg" xmlns:xlink="http://www.w3.org/1999/xlink" x="0px" y="0px"
	 width="24px" height="24px" viewBox="0 0 24 24" enable-background="new 0 0 24 24" xml:space="preserve">
<g>
	<path fill="#555555" d="M12,7.9c-1.4-1.2-3.6-1.1-4.9,0.2c-1.4,1.5-1.4,3.8,0,5.3l3.6,3.9c0.2,0.3,0.7,0.7,1.4,0.7
		c0.7,0,1.1-0.5,1.4-0.7l3.5-3.9c1.4-1.5,1.4-3.8,0-5.3C15.6,6.8,13.5,6.6,12,7.9z M15.5,12L12,15.8L8.5,12c-0.6-0.7-0.6-1.8,0-2.5
		C8.9,9.2,9.3,9,9.7,9s0.8,0.2,1.1,0.4l0.5,0.6c0.2,0.2,0.5,0.4,0.8,0.4c0.3,0,0.6-0.1,0.8-0.4l0.4-0.5c0.6-0.7,1.7-0.7,2.3,0
		C16.1,10.2,16.1,11.3,15.5,12z"/>
	<path fill="#555555" d="M24,11.7c0-0.1,0-0.2,0-0.3c0-0.1,0-0.1,0-0.2C23.6,5.5,18.4,1,12,1c-6.6,0-12,4.9-12,11
		c0,1.9,0.5,3.8,1.6,5.4c0,1.1-0.4,2.9-1.3,3.9c0,0,0,0.1-0.1,0.1c0,0.1-0.1,0.1-0.1,0.2c0,0.1,0,0.1,0,0.2c0,0,0,0.1,0,0.1
		c0,0,0,0,0,0c0,0.1,0,0.2,0,0.2c0,0.1,0,0.1,0,0.2c0,0,0.1,0.1,0.1,0.1c0,0.1,0.1,0.1,0.1,0.2c0,0,0,0,0,0c0,0,0.1,0.1,0.2,0.1
		c0.1,0,0.1,0.1,0.1,0.1C0.8,23,1,23,1.1,23c0.1,0,2.7,0,5-1.6c1.8,1,3.9,1.6,6,1.6c6.3,0,11.5-4.8,11.9-10.8c0-0.1,0-0.1,0-0.2
		C24,11.9,24,11.8,24,11.7z M12,21c-2,0-3.9-0.6-5.5-1.6c-0.4-0.2-0.8-0.2-1.2,0.1c-0.7,0.6-1.6,1-2.3,1.2c0.6-1.6,0.6-3.1,0.6-3.5
		c0-0.2-0.1-0.4-0.2-0.5c-0.9-1.4-1.4-3-1.4-4.6c0-5,4.5-9,10-9c5.4,0,9.8,3.9,9.9,8.7C21.8,16.9,17.4,21,12,21z"/>
</g>
</svg>
