<?xml version="1.0" encoding="utf-8"?>
<!-- Generator: Adobe Illustrator 17.0.0, SVG Export Plug-In . SVG Version: 6.00 Build 0)  -->
<!DOCTYPE svg PUBLIC "-//W3C//DTD SVG 1.1//EN" "http://www.w3.org/Graphics/SVG/1.1/DTD/svg11.dtd">
<svg version="1.1" id="Layer_1" xmlns="http://www.w3.org/2000/svg" xmlns:xlink="http://www.w3.org/1999/xlink" x="0px" y="0px"
	 width="12.908px" height="12.908px" viewBox="0 0 12.908 12.908" enable-background="new 0 0 12.908 12.908" xml:space="preserve">
<path fill="#565656" d="M6.913,5.954v-2c0-0.6-0.4-1-1-1s-1,0.4-1,1v3c0,0.6,0.4,1,1,1h3c0.6,0,1-0.4,1-1s-0.4-1-1-1H6.913z"/>
<g>
	<path fill="#565656" d="M6.455,12.908C2.896,12.908,0,10.012,0,6.454S2.896,0,6.455,0s6.453,2.895,6.453,6.454
		S10.013,12.908,6.455,12.908z M6.455,2.2C4.109,2.2,2.2,4.108,2.2,6.454s1.909,4.255,4.255,4.255s4.254-1.909,4.254-4.255
		S8.8,2.2,6.455,2.2z"/>
</g>
</svg>
