<?xml version="1.0" encoding="utf-8"?>
<!-- Generator: Adobe Illustrator 18.1.1, SVG Export Plug-In . SVG Version: 6.00 Build 0)  -->
<!DOCTYPE svg PUBLIC "-//W3C//DTD SVG 1.1//EN" "http://www.w3.org/Graphics/SVG/1.1/DTD/svg11.dtd">
<svg version="1.1" id="Layer_1" xmlns="http://www.w3.org/2000/svg" xmlns:xlink="http://www.w3.org/1999/xlink" x="0px" y="0px"
	 width="26.1px" height="26.1px" viewBox="-294.1 383.9 26.1 26.1" enable-background="new -294.1 383.9 26.1 26.1"
	 xml:space="preserve">
<g>
	<path fill="#555555" d="M-270.1,401c0-0.2,0.1-0.4,0.1-0.5v-12c0-1.4-1.1-2.5-2.5-2.5h-17c-1.4,0-2.5,1.1-2.5,2.5v12
		c0,0.2,0,0.4,0.1,0.5c-1.2,0.3-2.1,1.3-2.1,2.5v2c0,1.4,1.1,2.5,2.5,2.5h21c1.4,0,2.5-1.1,2.5-2.5v-2
		C-268,402.3-268.9,401.3-270.1,401z M-290,388.5c0-0.3,0.2-0.5,0.5-0.5h17c0.3,0,0.5,0.2,0.5,0.5v12c0,0.3-0.2,0.5-0.5,0.5h-6.5h-4
		h-6.5c-0.3,0-0.5-0.2-0.5-0.5V388.5z M-270,405.5c0,0.3-0.2,0.5-0.5,0.5h-21c-0.3,0-0.5-0.2-0.5-0.5v-2c0-0.3,0.2-0.5,0.5-0.5h2
		h5.5v1c0,0.6,0.4,1,1,1h4c0.6,0,1-0.4,1-1v-1h5.5h2c0.3,0,0.5,0.2,0.5,0.5V405.5z"/>
	<path fill="#555555" d="M-288,400h14c0.6,0,1-0.4,1-1v-9c0-0.6-0.4-1-1-1h-14c-0.6,0-1,0.4-1,1v9C-289,399.6-288.6,400-288,400z
		 M-287,391h12v7h-12V391z"/>
</g>
</svg>
