<?xml version="1.0" encoding="utf-8"?>
<!-- Generator: Adobe Illustrator 18.1.1, SVG Export Plug-In . SVG Version: 6.00 Build 0)  -->
<!DOCTYPE svg PUBLIC "-//W3C//DTD SVG 1.1//EN" "http://www.w3.org/Graphics/SVG/1.1/DTD/svg11.dtd">
<svg version="1.1" id="Layer_1" xmlns="http://www.w3.org/2000/svg" xmlns:xlink="http://www.w3.org/1999/xlink" x="0px" y="0px"
	 width="24px" height="24px" viewBox="0 0 24 24" enable-background="new 0 0 24 24" xml:space="preserve">
<g>
	<path fill="#555555" d="M21.5,0h-13C7.1,0,6,1.1,6,2.5V6H2.5C1.1,6,0,7.1,0,8.5v13C0,22.9,1.1,24,2.5,24h13c1.4,0,2.5-1.1,2.5-2.5
		V18h3.5c1.4,0,2.5-1.1,2.5-2.5v-13C24,1.1,22.9,0,21.5,0z M16,21.5c0,0.3-0.2,0.5-0.5,0.5h-13C2.2,22,2,21.8,2,21.5v-13
		C2,8.2,2.2,8,2.5,8h13C15.8,8,16,8.2,16,8.5V21.5z M22,15.5c0,0.3-0.2,0.5-0.5,0.5H18V8.5C18,7.1,16.9,6,15.5,6H8V2.5
		C8,2.2,8.2,2,8.5,2h13C21.8,2,22,2.2,22,2.5V15.5z"/>
	<path fill="#555555" d="M12,14h-2v-2c0-0.6-0.4-1-1-1s-1,0.4-1,1v2H6c-0.6,0-1,0.4-1,1s0.4,1,1,1h2v2c0,0.6,0.4,1,1,1s1-0.4,1-1v-2
		h2c0.6,0,1-0.4,1-1S12.6,14,12,14z"/>
</g>
</svg>
