<?xml version="1.0" encoding="utf-8"?>
<!-- Generator: Adobe Illustrator 18.1.1, SVG Export Plug-In . SVG Version: 6.00 Build 0)  -->
<!DOCTYPE svg PUBLIC "-//W3C//DTD SVG 1.1//EN" "http://www.w3.org/Graphics/SVG/1.1/DTD/svg11.dtd">
<svg version="1.1" id="Layer_1" xmlns="http://www.w3.org/2000/svg" xmlns:xlink="http://www.w3.org/1999/xlink" x="0px" y="0px"
	 width="24px" height="24px" viewBox="0 0 24 24" enable-background="new 0 0 24 24" xml:space="preserve">
<path fill="#555555" d="M22.8,6.5l-9.5-6c-0.8-0.5-1.9-0.5-2.7,0l-9.5,6C0.4,7,0,7.8,0,8.6v12.9C0,22.9,1.1,24,2.5,24h19
	c1.4,0,2.5-1.1,2.5-2.5V8.6C24,7.8,23.6,7,22.8,6.5z M11.7,2.2c0.1-0.1,0.2-0.1,0.3-0.1s0.2,0,0.3,0.1l9.4,6c-0.1,0-0.2,0.1-0.3,0.2
	L14.6,15H9.4L2.7,8.3C2.6,8.2,2.5,8.2,2.4,8.1L11.7,2.2z M21.5,22h-19C2.2,22,2,21.8,2,21.5v-11l6.3,6.3C8.5,16.9,8.7,17,9,17h6
	c0.3,0,0.5-0.1,0.7-0.3l6.3-6.3v11C22,21.8,21.8,22,21.5,22z"/>
</svg>
