<?xml version="1.0" encoding="utf-8"?>
<!-- Generator: Adobe Illustrator 18.1.1, SVG Export Plug-In . SVG Version: 6.00 Build 0)  -->
<!DOCTYPE svg PUBLIC "-//W3C//DTD SVG 1.1//EN" "http://www.w3.org/Graphics/SVG/1.1/DTD/svg11.dtd">
<svg version="1.1" id="Layer_1" xmlns="http://www.w3.org/2000/svg" xmlns:xlink="http://www.w3.org/1999/xlink" x="0px" y="0px"
	 width="24px" height="24px" viewBox="0 0 24 24" enable-background="new 0 0 24 24" xml:space="preserve">
<g>
	<path fill="#555555" d="M12,5c-1.7,0-3,1.3-3,3s1.3,3,3,3s3-1.3,3-3S13.7,5,12,5z M12,9c-0.6,0-1-0.4-1-1s0.4-1,1-1s1,0.4,1,1
		S12.6,9,12,9z"/>
	<path fill="#555555" d="M18,5.5c0.2-0.5,0.3-0.9,0.3-1.4c0-0.7-0.2-1.3-0.7-1.8c-0.4-0.4-1.1-0.7-1.7-0.7c-0.5,0-0.9,0.1-1.4,0.4
		c-0.2-0.5-0.5-0.9-0.8-1.3C13.2,0.3,12.6,0,12,0c-1.1,0-2,0.8-2.5,2C8.4,1.5,7.1,1.6,6.3,2.3c-0.4,0.4-0.7,1-0.7,1.7
		c0,0.5,0.1,1,0.3,1.5C4.8,6,4,6.9,4,8c0,1.1,0.8,2,2,2.5c-0.2,0.5-0.3,0.9-0.3,1.4c0,0.7,0.2,1.3,0.7,1.8c0.4,0.4,1.1,0.7,1.7,0.7
		c0.5,0,0.9-0.1,1.4-0.4c0.2,0.5,0.5,0.9,0.8,1.3c0.5,0.5,1.1,0.7,1.7,0.7c1.1,0,2-0.8,2.5-2c1.1,0.5,2.5,0.4,3.2-0.3
		c0.4-0.4,0.7-1.1,0.7-1.7c0-0.5-0.1-0.9-0.4-1.4c1.2-0.4,2-1.4,2-2.5C20,6.9,19.2,6,18,5.5z M16.3,9C16.3,9,16.3,9,16.3,9
		c-0.4,0-0.7,0.1-0.9,0.4c-0.2,0.3-0.2,0.6,0.1,0.9c0.6,0.9,0.8,1.2,0.8,1.6c0,0.2-0.1,0.3-0.1,0.3c0,0-0.1,0.1-0.3,0.1
		c-0.5,0-1-0.3-1.4-0.8c-0.3-0.3-0.8-0.4-1.2-0.2c-0.4,0.2-0.6,0.6-0.6,1c0,1.1-0.5,1.6-0.8,1.6c0,0-0.1,0-0.3-0.2
		c-0.3-0.3-0.5-0.9-0.5-1.5c0-0.4-0.2-0.7-0.5-0.9c-0.1-0.1-0.3-0.1-0.5-0.1c-0.2,0-0.4,0.1-0.6,0.2c-0.9,0.6-1.2,0.8-1.6,0.8
		c-0.2,0-0.3-0.1-0.3-0.1c0,0-0.1-0.1-0.1-0.3c0-0.5,0.3-1,0.8-1.4c0.3-0.3,0.4-0.8,0.2-1.2s-0.6-0.6-1-0.6C6.6,8.7,6,8.1,6,7.9
		C6,7.7,6.6,7,7.7,7c0,0,0,0,0,0c0.4,0,0.8-0.1,1-0.5c0.2-0.4,0.1-0.7-0.2-1C7.9,5,7.7,4.4,7.7,4.1c0-0.2,0-0.3,0.1-0.3
		c0.1-0.1,1-0.1,1.8,0.7c0.3,0.3,0.8,0.4,1.2,0.2c0.4-0.2,0.6-0.6,0.6-1C11.2,2.6,11.8,2,12,2c0,0,0.1,0,0.3,0.2
		c0.3,0.3,0.5,0.9,0.5,1.5c0,0.4,0.2,0.7,0.5,0.9c0.3,0.2,0.7,0.2,1-0.1c0.9-0.6,1.2-0.8,1.6-0.8c0.2,0,0.3,0.1,0.3,0.1
		c0,0,0.1,0.1,0.1,0.3c0,0.5-0.3,1-0.8,1.4c-0.3,0.3-0.4,0.8-0.2,1.2c0.2,0.4,0.6,0.6,1,0.6c1.1,0,1.6,0.6,1.6,0.8
		C18,8.3,17.4,9,16.3,9z"/>
	<path fill="#555555" d="M17.9,15.9c-1.7,0-3.8,0-5.4,1.6c-0.2,0.2-0.4,0.5-0.6,0.7c-0.2-0.2-0.4-0.5-0.6-0.7
		c-1.6-1.6-3.7-1.6-5.4-1.6c-0.6,0-1,0.4-1,1c0,1.7,0.2,3.5,1.5,5.3c1.1,1.5,2.6,1.7,4,1.7c0.2,0,0.5,0,0.7,0c0.2,0,0.5,0,0.7,0
		s0.5,0,0.7,0c0.2,0,0.5,0,0.7,0c1.4,0,2.9-0.2,4-1.7c1.3-1.8,1.5-3.6,1.5-5.3C18.9,16.4,18.5,15.9,17.9,15.9z M10.6,21.9
		c-1.1,0-1.9-0.1-2.4-0.9c-0.7-0.9-1-1.9-1.1-3c1.2,0,2.2,0.2,2.9,1c0.7,0.7,0.9,1.7,1,3C10.9,21.9,10.7,21.9,10.6,21.9z M15.9,21
		c-0.6,0.8-1.3,0.9-2.4,0.9c-0.1,0-0.3,0-0.4,0c0-1.3,0.2-2.2,1-3c0.7-0.7,1.7-0.9,2.9-1C16.8,19.1,16.6,20.1,15.9,21z"/>
</g>
</svg>
