<?xml version="1.0" encoding="utf-8"?>
<!-- Generator: Adobe Illustrator 18.1.1, SVG Export Plug-In . SVG Version: 6.00 Build 0)  -->
<!DOCTYPE svg PUBLIC "-//W3C//DTD SVG 1.1//EN" "http://www.w3.org/Graphics/SVG/1.1/DTD/svg11.dtd">
<svg version="1.1" id="Layer_1" xmlns="http://www.w3.org/2000/svg" xmlns:xlink="http://www.w3.org/1999/xlink" x="0px" y="0px"
	 width="24px" height="24px" viewBox="0 0 24 24" enable-background="new 0 0 24 24" xml:space="preserve">
<g>
	<path fill="#555555" d="M22,8c0-3.9-2-7.2-4.7-7.9c-0.9-0.2-1.8-0.1-2.7,0.2c0,0,0,0,0,0c0,0,0,0,0,0c0,0-0.1,0.1-0.1,0.1
		c-0.1,0-0.1,0.1-0.2,0.1c0,0-0.1,0.1-0.1,0.2c0,0.1-0.1,0.1-0.1,0.2c0,0.1,0,0.2,0,0.2c0,0,0,0.1,0,0.1v20.2c0,1.4,1.1,2.5,2.6,2.5
		c1.4,0,2.4-1.1,2.4-2.5v-6.4C20.8,13.7,22,11,22,8z M16.8,2.1C18.6,2.5,20,5,20,8s-1.4,5.5-3.2,5.9C16.6,14,16.3,14,16,14V2
		C16.3,2,16.5,2,16.8,2.1z M16.5,22c-0.3,0-0.5-0.2-0.5-0.5V16c0.1,0,0.2,0,0.3,0c0.2,0,0.5,0,0.7-0.1v5.5C17,21.7,16.9,22,16.5,22z
		"/>
	<path fill="#555555" d="M9,0C8.4,0,8,0.4,8,1v7c0,0.6-0.4,1-1,1V1c0-0.6-0.4-1-1-1S5,0.4,5,1v8C4.4,9,4,8.6,4,8V1c0-0.6-0.4-1-1-1
		S2,0.4,2,1v7c0,0.9,0.4,1.7,1,2.2V21c0,1.7,1.4,3,3.1,3C7.7,24,9,22.7,9,21V10.2c0.6-0.5,1-1.3,1-2.2V1C10,0.4,9.6,0,9,0z M7,21
		c0,0.5-0.3,1-1,1c-0.6,0-1-0.5-1-1V11h2V21z"/>
</g>
</svg>
