<?xml version="1.0" encoding="utf-8"?>
<!-- Generator: Adobe Illustrator 18.1.1, SVG Export Plug-In . SVG Version: 6.00 Build 0)  -->
<!DOCTYPE svg PUBLIC "-//W3C//DTD SVG 1.1//EN" "http://www.w3.org/Graphics/SVG/1.1/DTD/svg11.dtd">
<svg version="1.1" id="Layer_1" xmlns="http://www.w3.org/2000/svg" xmlns:xlink="http://www.w3.org/1999/xlink" x="0px" y="0px"
	 width="24px" height="24px" viewBox="0 0 24 24" enable-background="new 0 0 24 24" xml:space="preserve">
<g>
	<path fill="#555555" d="M22.8,1.8c-0.1-0.2-0.3-0.4-0.5-0.5c-2-0.8-4-1.2-6.1-1.2C11.8,0,7.8,1.7,4.7,4.7c-4.6,4.6-6,11.5-3.5,17.5
		c0.1,0.2,0.3,0.4,0.5,0.5c2,0.8,4,1.2,6.1,1.2c0,0,0,0,0,0c4.3,0,8.3-1.7,11.4-4.7C23.9,14.7,25.3,7.8,22.8,1.8z M21.1,2.9
		c0.7,1.8,1,3.8,0.9,5.7L15.4,2c0.2,0,0.4,0,0.7,0C17.8,2,19.5,2.3,21.1,2.9z M7.9,22c-1.7,0-3.4-0.3-5-0.9c-0.7-1.8-1-3.8-0.9-5.7
		L8.6,22C8.3,22,8.1,22,7.9,22L7.9,22z M17.9,17.9c-1.9,1.9-4.3,3.2-6.8,3.8l-8.7-8.7c0.6-2.5,1.9-4.9,3.8-6.8
		C8,4.2,10.4,2.9,13,2.4l8.7,8.7C21.1,13.6,19.8,15.9,17.9,17.9z"/>
	<path fill="#555555" d="M17.7,10.3L16.4,9l0.3-0.3c0.4-0.4,0.4-1,0-1.4s-1-0.4-1.4,0L15,7.6l-1.3-1.3c-0.4-0.4-1-0.4-1.4,0
		s-0.4,1,0,1.4L13.6,9L12,10.6l-1.3-1.3c-0.4-0.4-1-0.4-1.4,0s-0.4,1,0,1.4l1.3,1.3L9,13.6l-1.3-1.3c-0.4-0.4-1-0.4-1.4,0
		s-0.4,1,0,1.4L7.6,15l-0.3,0.3c-0.4,0.4-0.4,1,0,1.4C7.5,16.9,7.7,17,8,17s0.5-0.1,0.7-0.3L9,16.4l1.3,1.3c0.2,0.2,0.5,0.3,0.7,0.3
		s0.5-0.1,0.7-0.3c0.4-0.4,0.4-1,0-1.4L10.4,15l1.6-1.6l1.3,1.3c0.2,0.2,0.5,0.3,0.7,0.3s0.5-0.1,0.7-0.3c0.4-0.4,0.4-1,0-1.4
		L13.4,12l1.6-1.6l1.3,1.3c0.2,0.2,0.5,0.3,0.7,0.3s0.5-0.1,0.7-0.3C18.1,11.3,18.1,10.7,17.7,10.3z"/>
</g>
</svg>
