<?xml version="1.0" encoding="utf-8"?>
<!-- Generator: Adobe Illustrator 18.1.1, SVG Export Plug-In . SVG Version: 6.00 Build 0)  -->
<!DOCTYPE svg PUBLIC "-//W3C//DTD SVG 1.1//EN" "http://www.w3.org/Graphics/SVG/1.1/DTD/svg11.dtd">
<svg version="1.1" id="Layer_1" xmlns="http://www.w3.org/2000/svg" xmlns:xlink="http://www.w3.org/1999/xlink" x="0px" y="0px"
	 width="24px" height="24px" viewBox="0 0 24 24" enable-background="new 0 0 24 24" xml:space="preserve">
<g>
	<path fill="#555555" d="M22.2,14.2l-1.2-1c0-0.4,0.1-0.8,0.1-1.2s0-0.8-0.1-1.2l1.3-1c0.9-0.8,1.2-2.1,0.6-3.2L22,5.4
		c-0.6-1-1.9-1.5-3-1.1l-1.5,0.6c-0.6-0.5-1.3-0.9-2-1.2l-0.3-1.6C15,0.9,14,0,12.7,0h-1.5C10,0,9,0.9,8.8,2.1L8.5,3.7
		C7.8,4,7.2,4.4,6.5,4.9L5,4.3C3.9,3.9,2.6,4.3,2,5.4L1.2,6.6C0.6,7.7,0.9,9,1.8,9.8l1.3,1C3,11.2,3,11.6,3,12s0,0.8,0.1,1.2l-1.3,1
		c-0.9,0.8-1.2,2.1-0.6,3.2L2,18.6c0.6,1,1.9,1.5,3,1.1l1.5-0.6c0.6,0.5,1.3,0.9,2,1.2l0.3,1.6C9,23.1,10,24,11.3,24h1.5
		c1.2,0,2.3-0.9,2.5-2.1l0.3-1.6c0.8-0.3,1.5-0.7,2.1-1.2l1.4,0.6c1.1,0.4,2.5,0,3.1-1.1l0.7-1.2C23.4,16.3,23.1,15,22.2,14.2z
		 M21,16.4l-0.7,1.2c-0.1,0.2-0.4,0.3-0.6,0.2l-2-0.8c-0.4-0.1-0.8-0.1-1,0.2c-0.7,0.6-1.5,1.1-2.5,1.5c-0.3,0.1-0.6,0.4-0.7,0.8
		l-0.4,2.2c0,0.2-0.2,0.4-0.5,0.4h-1.5c-0.2,0-0.5-0.2-0.5-0.4l-0.4-2.2c-0.1-0.4-0.3-0.7-0.7-0.8c-0.9-0.3-1.7-0.7-2.4-1.4
		C7.2,17.1,7,17,6.7,17c-0.1,0-0.2,0-0.4,0.1l-2.1,0.8c-0.2,0.1-0.5,0-0.6-0.2L3,16.4c-0.1-0.2-0.1-0.5,0.1-0.6l1.7-1.4
		c0.3-0.2,0.4-0.6,0.3-1C5,12.9,5,12.5,5,12s0-0.9,0.1-1.4c0.1-0.4-0.1-0.7-0.3-1L3.1,8.3C2.9,8.1,2.8,7.8,3,7.6l0.7-1.3
		c0.1-0.2,0.4-0.3,0.6-0.2l2.1,0.8c0.3,0.1,0.7,0.1,1-0.2c0.7-0.6,1.5-1.1,2.4-1.4c0.4-0.1,0.6-0.4,0.7-0.8l0.4-2.2
		C10.8,2.2,11,2,11.3,2h1.5c0.2,0,0.5,0.2,0.5,0.4l0.4,2.2c0.1,0.4,0.3,0.7,0.7,0.8c0.9,0.3,1.7,0.7,2.4,1.4c0.3,0.2,0.7,0.3,1,0.2
		l2.1-0.8c0.2-0.1,0.5,0,0.6,0.2L21,7.6c0.1,0.2,0.1,0.5-0.1,0.6l-1.7,1.4c-0.3,0.2-0.4,0.6-0.3,1C19,11.1,19,11.5,19,12
		s0,0.9-0.1,1.4c-0.1,0.4,0.1,0.7,0.3,1l1.7,1.4C21.1,15.9,21.1,16.2,21,16.4z"/>
	<path fill="#555555" d="M12,8c-2.2,0-4,1.8-4,4s1.8,4,4,4s4-1.8,4-4S14.2,8,12,8z M12,14c-1.1,0-2-0.9-2-2s0.9-2,2-2s2,0.9,2,2
		S13.1,14,12,14z"/>
</g>
</svg>
