<?xml version="1.0" encoding="utf-8"?>
<!-- Generator: Adobe Illustrator 18.1.1, SVG Export Plug-In . SVG Version: 6.00 Build 0)  -->
<!DOCTYPE svg PUBLIC "-//W3C//DTD SVG 1.1//EN" "http://www.w3.org/Graphics/SVG/1.1/DTD/svg11.dtd">
<svg version="1.1" id="Layer_1" xmlns="http://www.w3.org/2000/svg" xmlns:xlink="http://www.w3.org/1999/xlink" x="0px" y="0px"
	 width="24px" height="24px" viewBox="0 0 24 24" enable-background="new 0 0 24 24" xml:space="preserve">
<path fill="#555555" d="M21.5,6h-3.1C18.8,5.4,19,4.7,19,4c0-2.2-1.8-4-4-4c-1.2,0-2.3,0.5-3,1.4C11.3,0.5,10.2,0,9,0
	C6.8,0,5,1.8,5,4c0,0.7,0.2,1.4,0.6,2H2.5C1.1,6,0,7.1,0,8.5v1c0,1.2,0.9,2.2,2,2.4v9.6C2,22.9,3.1,24,4.5,24h15
	c1.4,0,2.5-1.1,2.5-2.5v-9.6c1.1-0.2,2-1.2,2-2.4v-1C24,7.1,22.9,6,21.5,6z M15,2c1.1,0,2,0.9,2,2s-0.9,2-2,2h-2V4
	C13,2.9,13.9,2,15,2z M7,4c0-1.1,0.9-2,2-2s2,0.9,2,2v2H9C7.9,6,7,5.1,7,4z M4,21.5V12h6h1v10H4.5C4.2,22,4,21.8,4,21.5z M20,21.5
	c0,0.3-0.2,0.5-0.5,0.5H13V12h3h4V21.5z M22,9.5c0,0.3-0.2,0.5-0.5,0.5H21h-5h-6H3H2.5C2.2,10,2,9.8,2,9.5v-1C2,8.2,2.2,8,2.5,8H9h3
	h3h6.5C21.8,8,22,8.2,22,8.5V9.5z"/>
</svg>
