<?xml version="1.0" encoding="utf-8"?>
<!-- Generator: Adobe Illustrator 18.1.1, SVG Export Plug-In . SVG Version: 6.00 Build 0)  -->
<!DOCTYPE svg PUBLIC "-//W3C//DTD SVG 1.1//EN" "http://www.w3.org/Graphics/SVG/1.1/DTD/svg11.dtd">
<svg version="1.1" id="Layer_1" xmlns="http://www.w3.org/2000/svg" xmlns:xlink="http://www.w3.org/1999/xlink" x="0px" y="0px"
	 width="24px" height="24px" viewBox="0 0 24 24" enable-background="new 0 0 24 24" xml:space="preserve">
<g>
	<path fill="#555555" d="M5,1H3C1.9,1,1,1.9,1,3v2c0,1.1,0.9,2,2,2h2c1.1,0,2-0.9,2-2V3C7,1.9,6.1,1,5,1z M3,5V3h2l0,2H3z"/>
	<path fill="#555555" d="M13,1h-2C9.9,1,9,1.9,9,3v2c0,1.1,0.9,2,2,2h2c1.1,0,2-0.9,2-2V3C15,1.9,14.1,1,13,1z M11,5V3h2l0,2H11z"/>
	<path fill="#555555" d="M21,1h-2c-1.1,0-2,0.9-2,2v2c0,1.1,0.9,2,2,2h2c1.1,0,2-0.9,2-2V3C23,1.9,22.1,1,21,1z M19,5V3h2l0,2H19z"
		/>
	<path fill="#555555" d="M5,9H3c-1.1,0-2,0.9-2,2v2c0,1.1,0.9,2,2,2h2c1.1,0,2-0.9,2-2v-2C7,9.9,6.1,9,5,9z M3,13v-2h2l0,2H3z"/>
	<path fill="#555555" d="M13,9h-2c-1.1,0-2,0.9-2,2v2c0,1.1,0.9,2,2,2h2c1.1,0,2-0.9,2-2v-2C15,9.9,14.1,9,13,9z M11,13v-2h2l0,2H11
		z"/>
	<path fill="#555555" d="M21,9h-2c-1.1,0-2,0.9-2,2v2c0,1.1,0.9,2,2,2h2c1.1,0,2-0.9,2-2v-2C23,9.9,22.1,9,21,9z M19,13v-2h2l0,2H19
		z"/>
	<path fill="#555555" d="M5,17H3c-1.1,0-2,0.9-2,2v2c0,1.1,0.9,2,2,2h2c1.1,0,2-0.9,2-2v-2C7,17.9,6.1,17,5,17z M3,21v-2h2l0,2H3z"
		/>
	<path fill="#555555" d="M13,17h-2c-1.1,0-2,0.9-2,2v2c0,1.1,0.9,2,2,2h2c1.1,0,2-0.9,2-2v-2C15,17.9,14.1,17,13,17z M11,21v-2h2
		l0,2H11z"/>
	<path fill="#555555" d="M21,17h-2c-1.1,0-2,0.9-2,2v2c0,1.1,0.9,2,2,2h2c1.1,0,2-0.9,2-2v-2C23,17.9,22.1,17,21,17z M19,21v-2h2
		l0,2H19z"/>
</g>
</svg>
