<?xml version="1.0" encoding="utf-8"?>
<!-- Generator: Adobe Illustrator 18.1.1, SVG Export Plug-In . SVG Version: 6.00 Build 0)  -->
<!DOCTYPE svg PUBLIC "-//W3C//DTD SVG 1.1//EN" "http://www.w3.org/Graphics/SVG/1.1/DTD/svg11.dtd">
<svg version="1.1" id="Layer_1" xmlns="http://www.w3.org/2000/svg" xmlns:xlink="http://www.w3.org/1999/xlink" x="0px" y="0px"
	 width="24px" height="24px" viewBox="0 0 24 24" enable-background="new 0 0 24 24" xml:space="preserve">
<g>
	<circle fill="#555555" cx="11" cy="13" r="2"/>
	<path fill="#555555" d="M23.8,1.9l-1.7-1.7c-0.3-0.3-0.7-0.3-1,0l-2.5,2.5c-0.3,0.3-0.3,0.7,0,1l0.2,0.2l-4.2,4.2
		c-2.6-2-5.2-1-6.8,0.7C7.1,9.3,6.1,9.7,5,10c-1.2,0.4-2.5,0.8-3.5,1.8c-2.5,2.5-2,5.6,1.5,9.1c0,0,0,0,0,0c0,0,0,0,0,0.1
		c2,2,3.9,3.1,5.7,3.1c1.2,0,2.4-0.5,3.4-1.6c0.9-0.9,1.4-2.2,1.8-3.5c0.4-1.1,0.7-2.1,1.3-2.7c1-1,1.6-2.2,1.7-3.4
		c0.1-0.9-0.1-2.1-1.1-3.4l4.2-4.2l0.2,0.2c0.3,0.3,0.7,0.3,1,0l2.5-2.5C24.1,2.6,24.1,2.2,23.8,1.9z M13.9,14.9
		c-0.9,0.9-1.4,2.2-1.8,3.5c-0.4,1.1-0.7,2.1-1.3,2.7c-0.8,0.8-2.4,2.4-6.3-1.5c0,0,0,0,0,0c0,0,0,0,0-0.1c-3.9-3.9-2.3-5.5-1.5-6.3
		c0.6-0.6,1.6-0.9,2.7-1.3c1.2-0.4,2.5-0.8,3.5-1.8c1.1-1.1,2.8-2,4.8,0c0.8,0.8,1.2,1.7,1.2,2.6C15,13.6,14.4,14.4,13.9,14.9z"/>
	<path fill="#555555" d="M6.7,14.3c-0.4-0.4-1-0.4-1.4,0s-0.4,1,0,1.4l3,3C8.5,18.9,8.7,19,9,19s0.5-0.1,0.7-0.3
		c0.4-0.4,0.4-1,0-1.4L6.7,14.3z"/>
</g>
</svg>
