<?xml version="1.0" encoding="utf-8"?>
<!-- Generator: Adobe Illustrator 18.1.1, SVG Export Plug-In . SVG Version: 6.00 Build 0)  -->
<!DOCTYPE svg PUBLIC "-//W3C//DTD SVG 1.1//EN" "http://www.w3.org/Graphics/SVG/1.1/DTD/svg11.dtd">
<svg version="1.1" id="Layer_1" xmlns="http://www.w3.org/2000/svg" xmlns:xlink="http://www.w3.org/1999/xlink" x="0px" y="0px"
	 width="24px" height="24px" viewBox="0 0 24 24" enable-background="new 0 0 24 24" xml:space="preserve">
<path fill="#555555" d="M22,3.1C20.7,1.7,19,1,17.2,1c-1.8,0-3.6,0.8-5,2.2L12,3.5l-0.3-0.4C10.4,1.8,8.7,1,6.9,1C5,1,3.3,1.7,2,3.1
	c-2.6,2.8-2.6,7.3,0,10l7.9,8.6C10.3,22.2,11,23,12,23c1,0,1.7-0.8,2.1-1.3l7.9-8.6C24.7,10.4,24.7,5.9,22,3.1z M12.7,20.4
	c-0.1,0.1-0.5,0.5-0.7,0.6c-0.2-0.1-0.5-0.4-0.6-0.6L4.6,13H8c0.4,0,0.7-0.2,0.9-0.6l1-2.1l2.2,5c0.1,0.3,0.5,0.6,0.8,0.6
	c0,0,0.1,0,0.1,0c0.3,0,0.6-0.2,0.8-0.4l1.7-2.6h3.9L12.7,20.4z M21.2,11c-0.1,0-0.1,0-0.2,0h-6c-0.3,0-0.6,0.2-0.8,0.4l-1,1.5
	l-2.3-5.3C10.8,7.2,10.4,7,10,7C9.7,7,9.3,7.2,9.1,7.6L7.4,11H3c-0.1,0-0.1,0-0.1,0C1.6,9,1.7,6.3,3.4,4.5C4.4,3.5,5.6,3,6.9,3
	c1.3,0,2.5,0.5,3.4,1.4l1,1.3c0.2,0.2,0.5,0.4,0.8,0.4c0,0,0,0,0,0c0.3,0,0.6-0.1,0.8-0.4l0.9-1.2c1-1,2.2-1.5,3.5-1.5
	c1.3,0,2.5,0.5,3.4,1.5C22.3,6.3,22.5,9,21.2,11z"/>
</svg>
