<?xml version="1.0" encoding="utf-8"?>
<!-- Generator: Adobe Illustrator 18.1.1, SVG Export Plug-In . SVG Version: 6.00 Build 0)  -->
<!DOCTYPE svg PUBLIC "-//W3C//DTD SVG 1.1//EN" "http://www.w3.org/Graphics/SVG/1.1/DTD/svg11.dtd">
<svg version="1.1" id="Layer_1" xmlns="http://www.w3.org/2000/svg" xmlns:xlink="http://www.w3.org/1999/xlink" x="0px" y="0px"
	 width="24px" height="24px" viewBox="-293 385 24 24" enable-background="new -293 385 24 24" xml:space="preserve">
<path fill="#555555" d="M-281,408c-1,0-1.7-0.8-2.1-1.3l-7.9-8.6c-2.6-2.8-2.6-7.3,0-10c1.3-1.4,3-2.1,4.9-2.1s3.6,0.7,4.9,2.1
	l0.2,0.4l0.2-0.2c1.4-1.5,3.1-2.2,5-2.2c1.8-0.1,3.5,0.6,4.8,2c2.6,2.8,2.6,7.3,0,10l-7.9,8.6C-279.3,407.2-280,408-281,408z"/>
</svg>
