<?xml version="1.0" encoding="utf-8"?>
<!-- Generator: Adobe Illustrator 18.1.1, SVG Export Plug-In . SVG Version: 6.00 Build 0)  -->
<!DOCTYPE svg PUBLIC "-//W3C//DTD SVG 1.1//EN" "http://www.w3.org/Graphics/SVG/1.1/DTD/svg11.dtd">
<svg version="1.1" id="Layer_1" xmlns="http://www.w3.org/2000/svg" xmlns:xlink="http://www.w3.org/1999/xlink" x="0px" y="0px"
	 width="24px" height="24px" viewBox="0 0 24 24" enable-background="new 0 0 24 24" xml:space="preserve">
<g>
	<g>
		<path fill="#555555" d="M12,23c-1,0-1.7-0.8-2.1-1.3L2,13.1c-2.6-2.8-2.6-7.3,0-10C3.3,1.7,5,1,6.9,1s3.6,0.7,4.9,2.1L12,3.5
			l0.2-0.2c1.4-1.5,3.1-2.2,5-2.2C19,1,20.7,1.7,22,3.1c2.6,2.8,2.6,7.3,0,10l-7.9,8.6C13.7,22.2,13,23,12,23z M6.9,3
			C5.6,3,4.4,3.5,3.4,4.5c-1.9,2-1.9,5.3,0,7.3l7.9,8.6c0.1,0.2,0.5,0.5,0.6,0.6c0.2-0.1,0.5-0.5,0.7-0.6l7.9-8.6
			c1.9-2,1.9-5.3,0-7.3c-0.9-1-2.1-1.5-3.4-1.5c-1.3,0-2.5,0.5-3.5,1.5l-0.9,1.2c-0.2,0.2-0.5,0.4-0.8,0.4c0,0,0,0,0,0
			c-0.3,0-0.6-0.1-0.8-0.4l-1-1.3C9.4,3.5,8.1,3,6.9,3z"/>
	</g>
</g>
</svg>
