<?xml version="1.0" encoding="utf-8"?>
<!-- Generator: Adobe Illustrator 18.1.1, SVG Export Plug-In . SVG Version: 6.00 Build 0)  -->
<!DOCTYPE svg PUBLIC "-//W3C//DTD SVG 1.1//EN" "http://www.w3.org/Graphics/SVG/1.1/DTD/svg11.dtd">
<svg version="1.1" id="Layer_1" xmlns="http://www.w3.org/2000/svg" xmlns:xlink="http://www.w3.org/1999/xlink" x="0px" y="0px"
	 width="24px" height="24px" viewBox="0 0 24 24" enable-background="new 0 0 24 24" xml:space="preserve">
<path fill="#555555" d="M23.4,11.2L12.7,0.3c-0.4-0.4-1-0.4-1.4,0L0.6,11.2C-0.2,12,0,12.8,0.1,13.1C0.2,13.3,0.6,14,1.7,14H3v9
	c0,0.6,0.6,1,1.2,1h4.9h5.9h4.9c0.5,0,1.2-0.4,1.2-1v-9h1.3c1.1,0,1.5-0.7,1.6-0.9C24,12.8,24.2,12,23.4,11.2z M10,22v-4h4v4H10z
	 M16,22v-5c0-0.6-0.5-1-1.1-1H9.1C8.5,16,8,16.4,8,17v5H5v-7.8c0,0,0.1,0,0.1,0l7-7l7,7V22H16z M19.8,12c-0.1,0-0.2,0-0.3,0.1
	l-6.8-7c-0.4-0.4-1-0.4-1.4,0l-6.8,7C4.4,12,4.3,12,4.2,12H2.6L12,2.4l9.4,9.6H19.8z"/>
</svg>
