<?xml version="1.0" encoding="utf-8"?>
<!-- Generator: Adobe Illustrator 18.1.1, SVG Export Plug-In . SVG Version: 6.00 Build 0)  -->
<!DOCTYPE svg PUBLIC "-//W3C//DTD SVG 1.1//EN" "http://www.w3.org/Graphics/SVG/1.1/DTD/svg11.dtd">
<svg version="1.1" id="Layer_1" xmlns="http://www.w3.org/2000/svg" xmlns:xlink="http://www.w3.org/1999/xlink" x="0px" y="0px"
	 width="24px" height="24px" viewBox="0 0 24 24" enable-background="new 0 0 24 24" xml:space="preserve">
<path fill="#555555" d="M23.6,10.2L12.7,0.3c-0.4-0.3-1-0.3-1.3,0L0.4,10.2c-0.4,0.4-0.4,1-0.1,1.4c0.4,0.4,1,0.4,1.4,0.1L2,11.4V23
	c0,0.6,0.4,1,1,1h18c0.6,0,1-0.4,1-1V11.4l0.3,0.2c0.2,0.2,0.4,0.3,0.7,0.3c0.3,0,0.5-0.1,0.7-0.3C24.1,11.2,24,10.6,23.6,10.2z
	 M20,10v12h-7v-4.2c0.3,0.1,0.6,0.2,1,0.2c0.8,0,1.6-0.3,2.1-0.9c2.3-2.4,1.9-5.1,1.9-5.2c-0.1-0.5-0.5-0.8-1-0.8
	c-1.8,0-3.2,0.3-4.2,0.9c-0.2-0.4-0.4-0.8-0.7-1.1C9.6,8.5,6.8,9,6.8,9C6.4,9.1,6,9.5,6,10c0,2.4,0.5,4,1.7,5.1
	C8.3,15.7,9.1,16,9.9,16c0.4,0,0.8-0.1,1.1-0.2c0,0.1,0,0.1,0,0.2v6H4V10c0-0.1,0-0.2-0.1-0.3L12,2.4l8.1,7.3C20,9.8,20,9.9,20,10z
	 M13.3,14.1c0.4-0.4,1.1-0.9,2.7-1c-0.1,0.7-0.4,1.7-1.3,2.7c-0.4,0.4-1,0.4-1.3,0C12.9,15.3,12.9,14.5,13.3,14.1z M11,13
	c0,0.2-0.1,0.5-0.3,0.7c-0.4,0.4-1.2,0.4-1.6,0c-0.4-0.4-0.9-1.1-1-2.7c0.7,0.1,1.7,0.4,2.7,1.3C10.9,12.5,11,12.8,11,13z"/>
</svg>
