<?xml version="1.0" encoding="utf-8"?>
<!-- Generator: Adobe Illustrator 18.1.1, SVG Export Plug-In . SVG Version: 6.00 Build 0)  -->
<!DOCTYPE svg PUBLIC "-//W3C//DTD SVG 1.1//EN" "http://www.w3.org/Graphics/SVG/1.1/DTD/svg11.dtd">
<svg version="1.1" id="Layer_1" xmlns="http://www.w3.org/2000/svg" xmlns:xlink="http://www.w3.org/1999/xlink" x="0px" y="0px"
	 width="24px" height="24px" viewBox="0 0 24 24" enable-background="new 0 0 24 24" xml:space="preserve">
<g>
	<path fill="#555555" d="M12,0C5.4,0,0,5.4,0,12s5.4,12,12,12s12-5.4,12-12S18.6,0,12,0z M12,21.9c-5.5,0-10-4.5-10-10
		C2,6.5,6.5,2,12,2c5.5,0,10,4.5,10,10C21.9,17.4,17.4,21.9,12,21.9z"/>
	<path fill="#555555" d="M12.5,6h-1C11.2,6,11,6.2,11,6.5v1C11,7.8,11.2,8,11.5,8h1C12.8,8,13,7.8,13,7.5v-1C13,6.2,12.8,6,12.5,6z"
		/>
	<path fill="#555555" d="M12.5,10h-1c-0.3,0-0.5,0.2-0.5,0.5v7c0,0.3,0.2,0.5,0.5,0.5h1c0.3,0,0.5-0.2,0.5-0.5v-7
		C13,10.2,12.8,10,12.5,10z"/>
</g>
</svg>
