<?xml version="1.0" encoding="utf-8"?>
<!-- Generator: Adobe Illustrator 18.1.1, SVG Export Plug-In . SVG Version: 6.00 Build 0)  -->
<!DOCTYPE svg PUBLIC "-//W3C//DTD SVG 1.1//EN" "http://www.w3.org/Graphics/SVG/1.1/DTD/svg11.dtd">
<svg version="1.1" id="Layer_1" xmlns="http://www.w3.org/2000/svg" xmlns:xlink="http://www.w3.org/1999/xlink" x="0px" y="0px"
	 width="24px" height="24px" viewBox="0 0 24 24" enable-background="new 0 0 24 24" xml:space="preserve">
<path fill="#555555" d="M23.2,6l-4.2-4C17.7,1,17.1,1,16.8,1H7C6.4,1,5.7,1.3,4.9,2.1L0.7,5.9c-0.9,0.8-1,2.3-0.3,3.2l10,13.2
	c0.4,0.5,1,0.8,1.6,0.8c0.6,0,1.2-0.3,1.5-0.8l10-13.2C24.2,8.2,24,6.8,23.2,6z M6.4,9l3.2,9.1L2.8,9H6.4z M12.9,3l2.2,4H8.7l2.2-4
	H12.9z M15.3,9l-3.3,9.5L8.6,9H15.3z M17.4,9h3.7l-6.9,9.1L17.4,9z M17.6,3.5L21.3,7h-3.8l-2.2-4h1.6C16.9,3,17.1,3.1,17.6,3.5z
	 M6.2,3.6C6.7,3.1,7,3,7,3l1.6,0L6.4,7h-4L6.2,3.6z"/>
</svg>
