<?xml version="1.0" encoding="utf-8"?>
<!-- Generator: Adobe Illustrator 18.1.1, SVG Export Plug-In . SVG Version: 6.00 Build 0)  -->
<!DOCTYPE svg PUBLIC "-//W3C//DTD SVG 1.1//EN" "http://www.w3.org/Graphics/SVG/1.1/DTD/svg11.dtd">
<svg version="1.1" id="Layer_1" xmlns="http://www.w3.org/2000/svg" xmlns:xlink="http://www.w3.org/1999/xlink" x="0px" y="0px"
	 width="25.8px" height="24.8px" viewBox="-293.9 384 25.8 24.8" enable-background="new -293.9 384 25.8 24.8"
	 xml:space="preserve">
<path fill="#555555" d="M-268,388c0-2.2-2.4-4-5.5-4c-2.8,0-5,1.4-5.4,3.3l-4.1,4.3l-0.3-0.3c-0.4-0.4-1-0.4-1.4,0l-8.4,8.4
	c-1,1-1,2.6,0,3.5l4.9,4.9c0.5,0.5,1.1,0.7,1.8,0.7c0.7,0,1.3-0.3,1.8-0.7l8.4-8.4c0.2-0.2,0.3-0.4,0.3-0.7s-0.1-0.5-0.3-0.7
	l-0.5-0.5l6.7-6.7c0,0,0,0,0-0.1C-268.8,390.4-268,389.3-268,388z M-273.5,386c2.1,0,3.5,1.1,3.5,2s-1.4,2-3.5,2s-3.5-1.1-3.5-2
	S-275.6,386-273.5,386z M-286.1,406.8c-0.1,0.1-0.3,0.1-0.4,0.1s-0.2,0-0.4-0.1l-4.9-4.9c-0.2-0.2-0.2-0.5,0-0.7l2-2l5.7,5.7
	L-286.1,406.8z M-282.7,403.3l-5.7-5.7l4.3-4.3l5.7,5.9L-282.7,403.3z M-281.6,393l3.1-3.3c0.9,1.3,2.7,2.2,4.8,2.3l-4.5,4.4
	L-281.6,393z"/>
</svg>
