<?xml version="1.0" encoding="utf-8"?>
<!-- Generator: Adobe Illustrator 18.1.1, SVG Export Plug-In . SVG Version: 6.00 Build 0)  -->
<!DOCTYPE svg PUBLIC "-//W3C//DTD SVG 1.1//EN" "http://www.w3.org/Graphics/SVG/1.1/DTD/svg11.dtd">
<svg version="1.1" id="Layer_1" xmlns="http://www.w3.org/2000/svg" xmlns:xlink="http://www.w3.org/1999/xlink" x="0px" y="0px"
	 width="24px" height="24px" viewBox="0 0 24 24" enable-background="new 0 0 24 24" xml:space="preserve">
<g>
	<path fill="#555555" d="M9,5h14c0.6,0,1-0.4,1-1s-0.4-1-1-1H9C8.4,3,8,3.4,8,4S8.4,5,9,5z"/>
	<path fill="#555555" d="M23,11H9c-0.6,0-1,0.4-1,1s0.4,1,1,1h14c0.6,0,1-0.4,1-1S23.6,11,23,11z"/>
	<path fill="#555555" d="M23,19H9c-0.6,0-1,0.4-1,1s0.4,1,1,1h14c0.6,0,1-0.4,1-1S23.6,19,23,19z"/>
	<path fill="#555555" d="M4,1H2C0.9,1,0,1.9,0,3v2c0,1.1,0.9,2,2,2h2c1.1,0,2-0.9,2-2V3C6,1.9,5.1,1,4,1z M2,5V3h2l0,2H2z"/>
	<path fill="#555555" d="M4,9H2c-1.1,0-2,0.9-2,2v2c0,1.1,0.9,2,2,2h2c1.1,0,2-0.9,2-2v-2C6,9.9,5.1,9,4,9z M2,13v-2h2l0,2H2z"/>
	<path fill="#555555" d="M4,17H2c-1.1,0-2,0.9-2,2v2c0,1.1,0.9,2,2,2h2c1.1,0,2-0.9,2-2v-2C6,17.9,5.1,17,4,17z M2,21v-2h2l0,2H2z"
		/>
</g>
</svg>
