<?xml version="1.0" encoding="utf-8"?>
<!-- Generator: Adobe Illustrator 18.1.1, SVG Export Plug-In . SVG Version: 6.00 Build 0)  -->
<!DOCTYPE svg PUBLIC "-//W3C//DTD SVG 1.1//EN" "http://www.w3.org/Graphics/SVG/1.1/DTD/svg11.dtd">
<svg version="1.1" id="Layer_1" xmlns="http://www.w3.org/2000/svg" xmlns:xlink="http://www.w3.org/1999/xlink" x="0px" y="0px"
	 width="24px" height="24px" viewBox="0 0 24 24" enable-background="new 0 0 24 24" xml:space="preserve">
<g>
	<path fill="#555555" d="M17.8,14.7c1.2-2,2.2-4.4,2.2-6.8C20,3.5,16.4,0,12,0S4,3.5,4,7.9c0,2.4,1,4.8,2.2,6.8
		C2.9,15.6,1,17.1,1,19c0,3.2,5.7,5,11,5s11-1.8,11-5C23,17.1,21.1,15.6,17.8,14.7z M12,2c3.3,0,6,2.7,6,5.9c0,2.4-1.3,4.9-2.7,6.9
		c0,0,0,0,0,0c-1.2,1.7-2.5,3.1-3.3,3.8c-0.8-0.7-2.1-2.1-3.3-3.8c0,0,0,0,0,0C7.3,12.8,6,10.3,6,7.9C6,4.7,8.7,2,12,2z M12,22
		c-5.5,0-9-1.8-9-3c0-0.8,1.6-1.9,4.4-2.5c1.8,2.5,3.8,4.1,3.9,4.3c0.2,0.2,0.4,0.2,0.7,0.2s0.5-0.1,0.7-0.2
		c0.2-0.1,2.1-1.8,3.9-4.3c2.9,0.6,4.4,1.7,4.4,2.5C21,20.2,17.5,22,12,22z"/>
	<path fill="#555555" d="M12,11c1.7,0,3-1.3,3-3s-1.3-3-3-3S9,6.3,9,8S10.3,11,12,11z M12,7c0.6,0,1,0.4,1,1s-0.4,1-1,1s-1-0.4-1-1
		S11.4,7,12,7z"/>
</g>
</svg>
