<?xml version="1.0" encoding="utf-8"?>
<!-- Generator: Adobe Illustrator 18.1.1, SVG Export Plug-In . SVG Version: 6.00 Build 0)  -->
<!DOCTYPE svg PUBLIC "-//W3C//DTD SVG 1.1//EN" "http://www.w3.org/Graphics/SVG/1.1/DTD/svg11.dtd">
<svg version="1.1" id="Layer_1" xmlns="http://www.w3.org/2000/svg" xmlns:xlink="http://www.w3.org/1999/xlink" x="0px" y="0px"
	 width="24px" height="24px" viewBox="0 0 24 24" enable-background="new 0 0 24 24" xml:space="preserve">
<g>
	<path fill="#555555" d="M12,0C7,0,3,4,3,9c0,7.4,8,14.5,8.3,14.8c0.2,0.2,0.4,0.2,0.7,0.2s0.5-0.1,0.7-0.2C13,23.5,21,16.4,21,9
		C21,4,17,0,12,0z M12,21.6C10.1,19.8,5,14.3,5,9c0-3.9,3.1-7,7-7s7,3.1,7,7C19,14.3,13.9,19.8,12,21.6z"/>
	<path fill="#555555" d="M12,5C9.8,5,8,6.8,8,9s1.8,4,4,4s4-1.8,4-4S14.2,5,12,5z M12,11c-1.1,0-2-0.9-2-2s0.9-2,2-2s2,0.9,2,2
		S13.1,11,12,11z"/>
</g>
</svg>
