<?xml version="1.0" encoding="utf-8"?>
<!-- Generator: Adobe Illustrator 18.1.1, SVG Export Plug-In . SVG Version: 6.00 Build 0)  -->
<!DOCTYPE svg PUBLIC "-//W3C//DTD SVG 1.1//EN" "http://www.w3.org/Graphics/SVG/1.1/DTD/svg11.dtd">
<svg version="1.1" id="Layer_1" xmlns="http://www.w3.org/2000/svg" xmlns:xlink="http://www.w3.org/1999/xlink" x="0px" y="0px"
	 width="24px" height="24px" viewBox="0 0 24 24" enable-background="new 0 0 24 24" xml:space="preserve">
<g>
	<path fill="#555555" d="M20.5,10H20l0-2c0-4.4-3.6-8-8-8S4,3.6,4,8v2H3.5C2.1,10,1,11.1,1,12.5v9C1,22.9,2.1,24,3.5,24h17
		c1.4,0,2.5-1.1,2.5-2.5v-9C23,11.1,21.9,10,20.5,10z M6,8c0-3.3,2.7-6,6-6c3.3,0,6,2.7,6,6l0,2H6V8z M21,21.5
		c0,0.3-0.2,0.5-0.5,0.5h-17C3.2,22,3,21.8,3,21.5v-9C3,12.2,3.2,12,3.5,12H5h14h1.5c0.3,0,0.5,0.2,0.5,0.5V21.5z"/>
	<path fill="#555555" d="M12,14c-1.1,0-2,0.9-2,2c0,0.7,0.4,1.4,1,1.7V19c0,0.6,0.4,1,1,1s1-0.4,1-1v-1.3c0.6-0.3,1-1,1-1.7
		C14,14.9,13.1,14,12,14z"/>
</g>
</svg>
