<?xml version="1.0" encoding="utf-8"?>
<!-- Generator: Adobe Illustrator 18.1.1, SVG Export Plug-In . SVG Version: 6.00 Build 0)  -->
<!DOCTYPE svg PUBLIC "-//W3C//DTD SVG 1.1//EN" "http://www.w3.org/Graphics/SVG/1.1/DTD/svg11.dtd">
<svg version="1.1" id="Layer_1" xmlns="http://www.w3.org/2000/svg" xmlns:xlink="http://www.w3.org/1999/xlink" x="0px" y="0px"
	 width="28px" height="28px" viewBox="-295.1 382.9 28 28" enable-background="new -295.1 382.9 28 28" xml:space="preserve">
<g>
	<rect x="-288" y="396" fill="#555555" width="2" height="3"/>
	<rect x="-284" y="396" fill="#555555" width="2" height="3"/>
	<rect x="-280" y="396" fill="#555555" width="2" height="3"/>
	<rect x="-276" y="396" fill="#555555" width="2" height="3"/>
	<path fill="#555555" d="M-267.2,392.3l-2.9-4.9c-0.2-0.2-0.5-0.4-0.9-0.4h-20c-0.4,0-0.7,0.2-0.9,0.5l-3,5c-0.2,0.3-0.2,0.7,0,1
		c0.2,0.3,0.5,0.5,0.9,0.5h1v12c0,0.6,0.4,1,1,1h5h4h4h4h5c0.6,0,1-0.4,1-1v-12h1l0,0c0.6,0,1-0.4,1-1
		C-267,392.7-267.1,392.5-267.2,392.3z M-290.4,389h18.9l1.8,3h-0.3h-22h-0.2L-290.4,389z M-286,405v-2h2v2H-286z M-278,405v-2h2v2
		H-278z M-271,405h-3v-3c0-0.6-0.4-1-1-1h-4c-0.6,0-1,0.4-1,1v3h-2v-3c0-0.6-0.4-1-1-1h-4c-0.6,0-1,0.4-1,1v3h-3v-11h20V405z"/>
</g>
</svg>
