<?xml version="1.0" encoding="utf-8"?>
<!-- Generator: Adobe Illustrator 18.1.1, SVG Export Plug-In . SVG Version: 6.00 Build 0)  -->
<!DOCTYPE svg PUBLIC "-//W3C//DTD SVG 1.1//EN" "http://www.w3.org/Graphics/SVG/1.1/DTD/svg11.dtd">
<svg version="1.1" id="Layer_1" xmlns="http://www.w3.org/2000/svg" xmlns:xlink="http://www.w3.org/1999/xlink" x="0px" y="0px"
	 width="24px" height="24px" viewBox="0 0 24 24" enable-background="new 0 0 24 24" xml:space="preserve">
<g>
	<rect x="9" y="7" fill="#555555" width="2" height="3"/>
	<rect x="5" y="7" fill="#555555" width="2" height="3"/>
	<rect x="18" y="11" fill="#555555" width="2" height="3"/>
	<rect x="18" y="16" fill="#555555" width="2" height="3"/>
	<rect x="5" y="12" fill="#555555" width="2" height="3"/>
	<rect x="9" y="12" fill="#555555" width="2" height="3"/>
	<path fill="#555555" d="M23,4h-7V1c0-0.6-0.4-1-1-1H1C0.4,0,0,0.4,0,1v3v19c0,0.6,0.4,1,1,1h5h4h5h8c0.6,0,1-0.4,1-1V8V5
		C24,4.4,23.6,4,23,4z M22,6v1h-6V6H22z M2,2h12v1H2V2z M2,5h12v3v14h-3v-4c0-0.6-0.4-1-1-1H6c-0.6,0-1,0.4-1,1v4H2V5z M7,22v-3h2v3
		H7z M16,22V9h6v13H16z"/>
</g>
</svg>
