<?xml version="1.0" encoding="utf-8"?>
<!-- Generator: Adobe Illustrator 18.1.1, SVG Export Plug-In . SVG Version: 6.00 Build 0)  -->
<!DOCTYPE svg PUBLIC "-//W3C//DTD SVG 1.1//EN" "http://www.w3.org/Graphics/SVG/1.1/DTD/svg11.dtd">
<svg version="1.1" id="Layer_1" xmlns="http://www.w3.org/2000/svg" xmlns:xlink="http://www.w3.org/1999/xlink" x="0px" y="0px"
	 width="24px" height="24px" viewBox="0 0 24 24" enable-background="new 0 0 24 24" xml:space="preserve">
<g>
	<rect x="5" y="8" fill="#555555" width="2" height="3"/>
	<rect x="9" y="8" fill="#555555" width="2" height="3"/>
	<rect x="5" y="13" fill="#555555" width="2" height="3"/>
	<rect x="9" y="13" fill="#555555" width="2" height="3"/>
	<path fill="#555555" d="M16,1c0-0.6-0.4-1-1-1H1C0.4,0,0,0.4,0,1v4c0,0.6,0.4,1,1,1v17c0,0.6,0.4,1,1,1h4h4h4c0.6,0,1-0.4,1-1V6
		c0.6,0,1-0.4,1-1V1z M2,2h12v2H2V2z M7,22v-2h2v2H7z M13,22h-2v-3c0-0.6-0.4-1-1-1H6c-0.6,0-1,0.4-1,1v3H3V6h10V22z"/>
	<path fill="#555555" d="M24,14c0-2.2-1.8-4-4-4s-4,1.8-4,4c0,1.9,1.3,3.4,3,3.9c0,0,0,0.1,0,0.1v5c0,0.6,0.4,1,1,1s1-0.4,1-1v-5
		c0,0,0-0.1,0-0.1C22.7,17.4,24,15.9,24,14z M20,16c-1.1,0-2-0.9-2-2s0.9-2,2-2s2,0.9,2,2S21.1,16,20,16z"/>
</g>
</svg>
