<?xml version="1.0" encoding="utf-8"?>
<!-- Generator: Adobe Illustrator 18.1.1, SVG Export Plug-In . SVG Version: 6.00 Build 0)  -->
<!DOCTYPE svg PUBLIC "-//W3C//DTD SVG 1.1//EN" "http://www.w3.org/Graphics/SVG/1.1/DTD/svg11.dtd">
<svg version="1.1" id="Layer_1" xmlns="http://www.w3.org/2000/svg" xmlns:xlink="http://www.w3.org/1999/xlink" x="0px" y="0px"
	 width="24px" height="24px" viewBox="0 0 24 24" enable-background="new 0 0 24 24" xml:space="preserve">
<path fill="#555555" d="M22.5,3.7l-6-3.6c0,0-0.1,0-0.1,0c0,0-0.1,0-0.1-0.1c0,0-0.1,0-0.1,0c0,0-0.1,0-0.1,0c0,0-0.1,0-0.1,0
	c0,0-0.1,0-0.1,0c0,0-0.1,0-0.1,0c0,0-0.1,0-0.1,0L8,3.9L2.4,0.5c0,0-0.1-0.1-0.1-0.1C2.1,0.4,1.8,0.3,1.6,0.3C0.7,0.3,0,1,0,2v16
	c0,0.9,0.6,1.9,1.5,2.3l6,3.6c0.1,0,0.1,0,0.2,0.1c0,0,0.1,0,0.1,0c0.1,0,0.2,0,0.3,0c0.1,0,0.3,0,0.4-0.1c0,0,0,0,0,0l7.5-3.8
	l5.6,3.3c0,0,0.1,0.1,0.1,0.1c0.2,0.1,0.5,0.1,0.7,0.1c0.9,0,1.6-0.7,1.6-1.7V6C24,5.1,23.4,4.1,22.5,3.7z M2.3,18.4
	C2.2,18.4,2,18.1,2,18V2.6l5,3v15.7l-4.6-2.7C2.4,18.5,2.3,18.5,2.3,18.4z M9,5.6l6-3v15.8l-6,3V5.6z M22,21.4l-5-3V2.8l4.6,2.7
	c0,0,0.1,0.1,0.1,0.1C21.8,5.6,22,5.9,22,6V21.4z"/>
</svg>
