<?xml version="1.0" encoding="utf-8"?>
<!-- Generator: Adobe Illustrator 18.1.1, SVG Export Plug-In . SVG Version: 6.00 Build 0)  -->
<!DOCTYPE svg PUBLIC "-//W3C//DTD SVG 1.1//EN" "http://www.w3.org/Graphics/SVG/1.1/DTD/svg11.dtd">
<svg version="1.1" id="Layer_1" xmlns="http://www.w3.org/2000/svg" xmlns:xlink="http://www.w3.org/1999/xlink" x="0px" y="0px"
	 width="24px" height="24px" viewBox="0 0 24 24" enable-background="new 0 0 24 24" xml:space="preserve">
<path fill="#555555" d="M22.2,1.8c-1.4-1.4-3.2-2-5.2-1.7c-2.3,0.4-4.3,2.2-4.9,4.5C12,5.2,12,5.9,12,6.5l-1.5,1.5L5.3,2.9
	c-0.7-0.7-1.9-0.7-2.6,0C2.2,3.4,2,4.2,2.2,4.8l2.6,7.7C2.1,13,0,15.4,0,18.2C0,21.4,2.6,24,5.8,24c2.8,0,5.2-2.1,5.7-4.8l7.7,2.6
	c0.2,0.1,0.4,0.1,0.7,0.1c0.5,0,1-0.2,1.3-0.6c0.3-0.3,0.5-0.8,0.5-1.3s-0.2-1-0.5-1.3l-5.2-5.2l1.5-1.5c0.7,0.1,1.3,0,2-0.2
	c2.3-0.6,4.2-2.6,4.5-4.9C24.2,5,23.6,3.1,22.2,1.8z M5.8,22C3.7,22,2,20.3,2,18.2c0-1.1,0.5-2.2,1.4-2.9c0,0.4,0.2,0.7,0.4,1.1
	c0,0.1,0.1,0.1,0.1,0.2l3.6,3.6c0,0,0.1,0.1,0.2,0.1c0.3,0.2,0.7,0.3,1.1,0.4C8,21.5,6.9,22,5.8,22z M11.4,17.1
	c-0.1,0-0.2-0.1-0.3-0.1c-0.3,0-0.6,0.1-0.8,0.3l-1.2,1.3c-0.1,0.1-0.3,0-0.4,0l-3.4-3.4c-0.1-0.1-0.1-0.3,0-0.4l1.3-1.2
	C7,13.4,7.1,13,6.9,12.6L4.3,4.7l14.9,14.9L11.4,17.1z M22,6.6c-0.2,1.5-1.5,2.8-3,3.2C18.5,10,18.1,10,17.6,10
	c-0.6-0.1-1.1,0.2-1.6,0.6l-1.6,1.5l-2.6-2.6l1.5-1.6c0.4-0.4,0.6-1,0.6-1.6c0-0.4,0-0.8,0.1-1.3c0.4-1.6,1.7-2.8,3.2-3
	c1.3-0.2,2.6,0.2,3.5,1.1C21.7,4.1,22.1,5.3,22,6.6z"/>
</svg>
