<?xml version="1.0" encoding="utf-8"?>
<!-- Generator: Adobe Illustrator 18.1.1, SVG Export Plug-In . SVG Version: 6.00 Build 0)  -->
<!DOCTYPE svg PUBLIC "-//W3C//DTD SVG 1.1//EN" "http://www.w3.org/Graphics/SVG/1.1/DTD/svg11.dtd">
<svg version="1.1" id="Layer_1" xmlns="http://www.w3.org/2000/svg" xmlns:xlink="http://www.w3.org/1999/xlink" x="0px" y="0px"
	 width="24px" height="24px" viewBox="0 0 24 24" enable-background="new 0 0 24 24" xml:space="preserve">
<path fill="#555555" d="M23.7,9.7c-0.4-0.4-1-0.4-1.4,0L11.9,20.3C10.8,21.4,9.3,22,7.8,22c-1.5,0-3-0.6-4.1-1.7
	c-2.3-2.3-2.3-6.1,0-8.4l8.4-8.6C12.9,2.4,13.9,2,15,2c1.1,0,2.1,0.4,2.9,1.2c1.6,1.6,1.6,4.3,0,6l-8.4,8.6
	c-0.5,0.5-1.1,0.7-1.7,0.7c-0.6,0-1.2-0.3-1.7-0.7c-0.9-1-0.9-2.5,0-3.5l8.4-8.6c0,0,0-0.1,0-0.1c0.3-0.2,0.7-0.2,0.9,0.1
	c0.3,0.3,0.3,0.8,0,1.1l-7.8,8c-0.4,0.4-0.4,1,0,1.4c0.2,0.2,0.4,0.3,0.7,0.3c0.3,0,0.5-0.1,0.7-0.3l7.8-8c1-1.1,1-2.8,0-3.9
	c-1-1-2.8-1.1-3.8,0c0,0-0.1,0.1-0.1,0.2l-8.3,8.5c-1.7,1.7-1.7,4.6,0,6.3c0.8,0.9,1.9,1.3,3.1,1.3h0c1.2,0,2.3-0.5,3.1-1.3l8.4-8.6
	c2.4-2.4,2.4-6.4,0-8.8C18.2,0.6,16.6,0,15,0c-1.6,0-3.2,0.6-4.3,1.8l-8.4,8.6c-3,3.1-3,8.1,0,11.2C3.8,23.2,5.7,24,7.8,24
	c2.1,0,4-0.8,5.5-2.3l10.4-10.6C24.1,10.7,24.1,10.1,23.7,9.7z"/>
</svg>
