<?xml version="1.0" encoding="utf-8"?>
<!-- Generator: Adobe Illustrator 18.1.1, SVG Export Plug-In . SVG Version: 6.00 Build 0)  -->
<!DOCTYPE svg PUBLIC "-//W3C//DTD SVG 1.1//EN" "http://www.w3.org/Graphics/SVG/1.1/DTD/svg11.dtd">
<svg version="1.1" id="Layer_1" xmlns="http://www.w3.org/2000/svg" xmlns:xlink="http://www.w3.org/1999/xlink" x="0px" y="0px"
	 width="24px" height="24px" viewBox="0 0 24 24" enable-background="new 0 0 24 24" xml:space="preserve">
<g>
	<path fill="#555555" d="M20.4,0h-5.6c-0.4-1.2-1.5-2-2.8-2S9.6-1.2,9.2,0H3.6C2.2,0,1,1.1,1,2.5v19C1,22.9,2.2,24,3.6,24h16.8
		c1.4,0,2.6-1.1,2.6-2.5v-19C23,1.1,21.8,0,20.4,0z M12,0c0.6,0,1,0.4,1,1c0,2.4,1.9,3,3,3.4c0.8,0.3,1,0.4,1,0.6H7
		c0-0.2,0.2-0.3,1-0.6C9.1,4,11,3.4,11,1C11,0.4,11.4,0,12,0z M21,21.5c0,0.3-0.3,0.5-0.6,0.5H3.6C3.3,22,3,21.8,3,21.5v-19
		C3,2.2,3.3,2,3.6,2h4.9C8.3,2.2,7.9,2.4,7.4,2.5C6.4,2.9,5,3.4,5,5v1c0,0.6,0.4,1,1,1h12c0.6,0,1-0.4,1-1V5c0-1.6-1.4-2.1-2.4-2.5
		c-0.5-0.2-0.9-0.4-1.2-0.5h4.9C20.7,2,21,2.2,21,2.5V21.5z"/>
	<path fill="#555555" d="M16,13h-3v-3c0-0.6-0.4-1-1-1s-1,0.4-1,1v3H8c-0.6,0-1,0.4-1,1s0.4,1,1,1h3v3c0,0.6,0.4,1,1,1s1-0.4,1-1v-3
		h3c0.6,0,1-0.4,1-1S16.6,13,16,13z"/>
</g>
</svg>
