<?xml version="1.0" encoding="utf-8"?>
<!-- Generator: Adobe Illustrator 18.1.1, SVG Export Plug-In . SVG Version: 6.00 Build 0)  -->
<!DOCTYPE svg PUBLIC "-//W3C//DTD SVG 1.1//EN" "http://www.w3.org/Graphics/SVG/1.1/DTD/svg11.dtd">
<svg version="1.1" id="Layer_1" xmlns="http://www.w3.org/2000/svg" xmlns:xlink="http://www.w3.org/1999/xlink" x="0px" y="0px"
	 width="24px" height="24px" viewBox="0 0 24 24" enable-background="new 0 0 24 24" xml:space="preserve">
<g>
	<path fill="#555555" d="M14.7,8c0.3,0.1,0.5,0.1,0.8,0.1c1.6,0,3.1-1.3,3.5-3.2c0.5-2.2-0.5-4.3-2.3-4.8C16.4,0,16.1,0,15.9,0
		c-1.6,0-3.1,1.3-3.5,3.2C11.8,5.4,12.8,7.5,14.7,8z M14.3,3.6C14.5,2.7,15.2,2,15.9,2c0.1,0,0.2,0,0.2,0c0.8,0.2,1.2,1.3,0.9,2.4
		c-0.3,1-1.1,1.8-1.8,1.6C14.5,5.8,14,4.7,14.3,3.6z"/>
	<path fill="#555555" d="M5.6,12.7c1.5-1.1,1.8-3.3,0.6-5.1C5.5,6.5,4.3,5.8,3.1,5.8C2.5,5.8,1.9,6,1.4,6.3
		c-1.5,1.1-1.8,3.3-0.6,5.1c0.7,1.2,1.9,1.9,3.1,1.9C4.5,13.2,5.1,13.1,5.6,12.7z M2.4,10.3C1.9,9.4,2,8.4,2.6,7.9
		c0.2-0.1,0.3-0.2,0.5-0.2c0.5,0,1.1,0.4,1.5,0.9c0.5,0.9,0.5,1.9-0.1,2.4c-0.2,0.1-0.3,0.2-0.5,0.2C3.4,11.2,2.8,10.9,2.4,10.3z"/>
	<path fill="#555555" d="M8.6,8.1c0.3,0,0.5,0,0.8-0.1c1.8-0.5,2.8-2.6,2.3-4.8C11.2,1.3,9.8,0,8.2,0C7.9,0,7.7,0,7.4,0.1
		C5.6,0.6,4.6,2.7,5.1,4.9C5.6,6.8,7,8.1,8.6,8.1z M8,2C8,2,8.1,2,8.2,2c0.7,0,1.3,0.7,1.6,1.6C10,4.7,9.6,5.8,8.9,6
		C8.1,6.2,7.3,5.5,7.1,4.4C6.8,3.3,7.2,2.2,8,2z"/>
	<path fill="#555555" d="M22.6,6.3c-0.5-0.3-1.1-0.5-1.7-0.5c-1.2,0-2.4,0.7-3.1,1.9c-1.1,1.8-0.9,4,0.6,5.1
		c0.5,0.3,1.1,0.5,1.7,0.5c1.2,0,2.4-0.7,3.1-1.9C24.4,9.6,24.1,7.4,22.6,6.3z M21.6,10.3c-0.5,0.8-1.4,1.2-2,0.8
		c-0.6-0.4-0.7-1.5-0.1-2.4c0.4-0.6,0.9-0.9,1.5-0.9c0.2,0,0.4,0.1,0.5,0.2C22,8.4,22.1,9.4,21.6,10.3z"/>
	<path fill="#555555" d="M17.8,13.5c-0.2-0.3-0.4-0.6-0.6-1C16.3,11.1,15,9,12.1,9H12c-2.9,0-4.2,2.1-5,3.4
		c-0.2,0.4-0.4,0.7-0.6,0.9c-0.3,0.4-0.7,0.9-1.1,1.3c-1.7,1.8-3.7,4.1-2,7.2C4,23.2,5.2,24,6.7,24c0.9,0,1.8-0.2,2.7-0.5
		c0.9-0.2,1.8-0.5,2.6-0.5h0.1c0.8,0,1.7,0.2,2.6,0.4c0.9,0.2,1.8,0.4,2.7,0.4c1.6,0,2.7-0.7,3.5-2.2c1.7-3-0.3-5.2-1.9-6.9
		C18.5,14.4,18.1,13.9,17.8,13.5z M19.1,20.7c-0.5,1-1.1,1.1-1.8,1.1c-0.6,0-1.4-0.2-2.2-0.4c-1-0.2-2-0.5-3.1-0.5H12
		c-1.1,0-2.2,0.3-3.1,0.5C8.1,21.8,7.3,22,6.7,22C6,22,5.5,21.8,5,20.9c-1-1.7,0-2.9,1.8-4.9c0.4-0.5,0.8-0.9,1.2-1.4
		c0.3-0.3,0.5-0.7,0.8-1.1C9.5,12.2,10.2,11,12,11h0.1c1.7,0,2.4,1,3.3,2.5c0.3,0.4,0.5,0.8,0.8,1.2c0.4,0.5,0.9,1,1.3,1.5
		C19.2,18,20.1,19.1,19.1,20.7z"/>
</g>
</svg>
