<?xml version="1.0" encoding="utf-8"?>
<!-- Generator: Adobe Illustrator 18.1.1, SVG Export Plug-In . SVG Version: 6.00 Build 0)  -->
<!DOCTYPE svg PUBLIC "-//W3C//DTD SVG 1.1//EN" "http://www.w3.org/Graphics/SVG/1.1/DTD/svg11.dtd">
<svg version="1.1" id="Layer_1" xmlns="http://www.w3.org/2000/svg" xmlns:xlink="http://www.w3.org/1999/xlink" x="0px" y="0px"
	 width="24px" height="24px" viewBox="0 0 24 24" enable-background="new 0 0 24 24" xml:space="preserve">
<g>
	<path fill="#555555" d="M16.5,0h-10C5.1,0,4,1.1,4,2.5v19C4,22.9,5.1,24,6.5,24h10c1.4,0,2.5-1.1,2.5-2.5v-19C19,1.1,17.9,0,16.5,0
		z M6,6h11v9H6V6z M6,2.5C6,2.2,6.2,2,6.5,2h10C16.8,2,17,2.2,17,2.5V4H6V2.5z M16.5,22h-10C6.2,22,6,21.8,6,21.5V17h11v4.5
		C17,21.8,16.8,22,16.5,22z"/>
	<circle fill="#555555" cx="11.5" cy="19.5" r="1.5"/>
</g>
</svg>
