<?xml version="1.0" encoding="utf-8"?>
<!-- Generator: Adobe Illustrator 18.1.1, SVG Export Plug-In . SVG Version: 6.00 Build 0)  -->
<!DOCTYPE svg PUBLIC "-//W3C//DTD SVG 1.1//EN" "http://www.w3.org/Graphics/SVG/1.1/DTD/svg11.dtd">
<svg version="1.1" id="Layer_1" xmlns="http://www.w3.org/2000/svg" xmlns:xlink="http://www.w3.org/1999/xlink" x="0px" y="0px"
	 width="24px" height="24px" viewBox="0 0 24 24" enable-background="new 0 0 24 24" xml:space="preserve">
<path fill="#555555" d="M22,6h-2V4h2c0.6,0,1-0.4,1-1s-0.4-1-1-1h-2V1c0-0.6-0.4-1-1-1h-3c-2.4,0-4.4,1.7-4.9,4H7.5
	C4.4,4,2,6.4,2,9.5c0,3,2.4,5.5,5.5,5.5h7.1c1.9,0,3.5,1.5,3.5,3.5c0,1.9-1.5,3.5-3.5,3.5H3c-0.6,0-1,0.4-1,1s0.4,1,1,1h11.5
	c3,0,5.5-2.4,5.5-5.5c0-3-2.4-5.5-5.5-5.5H7.5C5.5,13,4,11.5,4,9.5C4,7.5,5.5,6,7.5,6h3.6c0.4,2.3,2.5,4,4.9,4h3c0.6,0,1-0.4,1-1V8
	h2c0.6,0,1-0.4,1-1S22.6,6,22,6z M18,8h-2c-1.6,0-3-1.3-3-3c0-1.6,1.3-3,3-3h2V8z"/>
</svg>
