<?xml version="1.0" encoding="utf-8"?>
<!-- Generator: Adobe Illustrator 18.1.1, SVG Export Plug-In . SVG Version: 6.00 Build 0)  -->
<!DOCTYPE svg PUBLIC "-//W3C//DTD SVG 1.1//EN" "http://www.w3.org/Graphics/SVG/1.1/DTD/svg11.dtd">
<svg version="1.1" id="Layer_1" xmlns="http://www.w3.org/2000/svg" xmlns:xlink="http://www.w3.org/1999/xlink" x="0px" y="0px"
	 width="24px" height="24px" viewBox="0 0 24 24" enable-background="new 0 0 24 24" xml:space="preserve">
<g>
	<circle fill="#555555" cx="4.5" cy="10.5" r="1.5"/>
	<path fill="#555555" d="M21.5,6H19V1c0-0.6-0.4-1-1-1H6C5.4,0,5,0.4,5,1v5H2.5C1.1,6,0,7.1,0,8.5v9C0,18.9,1.1,20,2.5,20H5v3
		c0,0.6,0.4,1,1,1h12c0.6,0,1-0.4,1-1v-3h2.5c1.4,0,2.5-1.1,2.5-2.5v-9C24,7.1,22.9,6,21.5,6z M7,2h10v4H7V2z M17,22H7v-7h10V22z
		 M22,17.5c0,0.3-0.2,0.5-0.5,0.5H19v-3h1c0.6,0,1-0.4,1-1s-0.4-1-1-1h-2H6H4c-0.6,0-1,0.4-1,1s0.4,1,1,1h1v3H2.5
		C2.2,18,2,17.8,2,17.5v-9C2,8.2,2.2,8,2.5,8H6h12h3.5C21.8,8,22,8.2,22,8.5V17.5z"/>
</g>
</svg>
