<?xml version="1.0" encoding="utf-8"?>
<!-- Generator: Adobe Illustrator 18.1.1, SVG Export Plug-In . SVG Version: 6.00 Build 0)  -->
<!DOCTYPE svg PUBLIC "-//W3C//DTD SVG 1.1//EN" "http://www.w3.org/Graphics/SVG/1.1/DTD/svg11.dtd">
<svg version="1.1" id="Layer_1" xmlns="http://www.w3.org/2000/svg" xmlns:xlink="http://www.w3.org/1999/xlink" x="0px" y="0px"
	 width="16px" height="16px" viewBox="0 0 16 16" enable-background="new 0 0 16 16" xml:space="preserve">
<path fill="#F46D36" d="M16,3c0-1.7-1.3-3-3-3H3C1.3,0,0,1.3,0,3v10c0,1.7,1.3,3,3,3h10c1.7,0,3-1.3,3-3V3z M13,9.5
	c0,0.3-0.2,0.6-0.5,0.6c-0.3,0-0.5-0.3-0.5-0.6V4.9l-8.5,8.4c-0.2,0.2-0.7,0.2-0.9,0c-0.2-0.2-0.2-0.6,0-0.9L11.1,4H6.5
	C6.2,4,5.9,3.8,5.9,3.5S6.2,3,6.5,3h6c0.2,0,0.3,0,0.4,0.1S13,3.3,13,3.5V9.5z"/>
</svg>
