<?xml version="1.0" encoding="utf-8"?>
<!-- Generator: Adobe Illustrator 18.1.1, SVG Export Plug-In . SVG Version: 6.00 Build 0)  -->
<!DOCTYPE svg PUBLIC "-//W3C//DTD SVG 1.1//EN" "http://www.w3.org/Graphics/SVG/1.1/DTD/svg11.dtd">
<svg version="1.1" id="Layer_1" xmlns="http://www.w3.org/2000/svg" xmlns:xlink="http://www.w3.org/1999/xlink" x="0px" y="0px"
	 width="24px" height="24px" viewBox="-293 385 24 24" enable-background="new -293 385 24 24" xml:space="preserve">
<path fill="#555555" d="M-293,393.6c0,4.7,3.8,8.5,8.5,8.5c1.2,0,2.2-0.2,3.2-0.6l6.6,6.6c0.7,0.6,1.5,1,2.4,1c0.9,0,1.8-0.4,2.4-1
	c0.6-0.7,1-1.5,1-2.4c0-0.9-0.4-1.8-1-2.4l-6.6-6.6c0.4-1,0.6-2.1,0.6-3.2c0-4.7-3.8-8.5-8.5-8.5C-289.1,385-293,388.9-293,393.6z
	 M-279.4,400.4c0.7-0.6,1.3-1.2,1.9-1.8l0,0l6.2,6.2c0.3,0.2,0.4,0.5,0.4,0.9c0,0.3-0.1,0.6-0.4,0.9c-0.5,0.5-1.4,0.5-1.9,0
	L-279.4,400.4C-279.4,400.4-279.4,400.3-279.4,400.4z M-290.9,393.5c0-3.6,2.9-6.5,6.5-6.5s6.5,2.9,6.5,6.5c0,0.9-0.2,1.7-0.5,2.5
	l-0.2,0.4c-0.2,0.3-0.3,0.6-0.6,1l0,0c-0.4,0.5-0.9,1-1.4,1.4l0,0c-0.3,0.2-0.6,0.3-0.9,0.5l-0.4,0.2c-0.8,0.3-1.6,0.5-2.5,0.5
	C-288,400-290.9,397.1-290.9,393.5z"/>
</svg>
