<?xml version="1.0" encoding="utf-8"?>
<!-- Generator: Adobe Illustrator 18.1.1, SVG Export Plug-In . SVG Version: 6.00 Build 0)  -->
<!DOCTYPE svg PUBLIC "-//W3C//DTD SVG 1.1//EN" "http://www.w3.org/Graphics/SVG/1.1/DTD/svg11.dtd">
<svg version="1.1" id="Layer_1" xmlns="http://www.w3.org/2000/svg" xmlns:xlink="http://www.w3.org/1999/xlink" x="0px" y="0px"
	 width="24px" height="24px" viewBox="0 0 24 24" enable-background="new 0 0 24 24" xml:space="preserve">
<g>
	<path fill="#555555" d="M18.5,8H16c-0.6,0-1,0.4-1,1s0.4,1,1,1h2.5c0.3,0,0.5,0.2,0.5,0.5v11c0,0.3-0.2,0.5-0.5,0.5h-13
		C5.2,22,5,21.8,5,21.5v-11C5,10.2,5.2,10,5.5,10H8c0.6,0,1-0.4,1-1S8.6,8,8,8H5.5C4.1,8,3,9.1,3,10.5v11C3,22.9,4.1,24,5.5,24h13
		c1.4,0,2.5-1.1,2.5-2.5v-11C21,9.1,19.9,8,18.5,8z"/>
	<path fill="#555555" d="M8.7,5.7L11,3.4V14c0,0.6,0.4,1,1,1c0.6,0,1-0.4,1-1V3.4l2.3,2.3c0.4,0.4,1,0.4,1.4,0c0.4-0.4,0.4-1,0-1.4
		l-4-4C12.5,0.1,12.3,0,12,0c-0.3,0-0.5,0.1-0.7,0.3l-4,4c-0.4,0.4-0.4,1,0,1.4C7.7,6.1,8.3,6.1,8.7,5.7z"/>
</g>
</svg>
