<?xml version="1.0" encoding="utf-8"?>
<!-- Generator: Adobe Illustrator 18.1.1, SVG Export Plug-In . SVG Version: 6.00 Build 0)  -->
<!DOCTYPE svg PUBLIC "-//W3C//DTD SVG 1.1//EN" "http://www.w3.org/Graphics/SVG/1.1/DTD/svg11.dtd">
<svg version="1.1" id="Layer_1" xmlns="http://www.w3.org/2000/svg" xmlns:xlink="http://www.w3.org/1999/xlink" x="0px" y="0px"
	 width="28px" height="28px" viewBox="-295 383 28 28" enable-background="new -295 383 28 28" xml:space="preserve">
<g>
	<path fill="#555555" d="M-275,409h-12c-0.6,0-1-0.4-1-1v-12l-2.4,1.8c-0.4,0.3-1.1,0.2-1.4-0.2l-3-4c-0.3-0.4-0.3-1,0.1-1.4l8-7
		c0.2-0.1,0.5-0.2,0.7-0.2h1.5h0.1c0.2,0,0.3,0.1,0.4,0.1c0.1,0.1,0.2,0.2,0.3,0.3c0,0,0,0.1,0.1,0.1c0.5,0.9,1.5,1.5,2.6,1.5
		c1.1,0,2.1-0.6,2.6-1.5c0.2-0.3,0.5-0.5,0.9-0.5h1.5c0.2,0,0.5,0.1,0.7,0.2l8,7c0.4,0.3,0.5,0.9,0.1,1.4l-3,4
		c-0.3,0.4-1,0.5-1.4,0.2l-2.4-1.8v12C-274,408.6-274.4,409-275,409z M-286,407h10v-13c0-0.4,0.2-0.7,0.6-0.9c0.3-0.2,0.7-0.1,1,0.1
		l3.2,2.4l1.8-2.5l-7-6.1h-0.6c-0.9,1.2-2.4,2-4,2c-1.6,0-3.1-0.8-4-2h-0.6l-7,6.1l1.8,2.5l3.2-2.4c0.3-0.2,0.7-0.3,1-0.1
		c0.4,0.2,0.6,0.5,0.6,0.9V407z"/>
</g>
</svg>
