<?xml version="1.0" encoding="utf-8"?>
<!-- Generator: Adobe Illustrator 18.1.1, SVG Export Plug-In . SVG Version: 6.00 Build 0)  -->
<!DOCTYPE svg PUBLIC "-//W3C//DTD SVG 1.1//EN" "http://www.w3.org/Graphics/SVG/1.1/DTD/svg11.dtd">
<svg version="1.1" id="Layer_1" xmlns="http://www.w3.org/2000/svg" xmlns:xlink="http://www.w3.org/1999/xlink" x="0px" y="0px"
	 width="25.9px" height="25.9px" viewBox="-293.9 384.1 25.9 25.9" enable-background="new -293.9 384.1 25.9 25.9"
	 xml:space="preserve">
<path fill="#555555" d="M-273,394h-4.2c-0.3,0-0.5-0.1-0.7-0.3c0,0,0,0-0.1-0.1l-5.4-4.4c-0.2-0.1-0.4-0.2-0.7-0.2
	c-0.3,0-0.5,0.2-0.7,0.4c-0.8,1-2,1.6-3.2,1.6s-2.4-0.6-3.2-1.6c-0.2-0.3-0.5-0.4-0.8-0.4c-1.1,0-2,0.9-2,2v10v1.5
	c0,1.4,1.1,2.5,2.5,2.5h21c1.4,0,2.5-1.1,2.5-2.5V401v-2C-268,396.2-270.2,394-273,394z M-288,393c1.5,0,3-0.6,4.1-1.6l0.6,0.5
	l-1.4,1.4c-0.4,0.4-0.4,1,0,1.4c0.2,0.2,0.4,0.3,0.7,0.3s0.5-0.1,0.7-0.3l1.6-1.6l0.6,0.5l-1.6,1.6c-0.4,0.4-0.4,1,0,1.4
	c0.2,0.2,0.5,0.3,0.7,0.3s0.5-0.1,0.7-0.3l1.8-1.8l0.3,0.2c0.6,0.5,1.3,0.8,2.1,0.8h4.1c1.7,0,3,1.3,3,3v1h-22v-8.3
	C-290.9,392.4-289.5,393-288,393z M-270,402.5c0,0.3-0.2,0.5-0.5,0.5h-21c-0.3,0-0.5-0.2-0.5-0.5V402h22V402.5z"/>
</svg>
