<?xml version="1.0" encoding="utf-8"?>
<!-- Generator: Adobe Illustrator 18.1.1, SVG Export Plug-In . SVG Version: 6.00 Build 0)  -->
<!DOCTYPE svg PUBLIC "-//W3C//DTD SVG 1.1//EN" "http://www.w3.org/Graphics/SVG/1.1/DTD/svg11.dtd">
<svg version="1.1" id="Layer_1" xmlns="http://www.w3.org/2000/svg" xmlns:xlink="http://www.w3.org/1999/xlink" x="0px" y="0px"
	 width="24px" height="24px" viewBox="0 0 24 24" enable-background="new 0 0 24 24" xml:space="preserve">
<g>
	<path fill="#555555" d="M18.8,24c-0.2,0-0.3,0-0.5-0.1L12,20.4l-6.3,3.5c-0.3,0.2-0.7,0.2-1.1-0.1c-0.3-0.2-0.5-0.6-0.4-1l1.2-7.5
		l-5.1-5.3C0,9.8-0.1,9.4,0.1,9.1s0.4-0.6,0.8-0.7l7.1-1.1l3.2-6.8C11.3,0.2,11.6,0,12,0s0.7,0.2,0.9,0.6l3.2,6.8l7.1,1.1
		c0.4,0.1,0.7,0.3,0.8,0.7s0,0.7-0.2,1l-5.1,5.3l1.2,7.5c0.1,0.4-0.1,0.8-0.4,1C19.2,23.9,19,24,18.8,24z M12,18.2
		c0.2,0,0.3,0,0.5,0.1l5,2.8l-1-5.9c-0.1-0.3,0-0.6,0.3-0.9l4.1-4.2l-5.7-0.9c-0.3-0.1-0.6-0.3-0.8-0.6L12,3.4L9.5,8.7
		C9.4,9,9.1,9.2,8.8,9.2l-5.7,0.9l4.1,4.2c0.2,0.2,0.3,0.5,0.3,0.9l-1,5.9l5-2.8C11.7,18.3,11.8,18.2,12,18.2z"/>
</g>
</svg>
