<?xml version="1.0" encoding="utf-8"?>
<!-- Generator: Adobe Illustrator 18.1.1, SVG Export Plug-In . SVG Version: 6.00 Build 0)  -->
<!DOCTYPE svg PUBLIC "-//W3C//DTD SVG 1.1//EN" "http://www.w3.org/Graphics/SVG/1.1/DTD/svg11.dtd">
<svg version="1.1" id="Layer_1" xmlns="http://www.w3.org/2000/svg" xmlns:xlink="http://www.w3.org/1999/xlink" x="0px" y="0px"
	 width="24px" height="24px" viewBox="-293 385 24 24" enable-background="new -293 385 24 24" xml:space="preserve">
<path fill="#555555" d="M-274.2,409c-0.2,0-0.3,0-0.5-0.1l-6.3-3.5l-6.3,3.5c-0.3,0.2-0.7,0.2-1.1-0.1c-0.3-0.2-0.5-0.6-0.4-1
	l1.2-7.5l-5.1-5.3c-0.3-0.2-0.4-0.6-0.2-0.9c0.2-0.3,0.4-0.6,0.8-0.7l7.1-1.1l3.2-6.8c0.1-0.3,0.4-0.5,0.8-0.5s0.7,0.2,0.9,0.6
	l3.2,6.8l7.1,1.1c0.4,0.1,0.7,0.3,0.8,0.7c0.1,0.4,0,0.7-0.2,1l-5.1,5.3l1.2,7.5c0.1,0.4-0.1,0.8-0.4,1
	C-273.8,408.9-274,409-274.2,409z"/>
</svg>
