<?xml version="1.0" encoding="utf-8"?>
<!-- Generator: Adobe Illustrator 18.1.1, SVG Export Plug-In . SVG Version: 6.00 Build 0)  -->
<!DOCTYPE svg PUBLIC "-//W3C//DTD SVG 1.1//EN" "http://www.w3.org/Graphics/SVG/1.1/DTD/svg11.dtd">
<svg version="1.1" id="Layer_1" xmlns="http://www.w3.org/2000/svg" xmlns:xlink="http://www.w3.org/1999/xlink" x="0px" y="0px"
	 width="24px" height="24px" viewBox="0 0 24 24" enable-background="new 0 0 24 24" xml:space="preserve">
<g>
	<path fill="#555555" d="M24,8.9V8.1c0-0.2,0-0.7-0.6-1.8l-2.9-5.2c-0.4-0.6-1.2-1.1-2-1.1H5.6C4.8,0,4,0.5,3.6,1.1l-3,5.2
		C0,7.4,0,8,0,8.1v0.7c0,1.3,0.8,2.4,2,2.9V22H1c-0.6,0-1,0.4-1,1s0.4,1,1,1h6h4h12c0.6,0,1-0.4,1-1s-0.4-1-1-1h-1V11.7
		C23.2,11.2,24,10.1,24,8.9z M2,8.2c0-0.1,0.1-0.4,0.4-0.8l3-5.2c0,0,0.1-0.1,0.2-0.1h12.8c0.1,0,0.2,0.1,0.3,0.1l2.9,5.2
		C21.9,7.8,22,8.1,22,8.1v0.7c0,0.6-0.6,1.1-1.3,1.1s-1.3-0.5-1.3-1.1c0-0.6-0.4-1-1-1s-1,0.4-1,1c0,0.6-0.5,1.1-1.1,1.1
		s-1.1-0.5-1.1-1.1c0-0.6-0.4-1-1-1s-1,0.4-1,1c0,0.6-0.5,1.1-1.1,1.1c-0.6,0-1.2-0.5-1.2-1.1c0-0.6-0.4-1-1-1s-1,0.4-1,1
		c0,0.6-0.5,1.1-1.2,1.1C7,10,6.5,9.5,6.5,8.9c0-0.6-0.4-1-1-1s-1,0.4-1,1c0,0.6-0.6,1.1-1.2,1.1C2.6,10,2,9.5,2,8.9V8.2z M8,22v-5
		h2v5H8z M12,22v-6c0-0.6-0.4-1-1-1H7c-0.6,0-1,0.4-1,1v6H4V11.9c0.6-0.1,1.1-0.4,1.5-0.8C6.1,11.7,6.8,12,7.7,12
		c0.8,0,1.6-0.3,2.2-0.8c0.6,0.5,1.3,0.8,2.2,0.8c0.8,0,1.6-0.3,2.1-0.8c0.6,0.5,1.3,0.8,2.1,0.8c0.8,0,1.6-0.3,2.2-0.9
		c0.4,0.4,1,0.7,1.5,0.8V22H12z"/>
	<path fill="#555555" d="M17,15h-2c-0.6,0-1,0.4-1,1v2c0,0.6,0.4,1,1,1h2c0.6,0,1-0.4,1-1v-2C18,15.4,17.6,15,17,15z"/>
</g>
</svg>
