<?xml version="1.0" encoding="utf-8"?>
<!-- Generator: Adobe Illustrator 18.1.1, SVG Export Plug-In . SVG Version: 6.00 Build 0)  -->
<!DOCTYPE svg PUBLIC "-//W3C//DTD SVG 1.1//EN" "http://www.w3.org/Graphics/SVG/1.1/DTD/svg11.dtd">
<svg version="1.1" id="Layer_1" xmlns="http://www.w3.org/2000/svg" xmlns:xlink="http://www.w3.org/1999/xlink" x="0px" y="0px"
	 width="24px" height="24px" viewBox="0 0 24 24" enable-background="new 0 0 24 24" xml:space="preserve">
<g>
	<path fill="#555555" d="M24,10.7V2.5C24,1.1,22.9,0,21.5,0h-8.1c-0.7,0-1.3,0.3-1.8,0.7L0.7,11.6c-1,1-1,2.6,0,3.6l8.1,8.1
		C9.3,23.7,10,24,10.7,24c0.7,0,1.3-0.3,1.8-0.7l10.8-10.8C23.7,12,24,11.3,24,10.7z M22,10.7c0,0.1-0.1,0.3-0.2,0.4L11,21.8
		c-0.2,0.2-0.6,0.2-0.8,0l-8.1-8.1c-0.2-0.2-0.2-0.6,0-0.8L13,2.2C13.1,2.1,13.2,2,13.3,2h8.1C21.8,2,22,2.2,22,2.5V10.7z"/>
	<circle fill="#555555" cx="17" cy="7" r="2"/>
	<path fill="#555555" d="M24,20h-2v-2c0-0.6-0.4-1-1-1s-1,0.4-1,1v2h-2c-0.6,0-1,0.4-1,1s0.4,1,1,1h2v2c0,0.6,0.4,1,1,1s1-0.4,1-1
		v-2h2c0.6,0,1-0.4,1-1S24.6,20,24,20z"/>
</g>
</svg>
