<?xml version="1.0" encoding="utf-8"?>
<!-- Generator: Adobe Illustrator 18.1.1, SVG Export Plug-In . SVG Version: 6.00 Build 0)  -->
<!DOCTYPE svg PUBLIC "-//W3C//DTD SVG 1.1//EN" "http://www.w3.org/Graphics/SVG/1.1/DTD/svg11.dtd">
<svg version="1.1" id="Layer_1" xmlns="http://www.w3.org/2000/svg" xmlns:xlink="http://www.w3.org/1999/xlink" x="0px" y="0px"
	 width="24px" height="24px" viewBox="0 0 24 24" enable-background="new 0 0 24 24" xml:space="preserve">
<path fill="#555555" d="M20.6,0h-9.1C8.9,0,7.3,0.7,6.3,1.4C6,1.1,5.6,1,5.2,1H1.8C0.8,1,0,1.8,0,2.8v10.5c0,1,0.8,1.8,1.8,1.8h3.5
	c0.3,0,0.6-0.1,0.9-0.3c0.4,0.3,1,0.5,1.7,0.7c1.3,0.3,2.1,2.8,2.2,6.7c0,1.1,0.9,1.9,2,1.9h1.6c1.7,0,3.4-1.3,3.4-3.5V16h3.6
	c2,0,3.4-2,3.4-3.8V3.4C24,1.5,22.5,0,20.6,0z M2,13V3h3v10H2z M22,12.2c0,0.9-0.7,1.8-1.4,1.8h-3.9c-1.1,0-1.7,0.6-1.7,1.7v4.8
	c0,1.1-0.9,1.5-1.4,1.5L12,22c-0.1-3.6-0.8-7.9-3.8-8.5C7.3,13.3,7.1,13,7,12.9V3.4C7.4,2.9,8.7,2,11.4,2h9.1C21.4,2,22,2.6,22,3.4
	V12.2z"/>
</svg>
