<?xml version="1.0" encoding="utf-8"?>
<!-- Generator: Adobe Illustrator 18.1.1, SVG Export Plug-In . SVG Version: 6.00 Build 0)  -->
<!DOCTYPE svg PUBLIC "-//W3C//DTD SVG 1.1//EN" "http://www.w3.org/Graphics/SVG/1.1/DTD/svg11.dtd">
<svg version="1.1" id="Layer_1" xmlns="http://www.w3.org/2000/svg" xmlns:xlink="http://www.w3.org/1999/xlink" x="0px" y="0px"
	 width="24px" height="24px" viewBox="0 0 24 24" enable-background="new 0 0 24 24" xml:space="preserve">
<path fill="#555555" d="M20.6,8H17V3.5C17,1.3,15.3,0,13.6,0H12c-1.1,0-2,0.8-2,1.9C9.9,5.7,9.1,8.3,7.8,8.6C7.1,8.7,6.5,9,6.1,9.3
	C5.9,9.1,5.6,9,5.2,9H1.8C0.8,9,0,9.8,0,10.8v10.5c0,1,0.8,1.8,1.8,1.8h3.5c0.4,0,0.8-0.1,1.1-0.4c1,0.7,2.6,1.4,5.1,1.4h9.1
	c1.9,0,3.4-1.5,3.4-3.4v-8.8C24,10,22.6,8,20.6,8z M2,11h3v10H2V11z M22,20.6c0,0.8-0.6,1.4-1.4,1.4h-9.1c-2.7,0-4-1-4.4-1.4v-9.5
	c0.1-0.1,0.3-0.4,1.2-0.6c3-0.6,3.7-5,3.8-8.5h0h1.6C14.1,2,15,2.4,15,3.5v4.8c0,1.1,0.6,1.7,1.7,1.7h3.9c0.7,0,1.4,0.9,1.4,1.8
	V20.6z"/>
</svg>
