<?xml version="1.0" encoding="utf-8"?>
<!-- Generator: Adobe Illustrator 18.1.1, SVG Export Plug-In . SVG Version: 6.00 Build 0)  -->
<!DOCTYPE svg PUBLIC "-//W3C//DTD SVG 1.1//EN" "http://www.w3.org/Graphics/SVG/1.1/DTD/svg11.dtd">
<svg version="1.1" id="Layer_1" xmlns="http://www.w3.org/2000/svg" xmlns:xlink="http://www.w3.org/1999/xlink" x="0px" y="0px"
	 width="24px" height="24px" viewBox="0 0 24 24" enable-background="new 0 0 24 24" xml:space="preserve">
<g>
	<path fill="#555555" d="M19,3h-2V2.5C17,1.1,15.9,0,14.5,0h-5C8.1,0,7,1.1,7,2.5V3H5C2.2,3,0,5.2,0,8v8c0,2.8,2.2,5,5,5h1v2
		c0,0.6,0.4,1,1,1h10c0.6,0,1-0.4,1-1v-2h1c2.8,0,5-2.2,5-5V8C24,5.2,21.8,3,19,3z M9,2.5C9,2.2,9.2,2,9.5,2h5C14.8,2,15,2.2,15,2.5
		V3H9V2.5z M16,22H8v-1h8V22z M22,16c0,1.7-1.3,3-3,3h-2H7H5c-1.7,0-3-1.3-3-3V8c0-1.7,1.3-3,3-3h3h8h3c1.7,0,3,1.3,3,3V16z"/>
	<circle fill="#555555" cx="8.5" cy="9.5" r="1.5"/>
	<circle fill="#555555" cx="15.5" cy="9.5" r="1.5"/>
	<path fill="#555555" d="M16,13.1c-0.5-0.3-1.1-0.1-1.4,0.4C14.1,14.4,13.1,15,12,15s-2.1-0.6-2.6-1.5C9.1,13,8.5,12.9,8,13.1
		c-0.5,0.3-0.6,0.9-0.4,1.4C8.6,16,10.2,17,12,17s3.4-1,4.3-2.5C16.6,14,16.4,13.4,16,13.1z"/>
</g>
</svg>
