<?xml version="1.0" encoding="utf-8"?>
<!-- Generator: Adobe Illustrator 18.1.1, SVG Export Plug-In . SVG Version: 6.00 Build 0)  -->
<!DOCTYPE svg PUBLIC "-//W3C//DTD SVG 1.1//EN" "http://www.w3.org/Graphics/SVG/1.1/DTD/svg11.dtd">
<svg version="1.1" id="Layer_1" xmlns="http://www.w3.org/2000/svg" xmlns:xlink="http://www.w3.org/1999/xlink" x="0px" y="0px"
	 width="24px" height="24px" viewBox="0 0 24 24" enable-background="new 0 0 24 24" xml:space="preserve">
<path fill="#555555" d="M19.9,8.1C20.6,7.2,21,6.2,21,5c0-2.8-2.2-5-5-5s-5,2.2-5,5c0,1.2,0.4,2.2,1.1,3.1c-0.3,0-0.6,0.1-0.8,0.2
	C10.4,7.5,9.3,7,8,7c-2.8,0-5,2.2-5,5c0,1.2,0.4,2.2,1.1,3.1C1.8,15.5,0,17.6,0,20v1.7C0,23,1.1,24,2.5,24h11c1.4,0,2.5-1,2.5-2.3
	V20c0-1.1-0.4-2.2-1-3h6.5c1.4,0,2.5-1,2.5-2.3V13C24,10.6,22.2,8.5,19.9,8.1z M16,2c1.7,0,3,1.3,3,3s-1.3,3-3,3s-3-1.3-3-3
	S14.3,2,16,2z M8,9c1.7,0,3,1.3,3,3s-1.3,3-3,3s-3-1.3-3-3S6.3,9,8,9z M14,20v1.7c0,0.2-0.3,0.3-0.5,0.3h-11C2.3,22,2,21.9,2,21.7
	V20c0-1.7,1.3-3,3-3h5h1C12.7,17,14,18.3,14,20z M22,14.7c0,0.2-0.3,0.3-0.5,0.3H12c0.6-0.8,1-1.9,1-3c0-0.7-0.1-1.4-0.4-2
	c0.1,0,0.3,0,0.4,0h6c1.7,0,3,1.3,3,3V14.7z"/>
</svg>
