<?xml version="1.0" encoding="utf-8"?>
<!-- Generator: Adobe Illustrator 18.1.1, SVG Export Plug-In . SVG Version: 6.00 Build 0)  -->
<!DOCTYPE svg PUBLIC "-//W3C//DTD SVG 1.1//EN" "http://www.w3.org/Graphics/SVG/1.1/DTD/svg11.dtd">
<svg version="1.1" id="Layer_1" xmlns="http://www.w3.org/2000/svg" xmlns:xlink="http://www.w3.org/1999/xlink" x="0px" y="0px"
	 width="24px" height="24px" viewBox="0 0 24 24" enable-background="new 0 0 24 24" xml:space="preserve">
<path fill="#555555" d="M16.1,13c0,0-0.1,0-0.1,0l0-1.4c2-1.5,2.9-4.1,2.3-6.5c-0.5-2.4-2.5-4.4-5-4.9C12.9,0,12.5,0,12,0
	C8.4,0,5.5,2.9,5.5,6.5c0,2,0.9,3.9,2.5,5.1v1.3c-3.9,0-7,3.1-7,7v1.5C1,22.8,2.1,24,3.5,24h17.2c1.3,0,2.3-1.1,2.3-2.4v-1.7
	C23,16.1,19.9,13,16.1,13z M21,21.6c0,0.2-0.1,0.4-0.3,0.4H3.5C3.2,22,3,21.7,3,21.4v-1.5c0-2.8,2.2-5,5.1-5c1.1,0,1.9-0.9,1.9-1.9
	v-1.4c0-0.6-0.3-1.2-0.8-1.5C8.1,9.2,7.5,7.9,7.5,6.5C7.5,4,9.5,2,12,2c0.3,0,0.7,0,1,0.1c1.7,0.4,3.1,1.7,3.4,3.4
	c0.4,1.7-0.3,3.5-1.6,4.6C14.3,10.4,14,11,14,11.6V13c0,1.1,0.9,1.9,2,1.9c2.8,0,5,2.2,5,5V21.6z"/>
</svg>
