<?xml version="1.0" encoding="utf-8"?>
<!-- Generator: Adobe Illustrator 18.1.1, SVG Export Plug-In . SVG Version: 6.00 Build 0)  -->
<!DOCTYPE svg PUBLIC "-//W3C//DTD SVG 1.1//EN" "http://www.w3.org/Graphics/SVG/1.1/DTD/svg11.dtd">
<svg version="1.1" id="Layer_1" xmlns="http://www.w3.org/2000/svg" xmlns:xlink="http://www.w3.org/1999/xlink" x="0px" y="0px"
	 width="24px" height="24px" viewBox="0 0 24 24" enable-background="new 0 0 24 24" xml:space="preserve">
<g>
	<path fill="#555555" d="M20,11.5c0-2-0.8-3.7-2-5.1V2.5C18,1.1,16.9,0,15.5,0h-6C8.1,0,7,1.1,7,2.5v3.9c-1.2,1.3-2,3.1-2,5.1
		s0.8,3.7,2,5.1v4.9C7,22.9,8.1,24,9.5,24h6c1.4,0,2.5-1.1,2.5-2.5v-4.9C19.2,15.2,20,13.5,20,11.5z M9.5,2h6C15.8,2,16,2.2,16,2.5
		v2.4C15,4.3,13.8,4,12.5,4S10,4.3,9,4.9V2.5C9,2.2,9.2,2,9.5,2z M12.5,6c3,0,5.5,2.5,5.5,5.5S15.5,17,12.5,17S7,14.5,7,11.5
		S9.5,6,12.5,6z M15.5,22h-6C9.2,22,9,21.8,9,21.5v-3.4c1,0.6,2.2,0.9,3.5,0.9s2.5-0.3,3.5-0.9v3.4C16,21.8,15.8,22,15.5,22z"/>
	<path fill="#555555" d="M12,13h3c0.6,0,1-0.4,1-1s-0.4-1-1-1h-2V9c0-0.6-0.4-1-1-1s-1,0.4-1,1v3C11,12.6,11.4,13,12,13z"/>
</g>
</svg>
